<?xml version="1.0" standalone="no"?>
<!DOCTYPE svg PUBLIC "-//W3C//DTD SVG 20010904//EN"
 "http://www.w3.org/TR/2001/REC-SVG-20010904/DTD/svg10.dtd">
<svg version="1.0" xmlns="http://www.w3.org/2000/svg"
 width="1650.000000pt" height="1275.000000pt" viewBox="0 0 1650.000000 1275.000000"
 preserveAspectRatio="xMidYMid meet">

<g transform="translate(0.000000,1275.000000) scale(0.100000,-0.100000)"
fill="#000000" stroke="none">
<path d="M370 6470 l0 -5910 7755 0 7755 0 0 5910 0 5910 -7755 0 -7755 0 0
-5910z m15020 0 l0 -5420 -7265 0 -7265 0 0 5420 0 5420 7265 0 7265 0 0
-5420z"/>
<path d="M6570 10450 l0 -330 650 0 650 0 0 330 0 330 -650 0 -650 0 0 -330z
m1230 5 l0 -265 -585 0 -585 0 0 258 c0 142 3 262 7 265 3 4 267 7 585 7 l578
0 0 -265z"/>
<path d="M7398 10495 c-2 -85 -7 -158 -13 -163 -22 -21 -52 -22 -76 -4 -47 39
-23 162 33 162 13 0 18 7 18 25 0 23 -4 25 -40 25 -73 0 -113 -75 -95 -181 14
-82 93 -125 153 -83 12 8 22 10 22 5 0 -6 14 -11 30 -11 l30 0 0 190 0 190
-29 0 -30 0 -3 -155z"/>
<path d="M6748 10524 c-39 -21 -58 -64 -58 -131 0 -76 25 -118 78 -134 44 -13
100 0 123 27 10 12 8 17 -7 29 -23 17 -31 18 -39 5 -3 -5 -19 -10 -35 -10 -37
0 -60 32 -60 85 0 52 23 85 59 85 15 0 32 -5 38 -11 8 -8 17 -7 32 3 28 17 27
25 -11 48 -39 23 -82 25 -120 4z"/>
<path d="M6994 10522 c-42 -27 -57 -69 -52 -142 3 -45 10 -66 28 -85 48 -51
138 -51 179 1 43 54 35 168 -13 213 -34 32 -101 38 -142 13z m104 -54 c7 -7
12 -39 12 -73 0 -68 -10 -85 -51 -85 -36 0 -59 33 -59 85 0 52 23 85 59 85 15
0 32 -5 39 -12z"/>
<path d="M7568 10525 c-38 -22 -58 -65 -58 -127 0 -61 14 -93 52 -121 33 -25
102 -26 147 -3 36 19 38 27 14 49 -16 13 -20 14 -37 1 -28 -20 -73 -17 -96 6
-15 15 -20 33 -20 73 0 61 11 77 55 77 35 0 55 -15 55 -42 0 -14 -8 -18 -40
-18 -36 0 -40 -2 -40 -25 0 -24 2 -25 69 -25 39 0 73 5 76 10 13 21 -7 92 -34
122 -33 37 -100 47 -143 23z"/>
<path d="M8600 10501 c0 -138 -2 -153 -20 -171 -44 -44 -90 -8 -90 70 0 55 23
90 60 90 15 0 20 7 20 25 0 22 -4 25 -39 25 -28 0 -49 -7 -68 -24 -27 -23 -28
-28 -28 -116 0 -88 1 -93 28 -116 29 -25 88 -32 117 -14 9 5 19 5 27 -1 6 -6
22 -9 35 -7 l23 3 0 190 0 190 -32 3 -33 3 0 -150z"/>
<path d="M7964 10526 c-55 -24 -81 -127 -50 -200 26 -63 98 -90 160 -61 39 19
45 35 20 56 -12 10 -20 10 -35 1 -24 -15 -62 -15 -77 0 -7 7 -12 39 -12 73 0
34 5 66 12 73 15 15 53 15 77 0 15 -9 23 -9 35 1 25 21 19 41 -19 57 -42 17
-71 17 -111 0z"/>
<path d="M8204 10531 c-27 -12 -36 -25 -28 -44 4 -12 18 -14 62 -10 74 7 84
-4 80 -89 -3 -56 -6 -64 -28 -75 -45 -21 -88 3 -74 41 3 8 20 16 37 18 24 2
33 8 35 26 3 20 -1 22 -36 22 -55 0 -70 -7 -88 -42 -40 -77 31 -144 119 -114
20 8 37 10 37 5 0 -5 14 -9 31 -9 l31 0 -4 115 c-3 102 -5 117 -25 136 -24 25
-111 36 -149 20z"/>
<path d="M8774 10524 c-43 -21 -59 -56 -59 -130 0 -75 23 -113 80 -132 40 -13
94 -4 130 22 19 14 19 15 1 35 -17 18 -21 19 -39 6 -28 -19 -71 -19 -91 0 -30
30 -32 107 -4 143 17 20 76 15 88 -8 16 -29 4 -40 -41 -40 -36 0 -40 -2 -37
-22 3 -21 8 -23 73 -23 l70 0 3 32 c9 96 -87 160 -174 117z"/>
<path d="M9082 10524 c-12 -8 -22 -10 -22 -5 0 6 -13 11 -30 11 l-30 0 0 -135
0 -135 30 0 30 0 0 91 c0 104 9 129 48 129 46 0 52 -15 52 -122 l0 -98 30 0
30 0 0 88 c0 98 14 132 55 132 41 0 55 -34 55 -132 l0 -88 30 0 30 0 0 103 c0
83 -4 108 -20 134 -26 43 -80 54 -131 26 -35 -19 -37 -19 -59 -1 -27 22 -68
23 -98 2z"/>
<path d="M9444 10478 c13 -35 36 -94 51 -132 30 -79 27 -113 -10 -122 -19 -5
-25 -13 -25 -35 0 -16 4 -29 9 -29 24 0 68 23 80 42 14 22 121 312 121 328 0
6 -13 10 -30 10 -28 0 -30 -3 -56 -90 -15 -49 -30 -88 -33 -86 -3 3 -20 43
-36 90 -29 84 -30 86 -62 86 l-33 0 24 -62z"/>
<path d="M7912 10158 l3 -33 95 0 95 0 3 33 3 32 -101 0 -101 0 3 -32z"/>
<path d="M4247 9616 c-232 -67 -357 -253 -357 -530 0 -175 41 -293 137 -396
143 -155 403 -194 573 -84 53 34 116 103 143 159 40 79 39 85 -13 101 -68 21
-76 18 -94 -26 -22 -57 -83 -119 -141 -146 -61 -29 -176 -33 -248 -8 -60 20
-135 88 -170 153 -53 97 -70 244 -43 372 28 131 93 220 195 267 74 34 192 36
263 5 58 -27 121 -90 145 -149 20 -49 13 -47 105 -23 l37 9 -15 42 c-38 108
-125 198 -231 238 -73 28 -216 36 -286 16z"/>
<path d="M9411 9615 c-167 -47 -290 -177 -336 -355 -11 -43 -17 -103 -17 -175
1 -178 41 -290 143 -399 69 -74 156 -119 267 -137 182 -30 363 57 443 213 40
80 39 91 -16 106 -66 18 -70 16 -91 -30 -49 -110 -141 -168 -265 -168 -98 0
-156 21 -219 77 -83 75 -130 196 -130 338 0 183 73 326 197 387 58 28 75 32
147 32 147 -1 212 -48 293 -212 0 -2 28 4 62 13 l60 17 -16 42 c-44 112 -126
195 -233 237 -73 28 -214 35 -289 14z"/>
<path d="M4980 9090 l0 -530 315 0 315 0 0 60 0 60 -250 0 -250 0 0 190 0 190
200 0 200 0 0 60 0 60 -200 0 -201 0 3 158 3 157 243 3 242 2 0 60 0 60 -310
0 -310 0 0 -530z"/>
<path d="M5820 9091 l0 -531 65 0 65 0 0 250 0 251 87 -3 87 -3 155 -247 155
-248 73 0 73 0 -39 63 c-21 34 -90 146 -154 250 -65 103 -117 189 -117 191 0
1 17 8 38 14 64 20 117 65 148 128 23 48 28 69 27 135 -1 132 -56 215 -173
259 -24 9 -107 15 -262 18 l-228 4 0 -531z m458 385 c50 -26 72 -70 72 -143 0
-55 -4 -66 -30 -96 -40 -46 -89 -57 -244 -57 l-126 0 0 153 c0 85 3 157 8 161
4 5 70 6 147 4 107 -3 148 -9 173 -22z"/>
<path d="M6617 9613 c-4 -3 -7 -30 -7 -60 l0 -53 155 0 155 0 0 -470 0 -470
65 0 65 0 2 468 3 467 153 3 152 3 0 59 0 60 -368 0 c-203 0 -372 -3 -375 -7z"/>
<path d="M7510 9090 l0 -530 65 0 65 0 0 530 0 530 -65 0 -65 0 0 -530z"/>
<path d="M7900 9090 l0 -530 65 0 65 0 2 243 3 242 203 3 202 2 0 60 0 60
-205 0 -205 0 2 163 3 162 248 3 247 2 0 60 0 60 -315 0 -315 0 0 -530z"/>
<path d="M8720 9090 l0 -530 65 0 65 0 0 530 0 530 -65 0 -65 0 0 -530z"/>
<path d="M10387 9578 c-22 -59 -357 -1010 -357 -1015 0 -1 30 -3 68 -3 l68 0
45 138 45 137 205 3 204 2 46 -137 45 -138 67 -3 c37 -2 67 1 67 5 0 4 -82
243 -182 530 l-183 523 -61 0 -61 0 -16 -42z m158 -377 c41 -123 75 -227 75
-232 0 -5 -72 -9 -160 -9 -88 0 -160 1 -160 3 0 3 135 399 155 456 3 8 8 12
10 9 3 -3 39 -105 80 -227z"/>
<path d="M10830 9560 l0 -60 155 0 155 0 0 -470 0 -470 65 0 65 0 0 470 0 470
155 0 155 0 0 60 0 60 -375 0 -375 0 0 -60z"/>
<path d="M11730 9090 l0 -530 315 0 315 0 0 60 0 60 -250 0 -250 0 0 190 0
190 195 0 195 0 0 60 0 60 -195 0 -195 0 0 160 0 160 240 0 240 0 0 60 0 60
-305 0 -305 0 0 -530z"/>
<path d="M5801 8185 c-92 -29 -144 -109 -145 -225 -1 -126 52 -203 157 -231
124 -34 238 56 253 198 19 176 -114 306 -265 258z m135 -64 c17 -11 41 -40 54
-66 19 -39 22 -58 18 -116 -5 -59 -10 -76 -35 -107 -57 -71 -150 -76 -214 -13
-77 78 -56 260 36 306 41 20 104 19 141 -4z"/>
<path d="M6825 8191 c-75 -19 -113 -51 -146 -125 -18 -41 -21 -63 -17 -128 4
-67 9 -85 34 -121 56 -80 142 -113 227 -87 47 14 117 80 117 109 0 20 -43 38
-48 20 -10 -26 -56 -69 -87 -79 -45 -15 -87 -5 -127 28 -41 35 -58 79 -58 152
0 70 16 115 55 150 23 21 36 25 92 25 60 0 67 -2 93 -31 15 -17 29 -37 32 -44
2 -7 13 -9 30 -5 l27 7 -19 38 c-23 45 -60 74 -115 89 -44 12 -47 12 -90 2z"/>
<path d="M7295 8195 c-5 -2 -22 -6 -37 -9 -37 -8 -95 -60 -118 -105 -60 -118
-17 -286 86 -337 24 -11 60 -19 94 -19 105 0 178 63 201 173 23 114 -22 232
-105 271 -41 20 -102 33 -121 26z m95 -73 c46 -23 71 -69 77 -142 7 -77 -15
-140 -64 -177 -68 -52 -168 -28 -210 50 -24 45 -24 160 0 209 36 72 122 98
197 60z"/>
<path d="M9887 8187 c-98 -31 -146 -107 -147 -231 0 -66 4 -86 27 -128 60
-109 210 -140 303 -61 55 46 75 97 75 193 0 75 -3 91 -28 132 -47 80 -147 121
-230 95z m131 -67 c44 -27 72 -89 72 -162 0 -67 -12 -103 -48 -141 -62 -65
-168 -53 -219 25 -22 33 -26 50 -26 111 0 46 5 83 15 102 17 32 54 69 78 78
34 12 96 6 128 -13z"/>
<path d="M6160 7960 l0 -230 30 0 30 0 0 105 0 105 90 0 c89 0 90 0 90 25 0
25 -1 25 -90 25 l-90 0 0 75 0 75 105 0 105 0 0 25 0 25 -135 0 -135 0 0 -230z"/>
<path d="M7620 7960 l0 -230 30 0 30 0 2 165 3 166 55 -146 c73 -194 78 -194
150 -4 30 77 58 143 62 145 4 3 8 -69 8 -160 l0 -166 25 0 25 0 0 230 0 230
-33 0 -32 0 -59 -152 c-32 -84 -62 -157 -66 -161 -4 -5 -36 64 -71 152 l-62
161 -34 0 -33 0 0 -230z"/>
<path d="M8130 7959 l0 -230 28 3 27 3 3 98 3 97 77 0 c106 0 145 27 158 107
4 31 1 52 -12 80 -28 57 -69 73 -186 73 l-98 0 0 -231z m221 152 c25 -30 24
-72 -2 -105 -19 -24 -27 -26 -90 -26 l-69 0 0 81 0 81 71 -4 c60 -3 74 -8 90
-27z"/>
<path d="M8510 7960 l0 -230 135 0 135 0 0 25 0 25 -105 0 -105 0 0 205 0 205
-30 0 -30 0 0 -230z"/>
<path d="M8860 7960 l0 -230 140 0 140 0 0 25 0 25 -110 0 -110 0 0 85 0 85
85 0 c84 0 85 0 85 25 0 25 -1 25 -85 25 l-85 0 0 70 0 70 105 0 105 0 0 25 0
25 -135 0 -135 0 0 -230z"/>
<path d="M9197 8183 c-4 -3 -7 -15 -7 -25 0 -16 9 -18 70 -18 l70 0 0 -205 0
-205 30 0 30 0 0 205 0 205 65 0 c63 0 65 1 65 25 l0 25 -158 0 c-87 0 -162
-3 -165 -7z"/>
<path d="M9590 7960 l0 -230 25 0 25 0 0 230 0 230 -25 0 -25 0 0 -230z"/>
<path d="M10240 7960 l0 -230 30 0 30 0 2 177 3 178 100 -175 c95 -165 103
-175 133 -178 l32 -3 0 230 0 231 -25 0 -25 0 -2 -182 -3 -183 -105 182 c-102
178 -106 183 -137 183 l-33 0 0 -230z"/>
<path d="M7780 7040 l0 -70 345 0 345 0 0 70 0 70 -345 0 -345 0 0 -70z"/>
<path d="M5122 6218 l3 -313 63 -3 62 -3 0 136 0 135 90 0 89 0 3 -132 3 -133
63 -3 62 -3 0 316 0 315 -65 0 -65 0 0 -125 0 -125 -90 0 -90 0 0 125 0 125
-65 0 -65 0 2 -312z"/>
<path d="M8470 6215 l0 -316 63 3 62 3 5 204 5 204 59 -189 c32 -104 63 -197
68 -207 8 -15 20 -17 86 -15 l77 3 3 313 2 312 -65 0 -65 0 -2 -212 -3 -213
-21 65 c-12 36 -43 131 -69 213 l-47 147 -79 0 -79 0 0 -315z"/>
<path d="M9180 6470 l0 -60 60 0 60 0 0 60 0 60 -60 0 -60 0 0 -60z"/>
<path d="M9600 6215 l0 -315 60 0 60 0 0 68 c1 57 4 71 26 96 30 33 22 40 91
-81 l47 -83 63 0 c37 0 63 4 63 11 0 5 -36 70 -79 144 l-80 134 75 85 c41 46
74 87 74 90 0 3 -29 6 -63 6 l-64 0 -76 -91 -77 -91 0 171 0 171 -60 0 -60 0
0 -315z"/>
<path d="M8020 6430 l0 -60 -70 0 -70 0 0 -50 0 -50 70 0 70 0 0 -155 c0 -151
1 -157 24 -180 27 -27 93 -38 201 -33 l70 3 0 45 0 45 -85 5 -85 5 -3 133 -3
132 91 0 90 0 0 50 0 50 -90 0 -90 0 0 60 0 60 -60 0 -60 0 0 -60z"/>
<path d="M5830 6368 c-52 -15 -95 -52 -121 -105 -19 -39 -24 -64 -24 -133 1
-157 72 -233 216 -233 79 0 140 29 176 82 38 56 32 71 -29 71 -48 0 -55 -3
-70 -29 -19 -35 -75 -50 -114 -32 -27 12 -64 66 -64 93 0 16 16 18 158 20
l157 3 -3 40 c-5 78 -24 127 -66 171 -57 59 -130 77 -216 52z m115 -88 c23 -9
55 -60 55 -90 0 -6 -38 -10 -100 -10 -109 0 -116 5 -86 59 25 45 78 61 131 41z"/>
<path d="M6373 6360 c-27 -16 -33 -17 -33 -5 0 12 -14 15 -60 15 l-60 0 0
-235 0 -236 58 3 57 3 6 185 c3 102 6 186 7 188 1 1 10 2 21 2 27 0 31 -25 31
-212 l0 -168 55 0 55 0 0 178 c0 97 4 183 9 190 5 8 17 12 27 10 18 -3 19 -16
22 -191 l2 -187 60 0 60 0 0 176 c0 252 -17 299 -106 299 -31 0 -50 -6 -65
-21 l-21 -21 -23 23 c-29 29 -60 30 -102 4z"/>
<path d="M6929 6367 c-69 -26 -119 -78 -119 -124 0 -21 5 -23 49 -23 45 0 51
3 63 27 37 77 150 61 160 -21 3 -33 0 -35 -111 -55 -84 -16 -137 -44 -161 -84
-24 -39 -25 -66 -4 -110 42 -88 191 -112 265 -41 l29 28 0 -32 c0 -32 0 -32
53 -32 l52 0 -3 172 c-3 155 -5 178 -25 218 -13 26 -36 52 -55 64 -42 24 -145
31 -193 13z m161 -269 c0 -34 -23 -89 -43 -103 -31 -22 -93 -19 -117 5 -23 23
-25 39 -7 63 26 36 167 65 167 35z"/>
<path d="M7560 6369 c-14 -5 -35 -20 -47 -31 l-23 -21 0 26 c0 26 -2 27 -60
27 l-60 0 0 -235 0 -235 60 0 60 0 0 143 c0 200 14 237 88 237 51 0 57 -17 62
-204 l5 -171 58 -3 57 -3 0 186 c0 164 -2 190 -19 223 -11 20 -29 43 -41 50
-29 18 -109 24 -140 11z"/>
<path d="M10280 6371 c-76 -25 -130 -79 -130 -130 0 -19 6 -21 50 -21 44 0 52
3 60 24 32 84 160 63 160 -26 0 -24 -5 -28 -37 -33 -183 -30 -248 -70 -248
-156 0 -68 47 -118 123 -133 48 -9 123 11 155 41 l27 27 0 -32 c0 -32 0 -32
53 -32 l52 0 -3 172 c-3 155 -5 178 -25 218 -13 26 -36 52 -55 64 -36 20 -142
31 -182 17z m150 -273 c0 -34 -23 -89 -43 -103 -26 -19 -87 -20 -111 -2 -22
16 -24 63 -5 82 30 29 159 47 159 23z"/>
<path d="M10823 6360 c-27 -16 -33 -17 -33 -5 0 12 -14 15 -60 15 l-60 0 2
-232 3 -233 58 -3 57 -3 0 159 c0 194 5 224 34 220 20 -3 21 -8 24 -190 l2
-188 55 0 54 0 3 180 c3 183 9 209 42 197 14 -6 16 -33 16 -192 l0 -185 61 0
60 0 -3 204 c-3 190 -5 207 -24 233 -37 49 -101 56 -143 14 -17 -17 -19 -17
-45 6 -33 28 -61 29 -103 3z"/>
<path d="M9044 6356 c-3 -8 -4 -29 -2 -48 l3 -33 68 -3 67 -3 0 -134 0 -134
-67 -3 -68 -3 0 -45 0 -45 195 0 195 0 0 45 0 45 -67 3 -68 3 0 184 0 185
-125 0 c-99 0 -127 -3 -131 -14z"/>
<path d="M7530 5239 c0 -5 5 -7 10 -4 6 3 10 8 10 11 0 2 -4 4 -10 4 -5 0 -10
-5 -10 -11z"/>
<path d="M6925 5180 c3 -5 8 -10 11 -10 2 0 4 5 4 10 0 6 -5 10 -11 10 -5 0
-7 -4 -4 -10z"/>
<path d="M8414 4905 c-4 -9 -2 -21 4 -27 15 -15 44 -1 40 19 -4 23 -36 29 -44
8z"/>
<path d="M6370 4795 l0 -116 67 3 c55 2 68 6 71 21 3 14 -4 17 -47 17 l-51 0
0 95 c0 88 -1 95 -20 95 -19 0 -20 -7 -20 -115z"/>
<path d="M7358 4818 c-3 -88 -4 -93 -25 -96 -13 -2 -23 1 -23 7 0 6 -11 11
-25 11 -30 0 -32 -13 -5 -40 24 -24 67 -26 98 -4 20 14 22 23 22 115 0 92 -1
99 -20 99 -18 0 -20 -8 -22 -92z"/>
<path d="M7947 4892 c-33 -37 -18 -76 43 -110 21 -11 35 -26 35 -38 0 -27 -40
-30 -61 -6 -16 20 -44 20 -44 0 0 -5 11 -20 25 -33 31 -32 74 -33 103 -2 40
42 23 85 -47 122 -50 25 -34 65 17 42 31 -14 50 4 27 27 -22 22 -78 21 -98 -2z"/>
<path d="M8708 4899 c-10 -6 -18 -17 -18 -26 0 -9 -8 -22 -17 -29 -17 -13 -17
-15 0 -28 11 -8 17 -27 17 -52 0 -49 23 -84 56 -84 17 0 24 5 24 20 0 11 -3
19 -7 19 -27 -4 -33 4 -33 46 0 38 3 45 20 45 13 0 20 7 20 20 0 13 -7 20 -19
20 -14 0 -21 8 -23 29 -3 25 -6 28 -20 20z"/>
<path d="M8917 4890 c-65 -51 -50 -170 24 -200 49 -21 129 8 129 45 0 22 -27
24 -46 4 -22 -24 -66 -25 -87 -1 -21 23 -22 91 -3 117 17 23 74 25 91 2 15
-21 45 -22 45 -2 0 52 -102 75 -153 35z"/>
<path d="M6558 4840 c-9 -6 -21 -25 -28 -44 -27 -83 57 -150 121 -96 20 16 21
21 10 29 -10 6 -22 4 -38 -6 -19 -12 -26 -13 -38 -3 -27 22 -16 30 41 30 l57
0 -7 33 c-11 55 -70 84 -118 57z m77 -51 c-8 -12 -65 -12 -65 1 0 5 8 13 17
19 20 11 57 -4 48 -20z"/>
<path d="M6729 4831 c-30 -24 -18 -39 19 -25 32 12 52 8 52 -12 0 -9 -11 -14
-33 -14 -40 0 -57 -15 -57 -50 0 -14 5 -31 12 -38 16 -16 50 -15 67 1 11 10
14 10 18 0 3 -7 11 -13 19 -13 11 0 14 16 14 69 0 61 -3 72 -22 85 -30 21 -61
20 -89 -3z m71 -91 c0 -12 -35 -31 -44 -23 -15 15 -4 33 19 33 14 0 25 -4 25
-10z"/>
<path d="M6880 4765 c0 -78 2 -85 20 -85 17 0 20 7 20 50 0 37 5 55 20 70 12
12 25 18 29 15 10 -6 24 25 16 33 -3 4 -19 1 -35 -5 -17 -6 -30 -7 -30 -2 0 5
-9 9 -20 9 -18 0 -20 -7 -20 -85z"/>
<path d="M7017 4843 c-4 -3 -7 -42 -7 -85 0 -71 2 -78 20 -78 17 0 20 7 20 50
0 38 5 55 22 72 20 20 22 20 35 3 7 -11 13 -43 13 -72 0 -40 4 -53 15 -53 12
0 15 15 15 73 0 43 -5 78 -12 85 -16 16 -50 15 -67 0 -11 -10 -14 -10 -18 0
-5 13 -25 16 -36 5z"/>
<path d="M7468 4836 c-36 -27 -17 -47 23 -25 15 7 24 7 35 -1 19 -17 8 -30
-26 -30 -16 0 -36 -7 -44 -16 -43 -42 13 -107 64 -74 9 5 19 5 28 -2 24 -20
35 6 30 73 -3 45 -9 65 -23 75 -24 18 -65 17 -87 0z m72 -96 c0 -16 -41 -33
-52 -22 -6 6 -7 15 -4 21 9 14 56 15 56 1z"/>
<path d="M7600 4840 c0 -7 12 -45 26 -86 34 -96 50 -95 86 6 33 91 32 90 9 90
-15 0 -24 -13 -37 -57 l-17 -58 -16 55 c-11 35 -23 56 -34 58 -9 2 -17 -2 -17
-8z"/>
<path d="M7777 4832 c-10 -10 -17 -22 -17 -25 0 -11 35 -8 46 3 14 14 44 2 44
-16 0 -9 -12 -14 -35 -14 -40 0 -68 -32 -58 -68 7 -28 48 -40 77 -22 14 9 21
10 24 1 2 -6 10 -11 18 -11 11 0 14 16 14 65 0 52 -4 69 -20 85 -25 25 -72 26
-93 2z m73 -92 c0 -12 -35 -31 -44 -23 -15 15 -4 33 19 33 14 0 25 -4 25 -10z"/>
<path d="M8123 4835 c-63 -44 -23 -155 56 -155 29 0 68 36 55 50 -9 9 -18 8
-39 -6 -22 -15 -28 -15 -40 -3 -24 25 -23 84 1 93 9 4 26 0 38 -7 12 -8 29
-11 40 -7 17 6 17 8 -9 28 -32 26 -72 28 -102 7z"/>
<path d="M8280 4765 c0 -78 2 -85 20 -85 17 0 20 7 20 50 0 37 5 55 20 70 12
12 25 18 29 15 5 -2 11 4 14 15 6 23 -12 26 -44 10 -13 -7 -19 -7 -19 0 0 5
-9 10 -20 10 -18 0 -20 -7 -20 -85z"/>
<path d="M8414 4837 c-3 -8 -4 -45 -2 -83 2 -56 6 -69 21 -72 15 -3 17 6 17
82 0 71 -3 86 -15 86 -9 0 -18 -6 -21 -13z"/>
<path d="M8500 4733 c0 -104 2 -114 18 -111 11 2 18 14 20 35 3 30 5 31 36 26
27 -4 37 0 54 22 30 38 29 89 -2 120 -19 19 -34 24 -75 23 l-51 -1 0 -114z
m94 71 c9 -8 16 -26 16 -39 0 -21 -23 -55 -37 -55 -15 0 -43 35 -43 53 0 20
26 57 41 57 4 0 15 -7 23 -16z"/>
<path d="M9130 4830 c-57 -57 -19 -150 61 -150 26 0 79 53 79 79 0 74 -91 120
-140 71z m95 -49 c8 -25 -3 -49 -28 -63 -17 -9 -24 -7 -39 12 -23 29 -23 45 2
70 23 23 54 14 65 -19z"/>
<path d="M9300 4782 c0 -54 4 -72 18 -85 22 -20 53 -22 71 -4 11 10 14 10 18
0 3 -7 11 -13 19 -13 11 0 14 18 14 85 0 65 -3 85 -14 85 -9 0 -15 -19 -19
-57 -4 -38 -12 -62 -23 -70 -29 -21 -44 2 -44 68 0 52 -2 59 -20 59 -18 0 -20
-7 -20 -68z"/>
<path d="M9490 4765 c0 -78 2 -85 20 -85 18 0 20 7 20 54 0 45 4 58 22 70 12
8 25 13 30 10 4 -3 8 4 8 15 0 23 -12 26 -41 11 -13 -7 -19 -7 -19 0 0 5 -9
10 -20 10 -18 0 -20 -7 -20 -85z"/>
<path d="M9632 4838 c-24 -24 -14 -58 23 -79 19 -12 35 -25 35 -29 0 -18 -22
-21 -38 -6 -21 18 -45 7 -36 -17 8 -23 50 -32 80 -18 39 17 33 64 -12 90 -38
23 -38 45 1 35 29 -7 42 12 16 25 -26 14 -54 14 -69 -1z"/>
<path d="M9778 4836 c-23 -17 -40 -64 -32 -90 18 -61 80 -84 125 -46 20 16 21
21 10 29 -10 6 -22 4 -38 -6 -19 -12 -26 -13 -38 -3 -27 22 -16 30 40 30 52 0
55 1 55 25 0 56 -78 95 -122 61z m77 -47 c-8 -12 -65 -12 -65 1 0 5 8 13 17
19 20 11 57 -4 48 -20z"/>
<path d="M3148 4571 l-42 -50 -51 44 -52 44 -33 -55 c-18 -30 -34 -54 -37 -54
-2 0 -27 16 -56 35 l-52 35 -30 -59 -30 -59 -55 28 c-30 16 -58 29 -61 30 -4
0 -12 -21 -19 -47 -7 -27 -14 -56 -17 -65 -4 -15 -10 -15 -68 7 l-64 24 -5
-27 c-3 -15 -8 -44 -12 -65 l-6 -38 -42 7 c-90 17 -91 16 -94 -54 l-3 -62 -66
6 -66 7 5 -66 4 -65 -67 -7 -66 -7 14 -60 c8 -33 12 -62 10 -64 -2 -2 -30 -9
-63 -15 -32 -6 -60 -12 -62 -14 -1 -1 7 -26 18 -55 12 -29 19 -58 17 -64 -3
-7 -28 -18 -56 -25 -28 -7 -53 -17 -56 -22 -3 -4 6 -31 20 -59 14 -28 24 -54
21 -58 -3 -5 -27 -19 -55 -32 -28 -13 -51 -26 -51 -29 0 -3 16 -28 35 -55 l35
-49 -53 -35 c-28 -19 -54 -37 -56 -39 -3 -2 14 -23 37 -46 23 -24 42 -46 42
-51 0 -4 -21 -27 -46 -50 l-47 -42 47 -41 c25 -22 46 -45 46 -50 0 -5 -18 -27
-40 -48 -22 -21 -40 -42 -40 -45 0 -3 25 -21 55 -39 l54 -33 -34 -51 c-19 -29
-35 -55 -35 -59 0 -3 25 -18 55 -32 30 -14 55 -28 55 -32 0 -4 -13 -31 -30
-60 l-29 -52 64 -23 c36 -12 65 -27 65 -33 0 -6 -9 -31 -21 -55 -11 -25 -18
-50 -15 -57 3 -7 30 -16 61 -19 30 -4 57 -10 60 -14 3 -7 -8 -72 -21 -113 -5
-16 2 -18 60 -18 l66 0 0 -69 0 -69 65 6 65 5 0 -67 c0 -36 3 -66 8 -66 4 0
33 6 65 14 31 7 59 11 61 7 2 -3 7 -28 11 -56 4 -27 9 -53 11 -57 2 -3 32 2
67 13 34 10 62 19 63 19 0 0 9 -27 19 -60 10 -33 20 -60 22 -60 2 0 26 11 53
25 27 14 53 25 58 25 4 0 20 -25 35 -56 18 -37 31 -53 40 -48 6 4 31 21 55 37
24 16 44 27 46 25 1 -1 17 -27 35 -55 l33 -53 51 46 c42 37 53 43 62 31 5 -7
25 -31 43 -51 l32 -37 28 32 c15 18 33 41 40 51 13 18 17 16 67 -27 l53 -45
26 43 c45 75 39 73 87 40 24 -16 50 -33 56 -37 9 -5 22 11 40 48 15 31 31 56
35 56 5 0 31 -11 58 -25 27 -14 52 -25 54 -25 3 0 13 26 22 58 9 31 17 58 18
59 1 1 31 -6 67 -17 35 -11 65 -20 65 -20 1 0 5 28 8 61 l7 62 45 -7 c24 -3
55 -8 69 -12 25 -6 25 -6 25 61 l0 68 68 -6 67 -7 0 68 0 67 63 3 c70 3 66 -5
41 92 -10 41 -4 46 63 55 26 4 51 11 54 17 3 5 -4 32 -15 59 -12 27 -19 54
-16 59 3 4 27 16 53 26 26 9 51 21 55 24 5 4 -3 30 -17 58 -14 28 -26 54 -26
57 0 3 25 16 55 30 30 13 55 28 55 32 0 5 -15 31 -34 59 l-34 51 54 33 c30 18
54 35 54 39 0 4 -18 25 -40 46 -37 36 -51 65 -32 65 4 0 25 17 46 37 l40 37
-49 42 -48 43 43 51 c23 28 41 52 39 54 -2 2 -27 18 -56 35 l-52 32 36 55 c20
30 34 56 32 58 -2 2 -28 15 -56 30 -29 14 -53 29 -53 32 0 2 12 28 26 56 14
28 22 54 17 58 -4 4 -32 15 -60 25 -29 9 -53 22 -53 28 0 7 9 32 20 56 11 24
20 47 20 51 0 4 -21 11 -47 14 -90 13 -85 3 -58 124 5 20 2 22 -37 22 -24 0
-54 3 -67 7 -22 6 -23 10 -19 70 l4 65 -68 -7 -68 -7 0 67 0 68 -32 -7 c-18
-4 -49 -9 -69 -12 l-36 -6 -7 51 c-11 83 -9 81 -80 55 l-63 -23 -18 65 c-9 35
-19 64 -21 64 -2 0 -29 -14 -59 -31 l-54 -30 -31 60 -30 61 -55 -37 c-31 -20
-57 -34 -58 -32 -2 2 -19 28 -37 57 l-34 53 -48 -48 c-26 -26 -49 -45 -52 -42
-2 2 -22 25 -44 51 l-41 48 -43 -49z m318 -180 c485 -120 843 -507 925 -1000
17 -98 14 -302 -5 -403 -83 -442 -381 -786 -814 -942 -222 -80 -546 -75 -784
10 -694 250 -1010 1043 -677 1700 61 122 128 213 225 309 134 134 313 242 489
298 70 22 106 30 225 51 65 12 338 -3 416 -23z"/>
<path d="M3100 4403 c-280 -22 -561 -152 -759 -352 -441 -446 -466 -1157 -57
-1633 290 -337 762 -489 1193 -383 57 13 111 29 120 34 10 6 53 26 95 45 340
152 592 469 674 848 24 113 29 305 10 420 -44 266 -157 490 -341 673 -107 106
-195 167 -348 240 -189 90 -377 125 -587 108z m5 -190 c8 -87 10 -93 34 -93
27 0 35 34 26 105 -5 45 -4 55 8 55 29 0 38 -132 10 -162 -21 -23 -65 -23 -85
0 -21 24 -32 162 -13 162 9 0 15 -20 20 -67z m272 45 c18 -15 16 -63 -3 -79
-15 -12 -15 -34 1 -71 5 -13 3 -18 -7 -18 -8 0 -22 18 -31 40 -19 49 -44 53
-49 8 -2 -17 -9 -34 -17 -36 -12 -4 -13 7 -7 64 12 116 12 117 59 110 23 -4
47 -12 54 -18z m-382 -28 c11 -12 20 -41 23 -74 4 -50 2 -55 -22 -71 -35 -23
-72 -13 -91 26 -20 38 -23 102 -6 123 19 23 74 20 96 -4z m569 -16 c17 -16 22
-44 8 -44 -4 0 -13 9 -20 20 -15 24 -50 26 -59 4 -3 -10 7 -27 31 -48 39 -37
44 -56 20 -80 -21 -22 -56 -20 -88 5 -28 22 -37 63 -11 53 8 -4 15 -12 15 -20
0 -17 37 -37 56 -30 22 8 17 25 -21 67 -37 42 -42 58 -23 77 17 17 74 15 92
-4z m-755 -38 c17 -20 -3 -30 -28 -14 -15 9 -23 9 -35 -1 -9 -8 -16 -20 -16
-28 0 -21 38 -91 52 -96 21 -7 48 12 48 33 0 21 15 27 25 10 17 -28 -41 -76
-80 -66 -54 14 -90 133 -50 162 24 18 69 18 84 0z m908 -31 c23 -14 43 -30 43
-35 0 -14 -4 -13 -46 12 -36 21 -37 21 -50 3 -19 -26 -18 -28 16 -48 39 -23
39 -42 0 -22 -39 20 -45 19 -58 -9 -9 -21 -7 -25 24 -42 19 -10 34 -25 34 -32
0 -9 -13 -5 -42 12 -35 21 -43 31 -41 53 3 31 54 133 67 133 5 0 29 -11 53
-25z m-339 -191 c60 -13 210 -76 222 -92 3 -4 28 -24 55 -44 78 -57 205 -199
205 -230 0 -4 -301 -8 -670 -8 -368 0 -670 3 -670 8 0 20 114 154 175 205 189
159 437 217 683 161z m852 -434 c0 -7 -353 -10 -1040 -10 -687 0 -1040 3
-1040 10 0 7 353 10 1040 10 687 0 1040 -3 1040 -10z m-1899 -139 c16 -16 29
-36 29 -44 0 -9 3 -22 6 -31 5 -12 -1 -16 -24 -16 -25 0 -30 5 -35 29 -11 54
-77 53 -96 -1 -14 -39 -14 -178 -1 -213 19 -50 86 -46 97 5 4 25 10 30 34 30
33 0 35 -7 15 -53 -20 -48 -50 -70 -96 -70 -49 0 -84 28 -101 82 -14 41 -17
159 -6 213 19 92 116 130 178 69z m259 1 c34 -35 50 -87 50 -167 0 -147 -66
-228 -156 -190 -42 17 -66 73 -72 165 -5 88 9 147 44 190 36 42 93 43 134 2z
m174 11 c3 -10 8 -36 12 -58 3 -22 10 -46 14 -54 9 -16 10 -12 30 77 12 50 13
52 46 52 l34 0 0 -195 0 -195 -25 0 -25 0 -1 148 -1 147 -21 -82 c-12 -48 -26
-83 -33 -83 -7 0 -21 34 -32 83 l-20 82 -1 -147 -1 -148 -25 0 -25 0 0 195 0
195 34 0 c24 0 36 -5 40 -17z m354 3 c38 -20 57 -60 56 -118 0 -39 -6 -54 -29
-78 -24 -25 -36 -30 -77 -30 l-48 0 0 -75 0 -75 -30 0 -30 0 0 195 0 195 65 0
c37 0 78 -6 93 -14z m172 -156 l0 -170 75 0 c73 0 75 -1 75 -25 l0 -25 -105 0
-105 0 0 195 0 195 30 0 30 0 0 -170z m400 140 l0 -30 -70 0 -70 0 0 -50 0
-50 60 0 60 0 0 -30 0 -30 -60 0 -61 0 3 -57 3 -58 73 -3 c69 -3 72 -4 72 -27
0 -25 0 -25 -100 -25 l-100 0 0 195 0 195 95 0 95 0 0 -30z m290 0 c0 -29 -1
-30 -50 -30 l-50 0 0 -165 0 -165 -25 0 -25 0 0 165 0 165 -50 0 c-49 0 -50 1
-50 30 l0 30 125 0 125 0 0 -30z m250 0 l0 -30 -75 0 -75 0 0 -50 0 -50 65 0
65 0 0 -30 0 -30 -65 0 -65 0 0 -60 0 -60 75 0 c73 0 75 -1 75 -25 l0 -25
-100 0 -100 0 0 195 0 195 100 0 100 0 0 -30z m-518 -497 c-287 -2 -757 -2
-1045 0 -287 1 -52 2 523 2 575 0 810 -1 522 -2z m148 -71 c0 -31 -127 -173
-205 -230 -27 -20 -52 -39 -55 -43 -3 -3 -28 -18 -55 -32 -276 -139 -614 -98
-852 102 -59 50 -173 184 -173 203 0 5 302 8 670 8 369 0 670 -4 670 -8z
m-190 -412 c0 -6 -16 -18 -35 -27 -37 -18 -44 -33 -21 -52 11 -10 21 -9 45 3
18 10 32 12 36 6 3 -5 -10 -17 -29 -26 -31 -15 -33 -19 -24 -40 13 -28 19 -29
60 -8 17 9 34 12 39 7 5 -5 -14 -20 -45 -35 l-54 -27 -20 42 c-11 23 -27 59
-36 79 l-15 37 42 26 c46 27 57 30 57 15z m-836 -52 c9 -12 16 -30 16 -40 0
-25 -28 -12 -32 15 -2 16 -10 22 -28 22 -31 0 -75 -73 -65 -106 6 -18 12 -20
46 -15 45 7 54 -9 13 -24 -77 -30 -113 67 -53 143 27 35 81 37 103 5z m692
-32 c24 -18 10 -34 -17 -18 -14 9 -25 10 -40 2 -33 -18 -19 -44 28 -51 70 -9
94 -47 53 -84 -24 -21 -72 -24 -95 -5 -12 10 -13 15 -3 21 7 4 18 3 25 -2 20
-17 58 -6 61 17 3 19 -3 23 -48 29 -35 5 -54 13 -61 26 -27 52 47 101 97 65z
m-531 -23 c13 -13 16 -28 12 -66 -8 -90 -81 -127 -122 -63 -14 20 -14 31 -5
68 7 24 19 51 27 61 20 22 67 22 88 0z m101 -77 c-5 -57 -3 -76 7 -85 34 -27
57 22 57 120 0 20 5 29 16 29 14 0 15 -10 9 -72 -4 -43 -14 -80 -23 -90 -30
-35 -91 -14 -94 32 -1 14 -1 51 0 83 2 45 5 57 18 57 15 0 16 -9 10 -74z m252
58 c25 -17 28 -44 10 -74 -10 -16 -9 -24 9 -48 20 -27 21 -42 2 -42 -4 0 -17
16 -29 35 -30 48 -50 46 -50 -5 0 -27 -4 -40 -14 -40 -9 0 -16 25 -22 90 l-9
89 25 4 c48 8 56 7 78 -9z"/>
<path d="M3300 4220 c0 -26 3 -30 29 -30 32 0 48 24 30 46 -6 8 -22 14 -35 14
-20 0 -24 -5 -24 -30z"/>
<path d="M2915 4210 c-8 -24 11 -94 29 -109 17 -14 46 -4 47 18 4 61 -19 111
-51 111 -10 0 -21 -9 -25 -20z"/>
<path d="M3114 3863 c-3 -10 -11 -28 -17 -40 -17 -36 5 -72 43 -71 16 1 33 -1
35 -4 10 -9 -7 -38 -22 -38 -8 0 -13 -7 -11 -17 5 -26 95 -32 105 -7 4 10 0
20 -10 26 -18 10 -23 38 -7 38 6 0 19 15 30 33 21 34 28 30 9 -5 -13 -25 -5
-35 16 -18 16 13 21 70 6 70 -5 0 -11 10 -13 23 -3 20 -9 22 -81 25 -67 2 -78
0 -83 -15z"/>
<path d="M2966 3765 c-3 -8 -12 -15 -21 -15 -8 0 -15 -7 -15 -15 0 -8 5 -15
10 -15 6 0 10 -11 10 -23 0 -21 4 -24 38 -22 28 1 36 5 34 17 -1 9 2 19 8 23
16 10 12 35 -5 35 -9 0 -18 7 -21 15 -4 8 -12 15 -19 15 -7 0 -15 -7 -19 -15z"/>
<path d="M3386 3765 c-3 -8 -12 -15 -21 -15 -17 0 -20 -16 -5 -25 6 -3 10 -16
10 -29 0 -20 5 -23 38 -21 27 1 37 5 37 17 0 9 4 20 8 24 13 13 8 34 -8 34 -9
0 -18 7 -21 15 -4 8 -12 15 -19 15 -7 0 -15 -7 -19 -15z"/>
<path d="M2490 3340 c-17 -17 -20 -33 -20 -124 0 -86 3 -108 18 -126 14 -17
25 -21 44 -17 36 9 48 46 48 146 0 74 -3 93 -21 115 -25 31 -42 33 -69 6z"/>
<path d="M3020 3285 l0 -65 34 0 c43 0 66 22 66 61 0 51 -16 69 -60 69 l-40 0
0 -65z"/>
<path d="M2950 2709 c0 -10 -4 -21 -10 -24 -16 -10 -12 -35 5 -35 9 0 18 -7
21 -15 4 -8 12 -15 19 -15 7 0 15 7 19 15 3 8 12 15 21 15 17 0 21 25 5 35 -6
4 -9 14 -8 23 2 12 -6 16 -34 17 -30 1 -38 -2 -38 -16z"/>
<path d="M3147 2723 c-12 -11 -7 -33 7 -33 21 0 28 -28 9 -38 -9 -5 -24 -7
-34 -5 -26 7 -46 -39 -32 -70 6 -12 14 -30 17 -39 4 -15 18 -18 81 -18 63 0
77 3 81 18 3 9 10 25 15 34 13 26 11 54 -6 68 -21 17 -29 7 -16 -18 19 -35 12
-39 -9 -4 -11 17 -24 32 -30 32 -16 0 -11 28 7 38 31 18 8 42 -40 42 -24 0
-47 -3 -50 -7z"/>
<path d="M3370 2704 c0 -13 -4 -26 -10 -29 -15 -9 -12 -25 5 -25 9 0 18 -7 21
-15 4 -8 12 -15 19 -15 7 0 15 7 19 15 3 8 12 15 21 15 16 0 21 21 8 34 -4 4
-8 15 -8 24 0 12 -10 16 -37 17 -33 2 -38 -1 -38 -21z"/>
<path d="M2920 2266 c-5 -13 -12 -40 -15 -59 -6 -29 -3 -37 13 -46 25 -13 49
6 58 47 3 15 7 32 9 37 5 19 -16 45 -36 45 -11 0 -23 -10 -29 -24z"/>
<path d="M3293 2263 c-7 -2 -13 -18 -13 -34 0 -27 3 -30 28 -27 20 2 28 9 30
27 5 31 -16 46 -45 34z"/>
<path d="M13067 3743 c-4 -3 -7 -57 -7 -120 l0 -113 120 0 120 0 0 120 0 120
-113 0 c-63 0 -117 -3 -120 -7z m203 -118 l0 -85 -85 0 -85 0 0 85 0 85 85 0
85 0 0 -85z"/>
<path d="M13130 3625 l0 -55 50 0 50 0 0 55 0 55 -50 0 -50 0 0 -55z"/>
<path d="M13370 3730 c0 -16 7 -20 35 -20 24 0 35 -5 35 -15 0 -10 -11 -15
-35 -15 -28 0 -35 -4 -35 -20 0 -11 -7 -20 -15 -20 -10 0 -15 -11 -15 -35 0
-24 5 -35 15 -35 8 0 15 -7 15 -15 0 -8 -7 -15 -15 -15 -8 0 -15 -7 -15 -15 0
-8 7 -15 15 -15 10 0 15 -10 15 -34 0 -26 5 -35 21 -39 31 -8 18 -31 -19 -35
-31 -3 -32 -2 -32 32 l0 36 -55 0 -55 0 0 -35 c0 -32 -3 -35 -29 -35 -20 0
-30 6 -34 20 -3 11 -12 20 -21 20 -9 0 -16 7 -16 15 0 10 -11 15 -35 15 -24 0
-35 -5 -35 -15 0 -10 11 -15 35 -15 33 0 35 -2 35 -35 0 -33 -2 -35 -35 -35
-24 0 -35 -5 -35 -15 0 -10 11 -15 35 -15 28 0 35 -4 35 -20 0 -11 -7 -20 -15
-20 -8 0 -15 -7 -15 -15 0 -8 7 -15 15 -15 10 0 15 -11 15 -35 0 -24 -5 -35
-15 -35 -8 0 -15 -9 -15 -20 0 -11 7 -20 15 -20 8 0 15 9 15 20 0 17 7 20 50
20 43 0 50 -3 50 -20 0 -18 7 -20 55 -20 l55 0 0 -65 0 -65 35 0 c28 0 35 -4
35 -20 0 -11 7 -20 15 -20 8 0 15 9 15 20 0 11 6 20 14 20 7 0 16 -9 19 -20 3
-11 12 -20 21 -20 9 0 16 8 16 20 0 11 7 20 15 20 8 0 15 7 15 15 0 8 9 15 20
15 19 0 20 -7 20 -101 0 -92 -2 -101 -20 -106 -35 -9 -24 -33 15 -33 33 0 35
-2 35 -35 0 -24 -5 -35 -15 -35 -10 0 -15 -11 -15 -35 0 -24 5 -35 15 -35 8 0
15 -7 15 -15 0 -8 7 -15 15 -15 8 0 15 7 15 15 0 8 9 15 20 15 13 0 20 7 20
20 0 16 -7 20 -35 20 -24 0 -35 5 -35 15 0 10 11 15 35 15 28 0 35 4 35 20 0
16 7 20 35 20 28 0 35 -4 35 -20 0 -16 -7 -20 -35 -20 -24 0 -35 -5 -35 -15 0
-8 7 -15 15 -15 8 0 15 -9 15 -20 0 -11 -7 -20 -15 -20 -8 0 -15 -7 -15 -15 0
-8 7 -15 15 -15 8 0 15 -7 15 -15 0 -8 -7 -15 -15 -15 -8 0 -15 -9 -15 -20 0
-16 7 -20 35 -20 24 0 35 -5 35 -15 0 -10 10 -15 31 -15 22 0 32 -5 36 -20 3
-11 12 -20 19 -20 8 0 14 -7 14 -15 0 -8 7 -15 15 -15 8 0 15 7 15 15 0 8 -7
15 -15 15 -12 0 -15 13 -15 55 l0 55 35 0 c28 0 35 -4 35 -20 0 -13 -7 -20
-20 -20 -11 0 -20 -7 -20 -15 0 -12 13 -15 55 -15 42 0 55 3 55 15 0 8 7 15
15 15 8 0 15 9 15 20 0 11 7 20 15 20 8 0 15 -9 15 -20 0 -11 -7 -20 -15 -20
-11 0 -15 -12 -15 -50 0 -38 4 -50 15 -50 11 0 15 12 15 50 l0 50 34 0 c25 0
35 5 39 20 4 15 14 20 36 20 29 0 31 -3 31 -35 0 -24 -5 -35 -15 -35 -8 0 -15
7 -15 15 0 8 -9 15 -20 15 -11 0 -20 -7 -20 -15 0 -8 -7 -15 -15 -15 -8 0 -15
-9 -15 -20 0 -11 7 -20 15 -20 8 0 15 -7 15 -15 0 -12 13 -15 55 -15 l55 0 0
35 c0 32 2 35 30 35 28 0 30 -3 30 -35 0 -28 4 -35 20 -35 18 0 20 7 20 70 0
63 -2 70 -20 70 -11 0 -20 7 -20 15 0 8 9 15 20 15 16 0 20 7 20 35 0 28 -4
35 -20 35 -13 0 -20 -7 -20 -20 0 -11 -7 -20 -15 -20 -8 0 -15 -7 -15 -15 0
-10 -11 -15 -35 -15 -33 0 -35 2 -35 35 0 28 4 35 20 35 11 0 20 7 20 15 0 8
7 15 15 15 10 0 15 11 15 35 0 24 5 35 15 35 8 0 15 -7 15 -15 0 -8 9 -15 20
-15 15 0 20 7 20 29 0 20 -6 30 -20 34 -11 3 -20 12 -20 21 0 9 8 16 20 16 17
0 20 7 20 49 0 40 -3 50 -20 54 -11 3 -20 10 -20 17 0 7 9 14 20 17 17 4 20
14 20 54 0 42 -3 49 -20 49 -16 0 -20 -7 -20 -35 0 -32 -2 -35 -30 -35 -20 0
-30 -5 -30 -15 0 -8 -9 -15 -20 -15 -11 0 -20 7 -20 15 0 8 -7 15 -15 15 -8 0
-15 -7 -15 -15 0 -9 -9 -15 -21 -15 -14 0 -19 -5 -17 -17 2 -14 15 -19 56 -21
37 -2 52 -7 52 -18 0 -9 10 -14 30 -14 28 0 30 -3 30 -35 0 -24 -5 -35 -15
-35 -8 0 -15 -7 -15 -15 0 -9 -7 -18 -15 -21 -8 -4 -15 -12 -15 -20 0 -8 -9
-14 -20 -14 -11 0 -20 -6 -20 -14 0 -7 9 -16 20 -19 11 -3 20 -12 20 -21 0 -9
-8 -16 -20 -16 -13 0 -20 7 -20 20 0 11 -7 20 -15 20 -8 0 -15 7 -15 15 0 8 7
15 15 15 8 0 15 7 15 15 0 8 -7 15 -14 15 -11 0 -16 15 -18 53 l-3 52 -52 3
c-38 2 -53 7 -53 18 0 7 -7 14 -15 14 -8 0 -15 9 -15 20 0 11 7 20 15 20 8 0
15 -9 15 -20 0 -13 7 -20 20 -20 13 0 20 7 20 20 0 11 7 20 15 20 8 0 15 7 15
15 0 8 9 15 20 15 11 0 20 7 20 15 0 8 7 15 15 15 8 0 15 -7 15 -15 0 -8 9
-15 20 -15 12 0 20 7 20 16 0 9 -9 18 -20 21 -11 3 -20 12 -20 19 0 20 -27 17
-32 -4 -4 -14 -14 -16 -56 -14 -50 4 -52 5 -52 33 0 26 3 29 35 29 24 0 35 -5
35 -15 0 -8 9 -15 20 -15 11 0 20 7 20 15 0 8 -9 15 -20 15 -16 0 -20 7 -20
35 0 28 4 35 20 35 16 0 20 -7 20 -35 0 -24 5 -35 15 -35 8 0 15 -7 15 -15 0
-11 12 -15 50 -15 38 0 50 4 50 15 0 8 -7 15 -15 15 -10 0 -15 11 -15 35 0 24
5 35 15 35 10 0 15 -11 15 -35 0 -28 4 -35 20 -35 17 0 20 7 20 51 0 42 -3 52
-20 56 -11 3 -20 12 -20 19 0 8 9 14 20 14 12 0 20 7 20 16 0 9 -9 18 -20 21
-11 3 -20 12 -20 19 0 8 -7 14 -15 14 -8 0 -15 7 -15 15 0 8 7 15 15 15 8 0
15 -7 15 -15 0 -8 9 -15 20 -15 11 0 20 7 20 15 0 8 -9 15 -20 15 -13 0 -20 7
-20 20 0 11 -7 20 -15 20 -8 0 -15 -9 -15 -20 0 -16 -7 -20 -35 -20 -28 0 -35
4 -35 20 0 13 7 20 20 20 11 0 20 7 20 15 0 10 -11 15 -35 15 -23 0 -35 -5
-35 -14 0 -7 -9 -16 -20 -19 -11 -3 -20 -12 -20 -21 0 -13 -11 -16 -50 -16
l-50 0 0 35 c0 24 5 35 15 35 10 0 15 11 15 35 0 24 -5 35 -15 35 -8 0 -15 -7
-15 -15 0 -8 -7 -15 -15 -15 -10 0 -15 10 -15 30 0 23 -4 30 -20 30 -17 0 -20
-7 -20 -50 0 -38 -4 -50 -15 -50 -10 0 -15 11 -15 35 0 28 -4 35 -20 35 -11 0
-20 -7 -20 -15 0 -8 -7 -15 -15 -15 -10 0 -15 10 -15 30 0 20 5 30 15 30 8 0
15 9 15 20 0 16 7 20 35 20 24 0 35 5 35 15 0 10 -11 15 -35 15 -24 0 -35 -5
-35 -15 0 -10 -10 -15 -30 -15 -29 0 -29 0 -32 68 l-3 67 -32 3 c-32 3 -33 2
-33 -32 0 -25 4 -36 15 -36 12 0 15 -13 15 -55 0 -48 2 -55 20 -55 16 0 20 -7
20 -30 0 -20 5 -30 15 -30 8 0 15 -9 15 -20 0 -11 7 -20 15 -20 8 0 15 -7 15
-15 0 -12 13 -15 55 -15 l55 0 0 -35 c0 -28 -4 -35 -20 -35 -11 0 -20 7 -20
15 0 8 -7 15 -15 15 -8 0 -15 -7 -15 -15 0 -8 7 -15 15 -15 10 0 15 -11 15
-35 0 -28 4 -35 20 -35 13 0 20 7 20 20 0 11 7 20 15 20 8 0 15 -9 15 -20 0
-11 -7 -20 -15 -20 -8 0 -15 -7 -15 -15 0 -8 -9 -15 -20 -15 -11 0 -20 7 -20
15 0 8 -6 15 -14 15 -7 0 -16 9 -19 20 -3 11 -12 20 -21 20 -9 0 -16 7 -16 15
0 10 -10 15 -30 15 -20 0 -30 5 -30 15 0 10 10 15 30 15 23 0 30 4 30 20 0 11
-7 20 -15 20 -8 0 -15 7 -15 15 0 8 -7 15 -15 15 -8 0 -15 -7 -15 -15 0 -8 -9
-15 -20 -15 -13 0 -20 -7 -20 -20 0 -11 -7 -20 -15 -20 -8 0 -15 -7 -15 -15 0
-10 11 -15 35 -15 24 0 35 -5 35 -15 0 -10 10 -15 30 -15 23 0 30 -4 30 -20 0
-11 -7 -20 -15 -20 -8 0 -15 -7 -15 -15 0 -8 -7 -15 -15 -15 -12 0 -15 -13
-15 -55 0 -42 3 -55 15 -55 8 0 15 -7 15 -15 0 -8 -7 -15 -15 -15 -8 0 -15 7
-15 15 0 12 -14 15 -70 15 -56 0 -70 -3 -70 -15 0 -8 7 -15 15 -15 8 0 15 -7
15 -15 0 -8 -7 -15 -15 -15 -8 0 -15 7 -15 15 0 8 -9 15 -20 15 -12 0 -20 -7
-20 -16 0 -9 9 -18 20 -21 11 -3 20 -12 20 -19 0 -8 -9 -14 -20 -14 -11 0 -20
-7 -20 -15 0 -8 9 -15 20 -15 16 0 20 -7 20 -35 0 -24 5 -35 15 -35 8 0 15 7
15 15 0 10 11 15 35 15 l35 0 0 50 c0 43 3 50 20 50 17 0 20 -7 20 -50 0 -49
1 -50 30 -50 23 0 30 4 30 20 0 11 -7 20 -15 20 -10 0 -15 10 -15 30 0 20 5
30 15 30 10 0 15 -10 15 -30 0 -28 3 -30 34 -30 l35 0 3 -52 c3 -52 4 -53 36
-56 20 -2 32 -9 32 -18 0 -10 13 -14 50 -14 l50 0 0 -50 0 -50 -50 0 -50 0 0
-55 c0 -42 -3 -55 -15 -55 -8 0 -15 9 -15 20 0 18 -7 20 -55 20 -42 0 -55 3
-55 15 0 12 13 15 56 15 47 0 55 3 52 18 -2 11 -14 18 -36 20 -20 2 -32 9 -32
18 0 8 -9 14 -20 14 -11 0 -20 -7 -20 -15 0 -10 -10 -15 -30 -15 -28 0 -30 -3
-30 -35 0 -24 5 -35 15 -35 10 0 15 -11 15 -35 0 -24 -5 -35 -15 -35 -10 0
-15 -11 -15 -35 0 -28 -4 -35 -20 -35 -13 0 -20 7 -20 20 0 11 -7 20 -15 20
-8 0 -15 7 -15 15 0 8 7 15 15 15 8 0 15 6 15 14 0 7 9 16 20 19 11 3 20 12
20 21 0 9 -8 16 -20 16 -13 0 -20 -7 -20 -20 0 -11 -7 -20 -15 -20 -10 0 -15
11 -15 35 0 24 5 35 15 35 8 0 15 9 15 20 0 11 -7 20 -15 20 -30 0 -15 29 17
32 46 4 49 28 4 28 -34 0 -36 2 -36 35 0 33 -2 35 -35 35 -24 0 -35 -5 -35
-15 0 -8 6 -15 14 -15 7 0 16 -9 19 -20 3 -11 12 -20 21 -20 9 0 16 -7 16 -15
0 -10 -11 -15 -35 -15 -24 0 -35 -5 -35 -15 0 -8 -9 -15 -20 -15 -18 0 -20 7
-20 85 0 69 -3 85 -15 85 -12 0 -15 18 -15 100 l0 100 35 0 c28 0 35 4 35 20
0 11 7 20 15 20 10 0 15 11 15 35 0 33 2 35 35 35 33 0 35 2 35 35 0 24 -5 35
-15 35 -8 0 -15 7 -15 15 0 8 -9 15 -20 15 -11 0 -20 -7 -20 -15 0 -8 -7 -15
-15 -15 -8 0 -15 -9 -15 -20 0 -11 7 -20 15 -20 8 0 15 -7 15 -15 0 -8 -7 -15
-15 -15 -10 0 -15 -11 -15 -35 l0 -35 -50 0 c-39 0 -50 -3 -50 -16 0 -9 -9
-18 -20 -21 -17 -4 -20 -14 -20 -54 0 -37 -4 -49 -15 -49 -8 0 -15 -7 -15 -15
0 -8 -9 -15 -20 -15 -16 0 -20 7 -20 35 0 24 -5 35 -15 35 -10 0 -15 -11 -15
-35 0 -24 -5 -35 -15 -35 -10 0 -15 10 -15 31 0 22 -5 32 -20 36 -35 9 -24 33
15 33 24 0 35 5 35 15 0 11 -12 15 -49 15 -40 0 -50 3 -54 20 -4 15 -14 20
-36 20 -21 0 -31 5 -31 15 0 8 7 15 15 15 8 0 15 9 15 20 0 11 -7 20 -15 20
-8 0 -15 -9 -15 -20 0 -16 -7 -20 -35 -20 -33 0 -35 2 -35 35 0 24 -5 35 -15
35 -10 0 -15 11 -15 35 0 32 2 35 30 35 20 0 30 5 30 15 0 8 9 15 20 15 13 0
20 7 20 20 0 11 7 20 15 20 8 0 15 -9 15 -20 0 -11 -7 -20 -15 -20 -8 0 -15
-7 -15 -15 0 -8 7 -15 15 -15 8 0 15 -7 15 -14 0 -11 -14 -16 -47 -18 -36 -2
-49 -7 -51 -20 -2 -11 3 -18 12 -18 9 0 16 -7 16 -15 0 -8 9 -15 20 -15 11 0
20 7 20 15 0 8 7 15 15 15 8 0 15 -6 15 -14 0 -7 9 -16 20 -19 11 -3 20 -12
20 -21 0 -9 7 -16 15 -16 8 0 15 -7 15 -15 0 -11 11 -15 36 -15 34 0 35 1 32
32 -3 37 -23 48 -31 18 -3 -11 -12 -20 -21 -20 -12 0 -16 10 -16 35 0 24 -5
35 -15 35 -8 0 -15 9 -15 20 0 11 7 20 15 20 8 0 15 7 15 15 0 8 7 15 15 15 9
0 18 -7 21 -15 4 -9 19 -15 35 -15 19 0 29 5 29 15 0 10 11 15 35 15 24 0 35
5 35 15 0 8 9 15 20 15 15 0 20 -7 20 -29 0 -20 -6 -30 -20 -34 -17 -4 -20
-14 -20 -71 0 -59 2 -66 20 -66 11 0 20 7 20 15 0 8 7 15 15 15 8 0 15 7 15
15 0 9 7 18 15 21 11 4 15 21 15 55 0 37 -4 49 -15 49 -8 0 -15 7 -15 15 0 8
7 15 15 15 8 0 15 9 15 20 0 13 7 20 20 20 13 0 20 -7 20 -20 0 -16 7 -20 36
-20 28 0 35 3 32 18 -2 11 -14 18 -36 20 -46 5 -43 32 3 32 28 0 35 4 35 20 0
11 7 20 15 20 8 0 15 7 15 15 0 8 -7 15 -15 15 -8 0 -15 -7 -15 -15 0 -8 -9
-15 -20 -15 -11 0 -20 7 -20 15 0 8 -7 15 -15 15 -10 0 -15 -11 -15 -35 0 -33
-2 -35 -35 -35 -28 0 -35 4 -35 20 0 11 7 20 15 20 10 0 15 10 15 30 0 20 -5
30 -15 30 -10 0 -15 -10 -15 -30 0 -20 -5 -30 -15 -30 -12 0 -15 18 -15 100 0
93 -1 100 -20 100 -13 0 -20 7 -20 20 0 11 -7 20 -15 20 -8 0 -15 -9 -15 -20
0 -13 -7 -20 -20 -20 -13 0 -20 7 -20 20 0 17 -7 20 -50 20 -43 0 -50 -3 -50
-20z m170 -70 c0 -11 -7 -20 -15 -20 -8 0 -15 -7 -15 -15 0 -8 7 -15 15 -15
11 0 15 -12 15 -50 0 -43 3 -50 20 -50 13 0 20 -7 20 -20 0 -16 -7 -20 -35
-20 -33 0 -35 2 -35 35 0 28 -4 35 -20 35 -17 0 -20 -7 -20 -50 l0 -50 35 0
c28 0 35 -4 35 -20 0 -17 -7 -20 -50 -20 l-50 0 0 35 c0 24 -5 35 -15 35 -8 0
-15 9 -15 20 0 13 -7 20 -20 20 -11 0 -20 7 -20 15 0 8 9 15 20 15 11 0 20 -7
20 -15 0 -8 7 -15 15 -15 11 0 15 12 15 50 0 38 4 50 15 50 10 0 15 10 15 28
0 36 6 42 42 42 21 0 28 -5 28 -20z m-132 -52 c-2 -22 -9 -34 -20 -36 -15 -3
-18 4 -18 32 0 30 4 36 21 36 17 0 20 -5 17 -32z m782 -223 c0 -10 11 -15 35
-15 33 0 35 -2 35 -35 0 -39 -24 -49 -33 -14 -8 30 -31 18 -35 -18 -2 -24 1
-32 17 -36 30 -7 30 -67 1 -67 -16 0 -20 7 -20 35 0 24 -5 35 -15 35 -10 0
-15 10 -15 31 0 22 -5 32 -20 36 -11 3 -20 10 -20 15 0 5 9 12 20 15 11 3 20
12 20 19 0 8 7 14 15 14 8 0 15 -7 15 -15z m-100 -50 c0 -24 5 -35 15 -35 8 0
15 -7 15 -15 0 -10 -11 -15 -35 -15 -28 0 -35 -4 -35 -20 0 -11 -7 -20 -15
-20 -8 0 -15 7 -15 15 0 9 7 18 15 21 10 4 15 20 15 48 0 45 5 56 27 56 8 0
13 -12 13 -35z m-173 -85 c4 -15 14 -20 39 -20 24 0 34 -5 34 -15 0 -8 -9 -15
-20 -15 -13 0 -20 -7 -20 -20 0 -13 7 -20 20 -20 11 0 20 -7 20 -15 0 -8 -9
-15 -20 -15 -11 0 -20 7 -20 15 0 8 -7 15 -15 15 -10 0 -15 -10 -15 -29 0 -16
-6 -31 -14 -34 -19 -8 -26 1 -26 35 0 21 5 28 20 28 13 0 20 7 20 20 0 16 -7
20 -35 20 -33 0 -35 2 -35 35 0 32 2 35 31 35 22 0 32 -5 36 -20z m-137 -135
c0 -8 -7 -15 -15 -15 -10 0 -15 -11 -15 -35 0 -33 -2 -35 -35 -35 -24 0 -35 5
-35 15 0 8 7 15 15 15 8 0 15 6 15 14 0 7 9 16 20 19 11 3 20 12 20 21 0 9 7
16 15 16 8 0 15 -7 15 -15z m270 -41 c0 -11 -15 -14 -65 -14 -50 0 -65 3 -65
15 0 10 15 15 58 17 66 3 72 2 72 -18z m110 -374 l0 -50 -55 0 -55 0 0 50 0
50 55 0 55 0 0 -50z m-210 -35 c0 -10 -11 -15 -35 -15 -24 0 -35 5 -35 15 0
10 11 15 35 15 24 0 35 -5 35 -15z m310 -65 c0 -11 -7 -20 -15 -20 -8 0 -15 9
-15 20 0 11 7 20 15 20 8 0 15 -9 15 -20z"/>
<path d="M13472 3593 c5 -26 38 -29 38 -4 0 15 -6 21 -21 21 -14 0 -19 -5 -17
-17z"/>
<path d="M14090 2700 c0 -11 7 -20 15 -20 8 0 15 9 15 20 0 11 -7 20 -15 20
-8 0 -15 -9 -15 -20z"/>
<path d="M13610 3730 c0 -16 7 -20 35 -20 28 0 35 4 35 20 0 16 -7 20 -35 20
-28 0 -35 -4 -35 -20z"/>
<path d="M13950 3716 c0 -29 4 -36 20 -36 16 0 20 -7 20 -35 0 -24 5 -35 15
-35 8 0 15 -9 15 -20 0 -11 7 -20 15 -20 10 0 15 11 15 35 0 24 -5 35 -15 35
-8 0 -15 9 -15 20 0 11 7 20 15 20 8 0 15 7 15 15 0 8 -7 15 -15 15 -8 0 -15
-7 -15 -15 0 -31 -29 -15 -32 17 -2 22 -9 34 -20 36 -15 3 -18 -4 -18 -32z"/>
<path d="M14090 3630 l0 -120 120 0 120 0 0 120 0 120 -120 0 -120 0 0 -120z
m200 -5 l0 -85 -85 0 -85 0 0 85 0 85 85 0 85 0 0 -85z"/>
<path d="M14160 3625 l0 -55 50 0 50 0 0 55 0 55 -50 0 -50 0 0 -55z"/>
<path d="M13640 3625 c0 -8 9 -15 20 -15 14 0 20 -7 20 -21 0 -17 5 -20 32
-17 22 2 34 9 36 21 3 14 -4 17 -32 17 -25 0 -36 4 -36 15 0 8 -9 15 -20 15
-11 0 -20 -7 -20 -15z"/>
<path d="M13370 3320 c0 -13 7 -20 20 -20 13 0 20 7 20 20 0 13 -7 20 -20 20
-13 0 -20 -7 -20 -20z"/>
<path d="M13470 3285 c0 -8 9 -15 20 -15 11 0 20 7 20 15 0 8 -9 15 -20 15
-11 0 -20 -7 -20 -15z"/>
<path d="M13472 3198 c3 -29 7 -33 36 -36 27 -3 32 0 32 17 0 12 -7 21 -15 21
-8 0 -15 7 -15 15 0 8 -9 15 -21 15 -17 0 -20 -5 -17 -32z"/>
<path d="M13062 3128 l3 -33 65 -1 65 -1 3 -32 c2 -23 -1 -31 -12 -31 -9 0
-16 7 -16 15 0 12 -13 15 -55 15 l-55 0 0 -35 c0 -28 4 -35 20 -35 11 0 20 -7
20 -15 0 -9 -9 -15 -21 -15 -36 0 -19 -34 19 -38 l32 -3 0 55 c0 49 2 56 20
56 18 0 20 -7 20 -55 0 -42 3 -55 15 -55 10 0 15 -11 15 -35 0 -33 -2 -35 -35
-35 -24 0 -35 -5 -35 -15 0 -10 11 -15 35 -15 33 0 35 -2 35 -35 0 -39 24 -50
33 -15 3 11 12 20 21 20 9 0 16 6 16 14 0 9 12 16 33 18 28 3 32 7 35 36 3 27
0 32 -17 32 -12 0 -21 7 -21 15 0 8 -7 15 -15 15 -8 0 -15 9 -15 20 0 16 7 20
35 20 29 0 35 -4 35 -21 0 -17 5 -20 33 -17 20 2 32 8 32 18 0 10 -12 16 -32
18 -21 2 -33 9 -33 18 0 9 -11 14 -35 14 -28 0 -35 4 -35 20 0 11 7 20 15 20
8 0 15 7 15 15 0 8 -7 15 -15 15 -8 0 -15 -7 -15 -15 0 -8 -9 -15 -20 -15 -16
0 -20 7 -20 35 0 24 -5 35 -15 35 -8 0 -15 7 -15 15 0 8 -7 15 -15 15 -8 0
-15 7 -15 15 0 8 -9 15 -20 15 -11 0 -20 -7 -20 -15 0 -8 -7 -15 -15 -15 -8 0
-15 7 -15 15 0 8 -9 15 -21 15 -17 0 -20 -5 -17 -32z m168 -118 c0 -13 7 -20
20 -20 11 0 20 -7 20 -15 0 -8 -9 -15 -20 -15 -13 0 -20 -7 -20 -20 0 -13 7
-20 20 -20 11 0 20 -7 20 -15 0 -8 7 -15 15 -15 8 0 15 -9 15 -20 0 -11 -7
-20 -15 -20 -8 0 -15 9 -15 20 0 13 -7 20 -20 20 -11 0 -20 7 -20 15 0 8 -7
15 -15 15 -12 0 -15 13 -15 55 0 42 3 55 15 55 8 0 15 -9 15 -20z"/>
<path d="M13270 3112 c0 -10 7 -19 15 -19 8 0 15 9 15 19 0 10 -7 18 -15 18
-8 0 -15 -8 -15 -18z"/>
<path d="M13470 3116 c0 -15 24 -28 34 -19 13 14 5 33 -14 33 -11 0 -20 -6
-20 -14z"/>
<path d="M10655 2948 c-35 -41 -84 -145 -127 -271 -33 -97 -33 -97 -66 -97
-34 0 -102 -26 -102 -39 0 -12 -479 -55 -504 -45 -34 13 -27 38 31 96 31 31
55 60 52 62 -2 3 -35 -4 -72 -14 l-67 -19 -15 22 c-23 32 -19 42 30 78 48 37
51 48 14 66 -56 26 -483 45 -534 23 -12 -5 50 -9 160 -9 182 -1 352 -15 369
-32 6 -5 -9 -24 -35 -48 l-44 -40 18 -32 c10 -17 16 -33 15 -34 -2 -1 -39 -14
-83 -29 -106 -37 -230 -95 -331 -156 -46 -28 -85 -50 -88 -50 -11 0 -66 -63
-66 -75 0 -19 55 -26 106 -15 62 14 190 74 317 149 120 71 167 111 167 146 0
16 7 24 28 29 15 3 37 8 49 12 18 5 14 -2 -18 -35 -41 -44 -50 -80 -24 -101
17 -14 191 -8 391 13 l111 13 -1 -37 c-1 -47 26 -79 68 -79 l31 -1 -35 -19
c-62 -34 -139 -69 -165 -76 -24 -6 -35 -24 -15 -24 6 0 56 21 111 46 119 55
236 129 300 191 l47 45 53 -11 c134 -26 468 -52 369 -28 -14 3 -107 14 -208
25 -100 10 -187 23 -192 28 -6 6 -2 33 10 73 31 97 20 316 -16 328 -6 2 -24
-11 -39 -29z m55 -94 c14 -127 -11 -238 -67 -296 -26 -27 -26 -27 -50 -8 -13
10 -37 21 -53 25 l-29 6 35 97 c44 122 78 197 111 245 33 48 41 38 53 -69z
m-920 -266 c0 -23 -79 -84 -187 -146 -61 -35 -120 -64 -131 -65 -11 0 -19 -4
-16 -8 7 -12 -120 -61 -175 -66 -63 -7 -66 8 -10 44 19 13 45 32 59 43 37 30
294 156 375 184 83 29 85 29 85 14z m700 -24 c0 -3 -7 -31 -16 -61 -19 -66
-46 -97 -77 -88 -69 21 -58 108 17 141 32 14 76 19 76 8z m80 -19 c17 -9 30
-21 30 -28 -1 -12 -55 -55 -125 -97 l-40 -25 22 28 c12 16 27 53 34 83 14 60
26 66 79 39z"/>
<path d="M13473 2940 c-3 -11 -12 -20 -19 -20 -8 0 -14 -7 -14 -15 0 -10 11
-15 35 -15 33 0 35 2 35 35 0 25 -4 35 -16 35 -9 0 -18 -9 -21 -20z"/>
<path d="M13820 2940 c0 -16 7 -20 30 -20 20 0 30 -5 30 -15 0 -8 -7 -15 -15
-15 -8 0 -15 -9 -15 -20 0 -11 7 -20 15 -20 8 0 15 9 15 20 0 13 7 20 20 20
13 0 20 -7 20 -20 0 -11 7 -20 15 -20 8 0 15 -7 15 -15 0 -12 14 -15 70 -15
56 0 70 3 70 15 0 10 -10 15 -31 15 -22 0 -32 5 -36 20 -3 11 -11 20 -18 20
-7 0 -15 -9 -18 -20 -3 -11 -12 -20 -21 -20 -9 0 -16 8 -16 20 0 11 -7 20 -15
20 -10 0 -15 11 -15 35 l0 35 -50 0 c-43 0 -50 -3 -50 -20z"/>
<path d="M14192 2943 c2 -10 10 -18 18 -18 8 0 16 8 18 18 2 12 -3 17 -18 17
-15 0 -20 -5 -18 -17z"/>
<path d="M13060 2820 c0 -63 2 -70 20 -70 18 0 20 7 20 70 0 63 -2 70 -20 70
-18 0 -20 -7 -20 -70z"/>
<path d="M13370 2855 c0 -28 4 -35 20 -35 11 0 20 -7 20 -15 0 -10 -11 -15
-35 -15 l-35 0 0 -70 c0 -56 3 -70 15 -70 8 0 15 -6 15 -14 0 -7 9 -16 20 -19
15 -4 20 -14 20 -36 0 -21 5 -31 15 -31 8 0 15 -9 15 -20 0 -11 6 -20 14 -20
7 0 16 9 19 20 3 11 12 20 21 20 9 0 16 7 16 15 0 10 -11 15 -35 15 l-35 0 0
50 c0 38 4 50 15 50 8 0 15 9 15 20 0 11 -7 20 -15 20 -8 0 -15 7 -15 15 0 8
7 15 15 15 10 0 15 11 15 35 0 28 4 35 20 35 11 0 20 7 20 15 0 11 -12 15 -50
15 -43 0 -50 3 -50 20 0 13 -7 20 -20 20 -16 0 -20 -7 -20 -35z m38 -137 c-2
-22 -9 -34 -20 -36 -15 -3 -18 4 -18 32 0 30 4 36 21 36 17 0 20 -5 17 -32z"/>
<path d="M14190 2870 c0 -13 7 -20 20 -20 13 0 20 7 20 20 0 13 -7 20 -20 20
-13 0 -20 -7 -20 -20z"/>
<path d="M13270 2770 c0 -11 7 -20 15 -20 8 0 15 9 15 20 0 11 -7 20 -15 20
-8 0 -15 -9 -15 -20z"/>
<path d="M13470 2735 c0 -10 11 -15 35 -15 24 0 35 5 35 15 0 10 -11 15 -35
15 -24 0 -35 -5 -35 -15z"/>
<path d="M5797 2604 c-63 -117 -74 -146 -48 -130 8 5 122 208 139 248 2 5 -2
8 -10 8 -7 0 -44 -57 -81 -126z"/>
<path d="M6297 2606 c-70 -129 -73 -136 -58 -136 5 0 28 35 52 78 23 42 55
101 71 130 22 38 26 52 16 52 -9 0 -44 -54 -81 -124z"/>
<path d="M5602 2704 c-23 -16 -30 -44 -12 -44 6 0 13 7 16 15 4 8 18 15 34 15
30 0 43 -19 33 -47 -3 -10 -28 -46 -55 -80 -26 -35 -48 -65 -48 -68 0 -3 32
-5 70 -5 40 0 70 4 70 10 0 6 -20 10 -45 10 -25 0 -45 2 -45 5 0 3 18 30 40
59 44 59 52 102 22 129 -23 21 -51 22 -80 1z"/>
<path d="M5932 2704 c-12 -8 -22 -22 -22 -30 0 -19 26 -18 34 2 9 24 60 14 64
-12 2 -17 -38 -83 -101 -161 -7 -10 6 -13 62 -13 41 0 71 4 71 10 0 6 -20 10
-45 10 -52 0 -52 -3 11 84 27 38 34 56 29 75 -12 49 -60 65 -103 35z"/>
<path d="M6090 2700 c-11 -11 -20 -24 -20 -30 0 -16 27 -11 34 6 4 10 15 14
33 12 47 -5 42 -43 -16 -118 -28 -36 -51 -68 -51 -72 0 -5 32 -8 70 -8 79 0
96 17 21 22 l-49 3 44 58 c50 67 57 107 22 131 -31 22 -64 20 -88 -4z"/>
<path d="M6420 2693 c-15 -19 -18 -29 -9 -32 7 -2 18 4 24 13 15 20 61 21 69
1 8 -22 -2 -43 -56 -111 -26 -34 -48 -64 -48 -68 0 -3 32 -6 70 -6 40 0 70 4
70 10 0 6 -20 10 -45 10 -25 0 -45 2 -45 5 0 3 18 30 40 59 43 57 52 103 24
130 -25 25 -69 20 -94 -11z"/>
<path d="M6607 2708 c-36 -28 -49 -128 -24 -178 31 -61 106 -58 132 5 27 62
13 155 -25 175 -26 14 -63 12 -83 -2z m83 -37 c15 -30 12 -113 -6 -139 -35
-51 -84 -10 -84 71 0 64 13 87 50 87 19 0 33 -7 40 -19z"/>
<path d="M6780 2693 c-14 -17 -17 -29 -10 -31 6 -2 17 4 24 13 7 10 22 16 37
13 43 -6 36 -45 -21 -120 -27 -37 -50 -70 -50 -73 0 -3 32 -5 70 -5 40 0 70 4
70 10 0 6 -20 10 -45 10 -25 0 -45 3 -45 8 0 4 13 23 28 42 56 68 67 114 34
143 -28 26 -67 21 -92 -10z"/>
<path d="M6952 2704 c-22 -15 -30 -44 -13 -44 5 0 14 7 21 15 25 30 70 14 70
-25 0 -5 -22 -37 -48 -72 -72 -94 -73 -88 7 -88 41 0 71 4 71 10 0 6 -20 10
-45 10 -25 0 -45 2 -45 5 0 3 18 28 40 56 29 36 40 60 40 84 0 59 -49 83 -98
49z"/>
<path d="M13060 2600 l0 -120 120 0 120 0 0 120 0 120 -120 0 -120 0 0 -120z
m208 -2 l-3 -83 -82 -3 -83 -3 0 86 0 85 85 0 86 0 -3 -82z"/>
<path d="M13130 2600 l0 -50 50 0 50 0 0 50 0 50 -50 0 -50 0 0 -50z"/>
<path d="M13470 2650 c0 -23 4 -30 20 -30 11 0 20 7 20 15 0 8 7 15 15 15 10
0 15 -11 15 -35 0 -28 4 -35 20 -35 11 0 20 -7 20 -15 0 -10 10 -15 30 -15 20
0 30 5 30 15 0 8 -7 15 -15 15 -10 0 -15 11 -15 35 0 33 -2 35 -35 35 -24 0
-35 5 -35 15 0 10 -11 15 -35 15 -32 0 -35 -2 -35 -30z"/>
<path d="M13640 2635 c0 -8 9 -15 20 -15 11 0 20 7 20 15 0 8 -9 15 -20 15
-11 0 -20 -7 -20 -15z"/>
<path d="M13340 2515 c0 -33 2 -35 35 -35 33 0 35 2 35 35 0 33 -2 35 -35 35
-33 0 -35 -2 -35 -35z"/>
<path d="M13540 2530 c0 -11 -7 -20 -15 -20 -8 0 -15 -7 -15 -15 0 -10 11 -15
35 -15 33 0 35 2 35 35 0 28 -4 35 -20 35 -13 0 -20 -7 -20 -20z"/>
<path d="M13680 2515 c0 -33 2 -35 35 -35 33 0 35 2 35 35 0 33 -2 35 -35 35
-33 0 -35 -2 -35 -35z"/>
<path d="M13150 2200 c0 -11 11 -27 24 -36 15 -9 22 -21 19 -30 -6 -16 -33
-19 -33 -4 0 6 -4 10 -10 10 -5 0 -7 -7 -3 -16 3 -9 15 -14 32 -12 36 4 40 40
7 62 -31 20 -34 40 -6 33 11 -3 20 -1 20 4 0 5 -11 9 -25 9 -18 0 -25 -5 -25
-20z"/>
<path d="M13528 2203 c-2 -10 -1 -34 2 -53 4 -25 11 -35 25 -37 11 -2 14 0 8
3 -7 3 -13 18 -13 34 0 16 6 31 13 33 10 4 10 6 0 6 -7 1 -13 8 -13 16 0 21
-17 19 -22 -2z"/>
<path d="M13990 2205 c0 -8 -6 -15 -12 -15 -10 0 -10 -2 -1 -8 6 -4 13 -23 16
-42 l4 -35 1 38 c1 22 7 37 15 37 8 0 7 4 -3 10 -13 9 -13 11 0 20 13 8 12 10
-2 10 -10 0 -18 -7 -18 -15z"/>
<path d="M13234 2176 c-11 -30 1 -61 25 -64 13 -2 28 1 34 7 7 7 1 10 -19 8
-25 -2 -29 2 -29 23 0 19 5 25 23 24 12 0 22 3 22 8 0 14 -50 9 -56 -6z"/>
<path d="M13320 2181 c0 -5 9 -7 20 -4 11 3 20 1 20 -5 0 -6 -10 -12 -22 -14
-15 -2 -23 -10 -23 -23 0 -15 8 -21 33 -23 29 -3 32 -1 32 25 0 16 -5 34 -12
41 -14 14 -48 16 -48 3z m38 -43 c-6 -18 -28 -21 -28 -4 0 9 7 16 16 16 9 0
14 -5 12 -12z"/>
<path d="M13401 2145 l2 -40 6 35 c9 51 38 53 44 3 l4 -38 1 43 c2 41 1 42
-28 40 -28 -2 -30 -5 -29 -43z"/>
<path d="M13590 2175 c-26 -32 13 -81 48 -59 34 22 22 74 -18 74 -10 0 -23 -7
-30 -15z m45 -25 c0 -15 -6 -26 -16 -28 -19 -3 -31 21 -22 43 9 25 38 13 38
-15z"/>
<path d="M13710 2186 c0 -18 33 -77 39 -70 13 15 31 74 22 74 -4 0 -13 -15
-18 -32 l-11 -33 -7 33 c-4 17 -11 32 -16 32 -5 0 -9 -2 -9 -4z"/>
<path d="M13794 2176 c-11 -30 0 -61 25 -64 13 -2 28 1 34 7 7 7 2 10 -18 8
-15 -1 -30 4 -32 11 -3 8 6 12 27 12 25 0 31 4 28 18 -4 22 -56 29 -64 8z m51
-6 c4 -6 -5 -10 -20 -10 -15 0 -24 4 -20 10 3 6 12 10 20 10 8 0 17 -4 20 -10z"/>
<path d="M13880 2150 c0 -22 5 -40 10 -40 6 0 10 13 10 30 0 17 7 33 18 39 14
9 13 10 -10 11 -26 0 -28 -3 -28 -40z"/>
<path d="M13953 2150 c0 -25 2 -35 4 -22 2 12 2 32 0 45 -2 12 -4 2 -4 -23z"/>
<path d="M14030 2186 c0 -3 5 -17 11 -33 7 -15 11 -39 10 -53 -1 -14 2 -20 8
-15 13 16 41 105 31 105 -4 0 -11 -12 -15 -27 l-7 -28 -14 28 c-13 24 -24 35
-24 23z"/>
</g>
</svg>
