<?xml version="1.0" standalone="no"?>
<!DOCTYPE svg PUBLIC "-//W3C//DTD SVG 20010904//EN"
 "http://www.w3.org/TR/2001/REC-SVG-20010904/DTD/svg10.dtd">
<svg version="1.0" xmlns="http://www.w3.org/2000/svg"
 width="3464.000000pt" height="3464.000000pt" viewBox="0 0 3464.000000 3464.000000"
 preserveAspectRatio="xMidYMid meet">

<g transform="translate(0.000000,3464.000000) scale(0.100000,-0.100000)"
fill="#000000" stroke="none">
<path d="M16953 32608 c-13 -13 -23 -30 -23 -36 0 -21 54 -38 120 -37 l65 1
-2 29 c-3 41 -23 55 -84 62 -48 4 -56 2 -76 -19z"/>
<path d="M16930 32455 c-10 -12 -8 -21 14 -50 42 -54 72 -69 161 -79 138 -15
206 -12 249 10 l38 20 42 -20 c56 -27 60 -36 26 -71 -38 -39 -28 -61 23 -51
45 8 63 29 50 58 -7 16 -5 33 6 61 15 38 14 40 -8 58 -19 15 -40 19 -106 19
-45 0 -104 7 -131 15 -33 11 -68 13 -109 9 -47 -4 -75 -1 -125 15 -75 25 -113
27 -130 6z"/>
<path d="M15776 32403 c-7 -7 23 -43 35 -43 4 0 5 9 2 19 -5 20 -27 34 -37 24z"/>
<path d="M15580 32320 c0 -5 12 -10 28 -10 21 0 24 2 12 10 -20 13 -40 13 -40
0z"/>
<path d="M14063 32272 c-35 -2 -53 -7 -53 -16 0 -40 112 -75 139 -43 17 21 10
48 -14 56 -11 3 -44 5 -72 3z"/>
<path d="M18760 32272 c0 -16 32 -52 46 -52 20 0 17 13 -9 38 -24 23 -37 28
-37 14z"/>
<path d="M16413 32210 c-45 -20 -50 -43 -12 -55 10 -4 32 -26 49 -50 47 -68
133 -100 219 -81 12 3 29 10 36 16 10 8 32 9 75 2 97 -14 84 3 -45 59 -11 5
-71 36 -133 69 -62 33 -121 60 -130 59 -9 0 -36 -9 -59 -19z"/>
<path d="M18032 32065 c-48 -21 -38 -44 30 -79 l58 -28 40 21 c52 27 58 27
148 -6 80 -30 162 -92 162 -123 0 -29 -25 -43 -62 -34 -18 4 -60 6 -93 5 -38
-1 -75 4 -99 14 -25 11 -51 14 -73 10 -25 -4 -43 -1 -68 15 -27 17 -43 20 -83
14 -43 -5 -52 -3 -71 17 -11 12 -21 26 -21 31 0 4 -18 17 -40 28 -43 22 -122
27 -178 11 -25 -8 -52 -5 -110 10 -91 24 -202 23 -228 -3 -14 -14 -13 -17 15
-37 33 -24 41 -51 16 -51 -20 0 -68 -47 -60 -59 14 -23 -19 -21 -44 3 -15 14
-32 26 -39 26 -7 0 -12 4 -12 10 0 5 -11 13 -26 16 -29 7 -74 -27 -74 -56 0
-10 22 -38 50 -64 57 -53 96 -60 154 -25 l35 20 112 -31 c124 -34 147 -51 123
-87 -13 -22 -12 -23 22 -38 20 -8 57 -15 83 -15 52 0 62 -5 76 -37 6 -12 32
-37 59 -55 59 -40 71 -57 63 -90 -8 -32 -17 -35 -132 -49 -82 -11 -95 -10
-116 5 -29 20 -114 21 -149 1 -14 -8 -39 -14 -57 -15 -23 0 -33 -6 -38 -21 -6
-19 -12 -21 -54 -14 -25 4 -82 10 -126 13 -44 4 -95 15 -114 25 -19 9 -40 17
-48 17 -20 0 -15 -35 8 -56 12 -10 41 -45 66 -77 24 -31 71 -75 103 -97 32
-22 69 -53 81 -70 13 -18 43 -53 66 -79 49 -55 58 -76 68 -157 6 -56 4 -67
-24 -122 -17 -33 -44 -70 -61 -82 l-30 -21 -63 30 c-92 44 -106 63 -112 152
-3 41 -5 106 -5 145 1 66 -1 75 -29 106 -36 41 -111 84 -133 76 -8 -4 -18 -20
-21 -36 -4 -20 -18 -37 -40 -51 -33 -20 -54 -61 -42 -81 4 -6 27 -10 53 -10
58 0 99 -24 81 -47 -10 -12 -27 -13 -81 -8 l-68 7 -11 -31 c-13 -38 -39 -40
-104 -10 -34 16 -54 19 -86 14 -34 -6 -66 1 -187 41 -138 45 -146 47 -156 29
-6 -10 -19 -26 -28 -36 -11 -12 -17 -32 -15 -56 l2 -38 -63 -3 c-54 -3 -64 -6
-73 -25 -6 -13 -20 -27 -32 -32 -28 -12 -33 -45 -13 -83 18 -35 9 -48 -41 -58
-22 -4 -51 4 -117 35 -49 23 -94 41 -101 41 -7 0 -37 16 -66 36 -30 21 -92 54
-139 74 -47 20 -101 44 -120 53 -19 9 -62 19 -94 22 -54 6 -64 11 -100 51 -44
47 -100 74 -118 56 -16 -16 -1 -45 34 -69 52 -36 126 -109 143 -143 20 -39 13
-61 -31 -99 -28 -25 -44 -31 -82 -31 -69 0 -107 -27 -116 -80 -9 -58 3 -70 75
-70 77 0 119 -21 155 -78 16 -26 30 -50 32 -53 2 -4 -4 -14 -13 -23 -20 -20
-67 -21 -103 -2 -15 8 -63 19 -106 25 -43 6 -91 19 -107 28 -36 22 -49 61 -25
78 9 7 16 18 16 24 0 17 -48 101 -76 131 -27 31 -56 99 -49 117 3 10 24 13 77
11 74 -2 174 14 192 32 12 12 -15 43 -98 112 l-59 49 -11 -23 c-9 -18 -20 -23
-50 -23 -24 0 -42 -6 -50 -17 -7 -9 -29 -18 -51 -20 -51 -4 -63 -24 -47 -83
15 -57 3 -85 -35 -85 -37 0 -108 36 -119 60 -13 28 -144 130 -166 130 -11 0
-30 -11 -44 -25 l-26 -26 -61 21 c-33 12 -71 30 -84 40 -33 26 -118 53 -143
45 -21 -7 -27 -30 -10 -40 27 -16 130 -148 130 -165 0 -28 -54 -48 -126 -47
-33 0 -69 -3 -82 -7 l-22 -8 30 -38 c16 -21 53 -52 80 -70 28 -18 50 -37 50
-42 0 -17 -77 -2 -106 21 -15 12 -39 21 -55 21 -15 0 -29 5 -31 11 -2 6 -17
11 -33 11 -44 0 -80 23 -149 92 -33 34 -76 67 -94 74 -31 10 -35 9 -71 -23
-47 -42 -61 -43 -103 -6 -28 24 -40 28 -78 25 -45 -3 -60 6 -60 38 0 11 10 18
27 20 17 2 33 13 41 28 13 25 11 88 -3 123 -5 12 -2 17 9 17 9 0 16 -4 16 -9
0 -5 17 -16 38 -24 20 -9 52 -27 71 -41 19 -14 41 -26 48 -26 7 0 30 -15 50
-34 24 -21 55 -37 86 -44 52 -11 63 -5 43 24 -17 22 -10 44 14 44 25 0 41 -23
47 -69 4 -32 12 -44 39 -60 34 -20 49 -22 74 -6 8 5 32 12 52 15 l37 5 -33 64
c-17 35 -39 65 -47 66 -7 1 -38 5 -68 9 -64 8 -90 21 -159 75 -31 25 -62 62
-81 98 -25 46 -44 66 -91 96 -33 21 -60 42 -60 46 0 5 25 12 55 16 62 7 120
-8 217 -56 32 -16 67 -29 78 -29 28 0 25 28 -7 62 l-27 28 35 0 c32 0 74 -10
184 -44 l50 -15 -40 35 c-61 54 -155 114 -179 114 -29 0 -244 37 -286 49 -19
6 -60 31 -90 56 -30 25 -63 48 -72 51 -10 3 -18 10 -18 15 0 5 -5 9 -11 9 -5
0 -8 -4 -5 -9 3 -5 -3 -19 -13 -32 -16 -21 -22 -22 -45 -11 -14 6 -26 16 -26
21 0 14 -105 91 -123 91 -8 0 -28 -7 -43 -15 -47 -25 -76 -19 -104 21 -14 20
-37 50 -52 67 l-27 32 -1 -26 c0 -25 17 -76 41 -125 13 -25 77 -63 101 -59 23
4 54 -31 41 -47 -12 -15 -12 -87 0 -105 5 -7 17 -13 28 -13 10 0 19 -6 19 -13
0 -8 17 -22 38 -33 20 -10 46 -27 58 -37 11 -10 29 -19 40 -21 65 -13 124 -59
124 -96 0 -10 -8 -27 -17 -39 l-18 -21 -43 21 c-23 12 -52 35 -65 52 -12 16
-45 54 -74 83 -56 57 -84 66 -158 51 -22 -5 -56 -9 -75 -9 -23 0 -39 -7 -48
-19 -7 -11 -20 -19 -29 -19 -8 0 -28 -11 -45 -25 -16 -14 -36 -25 -44 -25 -21
0 -17 -29 9 -67 19 -29 27 -33 66 -33 59 0 114 -39 109 -78 -2 -20 -10 -28
-27 -30 -32 -5 -90 27 -106 59 -10 19 -29 30 -69 42 -30 8 -65 13 -76 10 -22
-6 -102 21 -137 46 -12 9 -23 27 -23 40 0 18 -3 21 -13 12 -8 -6 -16 -9 -19
-6 -3 3 -10 -6 -16 -19 -8 -19 -7 -30 8 -54 21 -34 118 -102 145 -102 10 0 16
-3 12 -6 -6 -7 17 -34 29 -34 14 0 44 -44 44 -66 0 -17 -12 -29 -55 -49 -60
-30 -82 -49 -65 -60 5 -3 10 -15 10 -26 0 -28 -55 -27 -72 2 -7 11 -45 45 -85
75 -49 37 -76 65 -84 88 -7 19 -21 37 -31 39 -10 3 -18 12 -18 20 0 17 -37 30
-90 32 -84 4 -114 16 -165 66 -47 46 -54 49 -115 55 -36 3 -77 9 -92 14 -23 7
-27 5 -31 -18 -6 -33 6 -49 50 -67 41 -17 76 -81 53 -95 -24 -15 -107 37 -133
84 -20 36 -28 42 -67 47 -25 3 -58 2 -75 -2 -16 -5 -45 -9 -63 -9 -43 0 -50
-20 -22 -65 l22 -35 -21 -29 c-12 -16 -21 -45 -21 -64 0 -28 -7 -40 -35 -62
-20 -14 -47 -45 -61 -67 -14 -22 -34 -43 -44 -45 -28 -7 -48 -44 -54 -99 -5
-39 -13 -55 -41 -81 -22 -20 -35 -41 -35 -57 0 -38 -10 -56 -31 -56 -29 0 -45
42 -29 79 13 33 5 91 -13 91 -7 0 -26 -9 -44 -19 -26 -16 -31 -25 -27 -48 16
-99 16 -120 0 -135 -9 -9 -16 -21 -16 -27 0 -24 -20 -9 -36 27 -10 20 -26 47
-37 59 -20 22 -20 46 -1 110 8 30 -16 39 -66 24 -25 -7 -67 -38 -118 -86 -43
-41 -101 -90 -128 -108 -46 -31 -50 -38 -57 -88 -4 -30 -9 -91 -10 -136 -3
-92 -10 -105 -72 -132 -30 -13 -48 -30 -63 -60 -33 -62 -42 -113 -26 -142 24
-43 18 -59 -20 -59 -40 0 -48 -15 -67 -145 -6 -44 -17 -96 -25 -117 -20 -54
-35 -191 -25 -226 5 -16 16 -40 24 -53 8 -14 19 -76 26 -152 7 -71 17 -141 23
-155 25 -65 48 -166 48 -213 0 -32 9 -72 24 -108 14 -31 27 -73 31 -93 3 -21
14 -43 24 -50 35 -25 89 -123 101 -181 7 -33 20 -73 30 -90 11 -18 26 -59 34
-91 9 -33 25 -69 36 -81 10 -11 24 -45 31 -75 6 -30 22 -71 35 -91 14 -20 29
-62 34 -94 5 -31 19 -74 31 -94 12 -20 27 -60 35 -88 8 -33 31 -75 60 -112 25
-33 47 -72 49 -88 1 -15 6 -36 10 -45 4 -10 8 -29 9 -43 0 -14 5 -25 9 -25 5
0 5 -10 2 -21 -4 -12 -2 -24 4 -28 10 -7 28 -87 49 -226 11 -72 15 -88 24 -95
13 -10 27 -139 33 -295 l6 -150 -31 -33 c-27 -29 -38 -33 -83 -35 -29 0 -69 2
-89 6 -27 5 -41 3 -52 -9 -27 -27 -22 -35 74 -113 23 -19 49 -49 58 -66 39
-73 78 -114 146 -152 38 -21 85 -50 104 -66 19 -15 52 -30 74 -33 47 -8 121
-70 150 -128 11 -22 34 -60 49 -83 16 -23 29 -53 29 -66 0 -14 7 -41 15 -61 9
-21 15 -54 14 -74 -1 -20 10 -73 24 -117 27 -83 41 -154 52 -266 6 -59 12 -72
53 -123 78 -96 90 -79 66 95 -9 68 -18 160 -19 204 -3 71 -18 214 -45 430 -13
106 -28 184 -46 245 -17 59 -53 230 -61 293 -3 20 -9 40 -14 43 -5 3 -9 16 -9
28 0 13 -7 41 -16 62 -9 22 -18 62 -19 91 -2 28 -6 56 -9 62 -7 10 -34 107
-39 140 -2 9 -11 31 -21 49 -9 19 -18 52 -18 75 0 23 -4 52 -9 65 -5 13 -11
65 -14 115 -3 51 -10 108 -15 127 -26 94 -60 251 -65 295 -10 96 -14 114 -28
137 -11 17 -14 52 -12 133 1 61 5 118 9 127 4 9 5 22 2 27 -8 13 29 51 49 51
21 0 28 41 17 94 -7 34 -7 46 2 46 25 0 45 65 39 124 -4 41 -2 61 9 74 20 24
38 69 38 96 0 13 8 31 19 40 10 9 21 31 25 48 8 39 43 112 78 162 16 21 28 43
28 48 0 5 13 29 29 52 16 23 38 62 48 87 10 24 34 76 54 114 20 39 41 86 48
105 6 19 27 53 46 75 20 22 40 57 46 78 7 27 21 44 51 63 38 24 45 26 76 14
28 -10 36 -10 43 1 5 8 9 10 9 4 0 -5 7 1 15 15 8 14 15 21 15 15 0 -5 5 -3
10 5 5 8 15 15 22 15 7 0 19 12 26 27 7 16 22 33 33 38 10 6 19 19 19 30 0 27
36 47 96 53 62 7 87 -7 87 -48 0 -31 11 -47 40 -58 14 -5 17 0 19 36 1 23 3
51 4 62 1 11 2 25 3 30 1 6 26 9 62 7 34 -2 86 -1 116 3 46 6 52 9 42 21 -6 8
-14 12 -17 9 -7 -6 -52 35 -52 48 0 16 41 67 50 62 5 -3 11 -1 14 4 4 6 18 6
34 2 19 -6 34 -4 47 5 10 8 29 14 41 14 12 0 32 8 45 19 40 31 131 41 173 19
11 -6 32 -21 46 -34 14 -13 36 -32 50 -43 28 -22 23 -33 -17 -36 -16 -1 -38
-3 -49 -3 -26 -2 -38 -39 -19 -58 11 -12 16 -12 30 2 20 20 87 27 137 13 41
-10 54 -30 65 -95 5 -31 7 -32 47 -28 46 5 89 -13 94 -38 2 -11 -10 -26 -32
-40 -20 -13 -36 -31 -36 -42 0 -16 5 -18 38 -13 20 4 44 2 52 -3 10 -6 20 -4
32 7 9 8 24 13 33 10 8 -4 14 -1 12 6 -1 7 5 10 13 8 8 -2 31 -5 50 -8 19 -3
37 -7 39 -9 2 -2 12 1 22 7 14 7 23 5 39 -11 25 -25 31 -25 76 1 42 23 103 44
155 53 21 4 42 13 49 21 7 8 19 15 27 15 23 0 63 30 154 115 48 44 100 87 115
95 16 8 41 24 56 36 23 19 98 40 122 35 5 -1 16 5 25 13 28 26 93 47 148 47
30 1 41 12 49 47 8 42 58 52 163 32 44 -8 55 -7 86 11 19 12 35 25 35 29 0 13
57 27 129 34 35 3 69 10 75 15 6 5 27 11 46 14 69 9 175 41 199 59 13 10 37
18 53 18 16 0 39 6 51 14 12 7 49 19 82 27 33 7 80 26 104 41 30 19 58 28 85
28 33 0 47 7 74 34 32 33 100 55 112 37 3 -4 29 -16 58 -25 44 -15 55 -16 69
-4 9 7 26 13 39 13 12 1 33 6 46 12 12 7 48 19 79 27 42 12 58 22 67 41 7 15
20 25 32 25 38 0 87 27 93 51 7 28 92 79 130 79 39 0 77 -18 77 -36 0 -9 9
-31 20 -49 14 -23 19 -47 18 -81 -4 -63 19 -71 48 -17 11 21 29 39 39 41 11 2
48 16 81 33 34 16 68 29 77 29 23 0 53 -43 73 -103 9 -29 23 -61 30 -72 8 -11
14 -37 14 -58 0 -24 8 -51 22 -70 16 -23 22 -46 23 -93 0 -45 5 -67 17 -76 8
-7 32 -43 52 -79 l37 -67 -26 -30 c-32 -38 -32 -56 -2 -50 20 4 28 -3 45 -36
11 -23 23 -53 26 -67 6 -27 17 -32 107 -45 50 -8 119 12 119 34 0 12 15 21 53
31 28 8 63 13 77 12 14 0 43 -1 65 0 22 0 61 0 87 0 26 0 57 -6 70 -15 28 -18
88 -22 133 -8 38 11 99 -13 117 -46 14 -28 58 -52 90 -52 136 2 149 -3 249
-76 41 -30 70 -44 106 -49 28 -3 63 -13 78 -21 15 -8 49 -14 75 -14 34 0 52
-5 64 -19 10 -11 35 -23 57 -26 23 -4 56 -21 80 -41 23 -19 52 -34 65 -34 20
0 24 5 24 29 0 35 26 101 43 106 7 2 23 6 37 9 17 3 33 20 48 47 29 55 28 74
-8 99 -34 24 -36 35 -14 78 15 30 14 34 -5 58 -28 36 -26 48 9 76 17 13 48 37
69 54 70 56 114 66 236 56 70 -6 111 -14 121 -24 8 -8 17 -37 21 -66 5 -49 5
-52 -23 -64 -16 -7 -40 -20 -53 -30 -13 -10 -37 -18 -52 -18 -54 0 -31 -61 34
-90 44 -20 67 -13 67 19 0 22 19 41 42 41 10 0 18 3 19 8 0 4 2 19 3 34 1 15
14 40 30 56 25 27 27 35 25 93 -5 93 13 109 78 69 32 -19 33 -19 43 0 5 10 10
30 10 45 0 14 11 47 24 73 13 26 31 73 40 103 9 31 23 64 31 75 32 42 16 104
-36 133 -36 21 -44 32 -40 55 1 5 -12 23 -29 41 -20 21 -28 37 -24 48 3 10
-14 58 -45 121 -28 57 -51 108 -51 114 0 5 -8 18 -18 29 -13 15 -25 20 -45 16
-36 -7 -40 -16 -44 -96 -4 -98 -16 -118 -88 -143 -32 -12 -61 -27 -63 -33 -2
-7 5 -22 15 -34 33 -37 35 -46 14 -76 -12 -17 -17 -31 -11 -37 15 -15 -47 -74
-76 -74 -14 0 -45 9 -70 21 -27 12 -76 22 -117 25 -89 6 -115 25 -78 55 18 14
36 19 76 17 32 -1 59 3 68 11 9 7 35 22 59 34 29 15 43 28 43 42 0 18 -7 20
-57 20 -45 0 -62 -5 -81 -23 -42 -40 -127 -17 -127 34 0 21 5 24 35 24 51 0
47 31 -9 72 -25 18 -50 46 -57 61 -7 16 -35 50 -63 75 -141 130 -142 135 -67
213 28 29 52 58 55 66 4 10 14 13 35 8 19 -4 30 -2 34 7 7 20 -133 118 -180
125 -51 8 -66 21 -58 51 3 13 1 30 -6 38 -9 11 -7 14 10 15 29 2 34 3 47 11
17 11 52 -2 68 -27 18 -28 56 -38 91 -25 25 9 25 11 10 39 -8 16 -35 46 -60
67 l-45 37 34 23 c22 15 49 24 75 24 50 0 91 18 91 40 0 9 3 20 7 24 19 18 7
40 -38 73 -28 19 -59 53 -70 74 l-19 39 -68 -6 c-63 -6 -70 -5 -99 20 -48 40
-90 137 -103 231 -10 83 -9 81 -79 138 -20 16 -23 16 -37 2 -41 -41 -125 -3
-181 83 -22 34 -46 55 -80 72 -57 27 -115 56 -164 84 -33 18 -40 19 -77 7 -31
-11 -48 -11 -73 -2 -43 15 -97 13 -137 -4z m343 -383 c0 -31 -19 -28 -23 4 -3
18 0 25 10 22 7 -3 13 -14 13 -26z m0 -75 c0 -26 -20 -25 -23 2 -3 16 1 22 10
19 7 -3 13 -12 13 -21z m-217 -244 c6 -3 12 -11 12 -19 0 -7 7 -31 16 -53 15
-38 17 -39 102 -61 48 -12 107 -30 131 -41 25 -11 66 -19 95 -19 29 0 61 -6
71 -14 18 -13 17 -14 -10 -32 -27 -18 -29 -17 -89 4 -33 12 -82 22 -108 22
-25 0 -82 7 -125 15 -107 21 -121 19 -196 -15 -60 -29 -71 -31 -153 -26 -49 2
-90 5 -90 5 -15 10 -9 47 18 103 26 54 39 70 63 78 17 6 44 21 60 35 27 22 38
25 110 24 44 -1 86 -4 93 -6z m872 -78 c0 -26 -22 -39 -39 -22 -15 15 -14 54
2 60 18 7 37 -12 37 -38z m-5455 -47 c1 -77 -29 -61 -51 28 -6 23 -4 25 22 22
27 -3 29 -6 29 -50z m3937 -89 c21 -11 25 -39 5 -39 -7 0 -19 6 -26 13 -11 10
-12 9 -6 -2 5 -9 -1 -7 -17 4 -13 11 -25 25 -25 31 0 13 38 9 69 -7z m627 -87
c5 -10 13 -42 17 -71 6 -49 5 -53 -12 -49 -13 2 -26 22 -40 65 -12 34 -19 65
-16 68 12 11 42 4 51 -13z m-556 -126 c3 -8 -1 -22 -8 -33 -12 -15 -16 -15
-24 -4 -11 17 -2 51 14 51 7 0 15 -6 18 -14z m804 -13 c10 -14 18 -36 19 -47
3 -69 27 -82 139 -79 138 4 252 -25 313 -80 12 -11 22 -27 22 -35 0 -8 23 -35
51 -62 l52 -47 -21 -21 c-31 -31 -85 -37 -166 -18 -95 22 -143 20 -196 -6 -37
-20 -46 -30 -57 -69 -14 -52 -53 -99 -81 -99 -10 0 -27 -9 -38 -21 -16 -17
-16 -22 -4 -29 8 -6 36 -10 62 -10 35 0 52 5 67 21 16 17 23 19 41 9 25 -13
22 -31 -7 -44 -25 -12 -44 -41 -38 -58 3 -8 15 -18 28 -23 18 -8 21 -17 19
-50 -5 -55 -25 -82 -71 -96 -54 -16 -95 4 -99 49 -2 24 -12 38 -39 56 -20 14
-44 43 -54 65 -9 22 -27 46 -38 53 -24 15 -27 36 -7 44 24 9 5 42 -49 82 -58
44 -80 79 -101 158 -19 72 -5 151 32 183 25 22 31 46 14 56 -14 9 -12 25 3 25
6 0 23 -6 37 -13 48 -25 69 -26 96 -4 24 19 26 25 20 72 -3 29 -3 55 1 58 13
14 33 6 50 -20z m-3968 -244 c59 -21 66 -76 8 -65 -51 10 -87 56 -54 69 6 3
12 6 13 6 1 1 15 -4 33 -10z m-854 -9 c3 -5 3 -15 0 -20 -7 -12 -45 5 -45 20
0 13 37 13 45 0z m2715 -207 c5 -7 10 -34 10 -61 0 -62 -23 -86 -83 -85 -66 1
-97 17 -97 51 0 34 20 55 74 77 32 14 37 20 34 40 -7 32 13 38 34 11 10 -11
22 -26 28 -33z m-1910 32 c24 -29 -11 -44 -67 -29 -13 4 -23 10 -23 15 0 11
37 27 61 28 9 1 22 -6 29 -14z m2381 -63 c30 -25 20 -52 -19 -52 -33 0 -67 32
-59 55 9 21 50 19 78 -3z m-4138 -64 c55 -29 58 -58 6 -58 -40 0 -69 16 -69
39 0 33 24 40 63 19z m3115 -142 c2 -10 -3 -16 -16 -16 -23 0 -46 25 -38 39 9
14 50 -3 54 -23z m-362 -70 c87 -32 95 -41 48 -56 -46 -15 -156 -8 -209 14
-44 19 -42 23 23 47 62 23 61 23 138 -5z m2563 -31 l24 -12 -21 -19 c-12 -10
-22 -22 -22 -27 0 -4 34 -24 76 -43 42 -19 82 -41 91 -49 17 -17 15 -19 -60
-35 -52 -11 -58 -14 -126 -78 -65 -61 -117 -92 -152 -92 -89 0 -134 90 -69
138 35 26 37 40 12 73 -38 49 -34 109 7 109 10 0 26 11 35 24 8 14 28 27 43
29 42 7 135 -4 162 -18z m-6666 -141 c51 -26 65 -64 25 -64 -71 0 -124 40 -95
69 15 15 33 14 70 -5z m8294 -150 c9 -24 -40 -67 -76 -67 -36 0 -62 19 -54 40
14 35 118 57 130 27z m-5945 -45 c21 -23 38 -44 38 -48 0 -3 14 -12 30 -19 36
-17 39 -32 5 -32 -14 0 -27 1 -28 3 -2 1 -11 -4 -19 -11 -13 -10 -23 -5 -66
33 -27 25 -55 45 -61 45 -13 0 -25 45 -16 59 3 6 23 11 43 11 30 0 43 -7 74
-41z m5668 1 c0 -5 -6 -10 -14 -10 -8 0 -18 5 -21 10 -3 6 3 10 14 10 12 0 21
-4 21 -10z m-5824 -91 c56 -52 -1 -77 -83 -37 -26 13 -35 32 -26 54 9 23 78
12 109 -17z m-789 -361 c-3 -8 -6 -5 -6 6 -1 11 2 17 5 13 3 -3 4 -12 1 -19z
m-1085 -1343 c3 -13 1 -22 -3 -19 -5 3 -9 0 -9 -5 0 -6 -4 -11 -9 -11 -19 0
-4 58 15 60 1 0 4 -11 6 -25z"/>
<path d="M17070 32024 c0 -17 97 -90 107 -81 9 10 -19 48 -50 67 -32 20 -57
26 -57 14z"/>
<path d="M13805 31939 c5 -14 0 -28 -15 -44 -20 -21 -21 -28 -11 -55 9 -28 8
-34 -12 -50 -22 -18 -22 -18 -2 -40 11 -12 51 -46 90 -75 38 -29 78 -63 87
-74 20 -23 58 -28 58 -8 0 7 -32 39 -70 72 -85 72 -103 112 -76 168 21 46 20
69 -5 101 -25 32 -53 36 -44 5z"/>
<path d="M15848 31933 c-16 -2 -28 -7 -28 -11 0 -13 17 -33 26 -31 33 6 61 -6
95 -41 41 -41 47 -44 72 -34 12 4 8 13 -19 42 -19 20 -34 39 -34 43 0 4 -7 15
-16 23 -15 15 -39 18 -96 9z"/>
<path d="M15162 31914 c4 -20 45 -52 73 -56 30 -5 32 36 3 56 -31 22 -81 22
-76 0z"/>
<path d="M15275 31901 c-3 -5 -2 -12 3 -15 10 -6 6 -56 -10 -108 -15 -50 0
-68 57 -68 24 0 45 -4 47 -8 7 -16 67 -52 87 -52 20 0 20 2 7 23 -8 12 -16 57
-19 100 -3 42 -10 84 -16 91 -13 16 -99 46 -130 46 -11 0 -22 -4 -26 -9z"/>
<path d="M14915 31866 c-18 -14 -11 -15 90 -16 87 0 106 3 97 12 -20 20 -163
23 -187 4z"/>
<path d="M16066 31832 c-3 -5 11 -18 32 -27 20 -10 49 -26 64 -37 34 -24 116
-130 123 -161 5 -17 22 -29 68 -46 34 -13 97 -41 140 -62 99 -49 107 -49 107
-1 0 33 -5 40 -48 67 -70 45 -85 54 -109 65 -18 7 -23 18 -23 44 0 28 -7 40
-32 59 -73 53 -126 76 -199 86 -41 5 -84 13 -95 16 -12 4 -24 2 -28 -3z"/>
<path d="M14745 31789 c-27 -11 -57 -27 -65 -34 -9 -8 -32 -21 -53 -30 -20 -8
-37 -22 -37 -30 0 -22 82 -102 112 -110 20 -5 38 -1 65 15 25 15 49 20 77 18
39 -2 42 0 59 35 17 37 21 39 92 39 47 0 48 -1 31 -27 -22 -33 -20 -71 4 -105
11 -16 24 -50 29 -76 10 -50 31 -74 65 -74 55 0 66 -10 66 -56 0 -37 -4 -46
-24 -56 -33 -15 -39 -33 -16 -53 11 -10 22 -33 26 -52 4 -19 16 -41 29 -49 33
-22 92 -29 110 -14 25 21 87 13 156 -20 77 -36 87 -37 119 -7 14 13 33 26 43
30 17 6 25 47 9 47 -16 0 -72 53 -72 69 0 8 7 34 16 58 13 33 15 60 9 127 -7
83 -7 85 -37 95 -56 20 -134 13 -196 -16 -31 -14 -59 -29 -62 -33 -3 -4 -16
-11 -29 -15 -20 -6 -30 -1 -59 31 -19 21 -46 65 -59 97 l-23 57 22 41 23 40
-24 20 c-18 14 -39 19 -90 19 -36 0 -108 9 -160 20 -111 24 -94 24 -156 -1z"/>
<path d="M11997 31783 c10 -28 24 -43 40 -43 16 0 8 40 -11 52 -20 14 -36 9
-29 -9z"/>
<path d="M12310 31720 c-8 -5 -50 -10 -93 -10 l-77 0 6 -40 c8 -49 8 -49 -121
-53 -82 -3 -101 -7 -103 -20 -2 -10 11 -23 36 -36 45 -23 66 -46 57 -61 -8
-12 -65 -13 -84 -1 -24 15 -66 -3 -69 -30 -2 -13 -8 -28 -13 -33 -15 -17 -10
-63 10 -87 l20 -24 35 37 c33 35 36 36 70 26 20 -6 43 -22 51 -35 17 -25 40
-30 51 -10 4 6 4 9 -1 5 -14 -13 -30 34 -27 74 3 31 9 39 30 45 64 16 187 -92
234 -204 22 -53 38 -68 38 -36 0 9 5 31 12 49 9 27 8 36 -9 65 -27 45 -56 146
-49 165 7 18 38 16 93 -7 26 -10 34 -10 47 0 21 18 20 36 -5 70 -11 15 -19 39
-18 52 4 49 -2 59 -51 84 -57 29 -51 27 -70 15z"/>
<path d="M16862 31691 c-21 -13 13 -41 49 -41 39 0 38 25 -2 39 -18 6 -32 11
-33 11 -1 0 -7 -4 -14 -9z"/>
<path d="M13862 31548 c-28 -28 -1 -78 44 -78 19 0 24 5 24 25 0 24 -31 65
-48 65 -4 0 -13 -5 -20 -12z"/>
<path d="M16656 31544 c-4 -9 -5 -18 -4 -19 4 -3 89 -59 102 -67 6 -3 28 -14
48 -22 20 -9 40 -21 43 -26 10 -17 40 -11 53 10 11 18 10 20 -14 20 -14 0 -23
4 -19 10 3 6 -5 14 -18 19 -14 6 -31 18 -38 29 -18 25 -91 62 -123 62 -13 0
-27 -7 -30 -16z"/>
<path d="M12851 31491 c-12 -8 -13 -16 -4 -45 13 -44 4 -51 -41 -35 -29 11
-38 10 -61 -5 -26 -17 -28 -26 -10 -69 5 -12 -4 -28 -33 -56 -34 -33 -38 -42
-26 -52 9 -7 24 -9 41 -4 16 4 71 8 123 9 52 1 101 5 108 9 16 10 16 39 0 55
-15 15 4 31 37 32 50 1 48 16 -14 87 -71 82 -89 93 -120 74z"/>
<path d="M14480 31493 c0 -5 6 -18 14 -29 17 -22 35 -11 20 13 -12 19 -34 29
-34 16z"/>
<path d="M13807 31413 c-11 -10 34 -53 55 -53 30 0 19 28 -19 49 -25 13 -27
13 -36 4z"/>
<path d="M11580 31347 c-77 -62 -131 -129 -181 -224 -25 -48 28 -75 66 -33 35
39 154 99 197 100 19 0 88 66 88 85 0 7 -15 35 -33 61 -45 65 -67 67 -137 11z"/>
<path d="M16237 31383 c-3 -5 -7 -30 -8 -58 l-4 -50 75 3 c93 4 110 9 110 30
-1 36 -156 103 -173 75z"/>
<path d="M11889 31304 c-6 -7 -8 -26 -4 -43 6 -26 11 -29 61 -36 30 -3 54 -10
54 -14 0 -15 54 -2 67 15 11 15 10 21 0 38 -22 33 -158 63 -178 40z"/>
<path d="M14230 31105 c7 -8 17 -15 22 -15 6 0 5 7 -2 15 -7 8 -17 15 -22 15
-6 0 -5 -7 2 -15z"/>
<path d="M19380 31081 c0 -4 33 -32 73 -61 39 -30 92 -75 117 -101 30 -30 63
-52 96 -63 35 -11 55 -25 67 -46 18 -29 18 -30 -3 -30 -12 0 -30 5 -42 11 -31
17 -33 5 -9 -64 11 -35 21 -71 21 -80 0 -9 15 -32 32 -52 34 -36 54 -46 45
-20 -4 8 -2 17 3 20 6 4 10 13 10 22 0 8 22 62 50 119 40 85 48 109 40 128 -7
18 -18 26 -42 28 -31 3 -34 7 -53 64 -11 34 -26 69 -34 78 -26 31 -88 36 -119
11 -2 -2 6 -18 17 -36 42 -68 19 -66 -59 6 -32 30 -69 57 -82 59 -50 10 -128
15 -128 7z"/>
<path d="M12390 31042 c0 -5 9 -20 20 -33 l20 -24 -2 30 c-2 19 -9 31 -20 33
-10 2 -18 -1 -18 -6z"/>
<path d="M15405 31042 c-36 -3 -65 -22 -65 -43 0 -4 7 -15 17 -24 13 -13 27
-15 73 -10 43 5 65 3 88 -9 38 -20 42 -20 42 -1 0 21 -64 82 -91 86 -13 2 -42
3 -64 1z"/>
<path d="M11354 30791 c-52 -17 -63 -35 -41 -64 17 -24 124 -34 148 -15 29 23
32 54 7 70 -38 24 -63 26 -114 9z"/>
<path d="M20055 30304 c-5 -1 -22 -5 -37 -8 -25 -6 -28 -11 -28 -50 0 -36 5
-47 26 -61 52 -34 103 10 90 78 -6 32 -25 48 -51 41z"/>
<path d="M19505 30280 c3 -5 8 -10 11 -10 2 0 4 5 4 10 0 6 -5 10 -11 10 -5 0
-7 -4 -4 -10z"/>
<path d="M12974 29446 c-12 -9 -24 -12 -28 -9 -3 3 -6 -1 -6 -10 0 -9 8 -15
18 -15 9 1 38 -2 63 -6 31 -5 49 -4 54 3 3 6 11 9 16 6 5 -3 6 0 3 8 -3 8 -17
17 -32 21 -15 3 -36 8 -47 11 -11 3 -30 -1 -41 -9z"/>
<path d="M13412 29218 c6 -18 22 -20 43 -3 19 14 18 14 -13 15 -22 0 -32 -4
-30 -12z"/>
<path d="M19426 29017 c-24 -18 -33 -92 -14 -115 22 -25 26 -43 16 -79 -8 -31
-56 -92 -106 -137 -43 -39 -63 -102 -68 -219 -4 -90 -9 -117 -29 -157 -15 -30
-26 -71 -28 -104 -3 -49 0 -60 24 -88 23 -28 25 -36 15 -58 -6 -14 -21 -33
-34 -44 -21 -17 -23 -25 -19 -80 2 -33 9 -76 15 -94 11 -33 10 -35 -50 -93
-34 -32 -70 -61 -80 -65 -14 -4 -18 -14 -16 -39 1 -19 6 -31 10 -29 4 3 14 2
21 -3 12 -8 17 -9 37 -12 6 0 10 -5 10 -10 0 -5 -21 -8 -47 -8 -41 2 -48 -1
-45 -15 2 -10 -2 -18 -9 -18 -8 0 -10 -13 -5 -42 4 -24 8 -69 9 -100 0 -34 5
-54 10 -51 6 4 7 1 3 -6 -5 -7 0 -21 9 -31 14 -16 16 -29 11 -67 -4 -27 -10
-80 -15 -120 -5 -44 -17 -85 -30 -107 -16 -25 -24 -57 -27 -103 -2 -38 -7 -86
-11 -108 -4 -22 -6 -84 -5 -138 2 -76 -3 -116 -20 -180 -19 -66 -23 -108 -23
-212 0 -150 11 -180 71 -191 19 -3 37 -11 40 -16 4 -6 10 -5 15 3 7 12 9 12 9
0 0 -8 -7 -22 -16 -32 -14 -15 -14 -25 -4 -66 14 -57 14 -53 6 -218 -9 -176
-12 -195 -30 -229 -14 -27 -13 -31 5 -58 11 -15 26 -28 34 -28 7 0 15 -3 17
-7 2 -5 21 -17 42 -28 25 -13 59 -46 91 -90 48 -64 122 -135 142 -135 4 0 18
-12 30 -26 22 -26 26 -39 38 -137 8 -62 29 -75 118 -76 87 0 105 7 172 73 50
50 57 61 54 82 0 4 4 10 9 13 10 6 18 196 10 238 -2 12 -9 27 -15 35 -12 14
-22 128 -11 128 4 0 -5 20 -18 45 -14 24 -23 49 -19 55 3 5 1 10 -6 10 -6 0
-9 8 -6 19 6 25 -48 91 -75 91 -11 0 -31 9 -45 20 -14 11 -32 20 -39 20 -8 0
-14 5 -14 10 0 6 -7 10 -15 10 -16 0 -37 34 -41 67 -2 17 7 27 42 44 44 21 68
53 66 91 0 10 2 17 6 17 29 -5 40 4 46 36 4 20 16 39 27 46 11 5 18 16 16 22
-2 7 0 22 4 35 12 31 -6 28 -37 -5 -15 -16 -27 -23 -30 -17 -3 6 -12 20 -20
30 -13 16 -15 16 -10 2 3 -10 1 -20 -4 -23 -6 -4 -10 -2 -10 4 0 6 -7 8 -15 4
-18 -6 -105 16 -120 31 -6 6 -11 22 -12 35 -3 34 -10 37 -32 10 -13 -16 -16
-28 -10 -36 11 -12 -18 -56 -32 -48 -4 3 -6 -3 -5 -11 1 -21 -30 -26 -45 -8
-6 8 -16 14 -21 14 -22 0 -36 30 -43 89 -4 34 -10 75 -14 89 -8 29 12 107 34
130 6 7 40 17 74 22 35 5 64 10 65 12 1 2 22 35 46 73 39 63 72 106 146 187
13 15 48 40 77 55 l52 28 -2 54 c-2 43 -8 59 -33 87 -19 22 -30 46 -30 65 0
17 -5 51 -11 76 -8 29 -8 47 -2 52 14 9 45 144 45 194 -1 23 5 51 12 62 21 32
26 69 16 105 -8 27 -6 39 7 59 15 22 18 56 20 211 2 102 7 210 13 240 27 159
34 249 20 304 -11 47 -11 60 4 95 9 23 16 66 16 97 0 30 6 70 14 88 14 33 8
93 -14 136 -13 27 -68 24 -105 -5 -19 -14 -69 -37 -112 -51 -64 -21 -81 -23
-105 -13 -30 12 -30 12 -33 77 -1 29 2 42 11 42 23 0 31 33 26 117 -3 61 -9
86 -21 97 -14 13 -20 14 -35 3z m-248 -1911 c2 -10 -1 -23 -7 -29 -13 -13 -61
17 -61 39 0 23 64 15 68 -10z m120 -303 c2 -13 -1 -23 -6 -23 -24 0 -42 14
-42 32 0 29 44 20 48 -9z m-89 -815 c17 -17 30 -38 29 -47 -6 -33 -108 -19
-108 14 0 16 30 64 41 65 3 0 20 -14 38 -32z"/>
<path d="M16589 27026 c-5 -6 -49 -14 -109 -22 -24 -3 -60 -13 -80 -21 -19 -9
-48 -17 -65 -19 -42 -3 -161 -49 -204 -78 -25 -17 -53 -26 -91 -28 -92 -6
-199 -79 -230 -155 -7 -18 -17 -33 -22 -33 -5 0 -15 -15 -23 -32 -18 -41 -35
-63 -55 -71 -10 -3 -11 -6 -2 -6 10 -1 10 -6 1 -22 -6 -12 -9 -38 -5 -60 l6
-38 -47 5 c-26 2 -50 8 -53 14 -3 5 -15 4 -30 -3 -20 -10 -25 -21 -26 -54 -2
-34 2 -42 18 -46 17 -5 19 -11 14 -40 -4 -20 0 -50 9 -76 12 -34 13 -71 7
-200 -4 -87 -4 -189 0 -227 4 -38 10 -105 14 -148 5 -57 12 -84 26 -98 10 -10
18 -26 18 -37 0 -10 13 -29 30 -42 16 -13 30 -32 30 -41 0 -10 4 -18 9 -18 13
0 91 -74 91 -86 0 -6 6 -11 13 -12 6 0 27 -4 45 -7 22 -4 37 -2 48 9 18 19 30
20 40 4 5 -7 17 1 35 23 l28 34 33 -19 c123 -70 162 -79 206 -48 25 18 40 21
103 17 80 -5 136 -6 244 -5 39 0 102 -3 140 -7 92 -11 208 -6 320 12 11 2 37
4 57 4 25 1 44 9 60 25 16 16 39 26 73 30 72 9 115 66 56 74 -12 2 -30 0 -39
-4 -9 -4 -35 -8 -57 -9 -61 -2 -139 -17 -146 -28 -4 -6 -14 -7 -25 -1 -11 4
-50 8 -89 9 -50 0 -78 6 -97 18 -29 20 -45 50 -29 55 5 2 7 10 4 18 -3 8 0 14
6 14 6 0 11 -8 12 -17 0 -12 2 -13 6 -5 4 10 8 10 19 1 8 -7 27 -9 46 -5 18 4
45 8 60 10 15 2 41 14 58 26 24 17 42 21 80 18 41 -2 51 0 56 15 8 25 31 34
114 41 41 3 79 11 84 16 6 6 7 10 2 10 -4 0 0 10 8 21 16 23 166 80 271 103
33 7 74 20 90 30 17 9 35 16 41 16 12 0 73 71 92 107 7 12 13 50 15 85 4 78
10 88 50 88 45 0 53 9 54 60 3 107 12 152 33 167 26 19 25 45 -4 92 -14 21
-22 42 -19 45 4 3 1 6 -5 6 -7 0 -12 5 -12 11 0 7 -8 18 -17 25 -17 13 -17 14
0 8 27 -9 20 5 -7 16 -26 10 -55 50 -36 50 5 0 10 13 10 28 0 33 -55 92 -86
92 -40 0 -79 21 -96 50 -10 17 -28 32 -45 36 -15 3 -74 22 -130 41 -67 22
-119 34 -150 33 -27 -1 -73 1 -104 5 -38 5 -59 4 -63 -4 -9 -13 -50 -14 -74
-2 -9 5 -69 19 -132 31 -111 21 -176 45 -207 75 -8 8 -26 18 -41 21 -15 3 -53
12 -85 20 -56 13 -139 19 -148 10z m-37 -1000 c10 -7 25 -31 34 -52 9 -21 25
-58 35 -81 10 -23 19 -47 19 -52 0 -31 -122 -20 -220 21 -71 29 -77 57 -22
110 36 34 96 66 127 67 6 0 18 -6 27 -13z"/>
<path d="M13400 26855 c-8 -2 -62 -11 -120 -20 -58 -9 -124 -20 -147 -25 -23
-4 -60 -5 -81 -3 -21 2 -58 -3 -82 -11 -25 -9 -55 -16 -67 -16 -13 0 -31 -8
-41 -18 -9 -9 -50 -39 -89 -65 -40 -26 -75 -57 -78 -68 -4 -11 -15 -23 -25
-27 -10 -4 -47 -32 -83 -62 -48 -41 -71 -70 -90 -113 -28 -64 -27 -78 8 -97
28 -15 163 -19 173 -5 4 6 32 23 62 40 l55 29 205 2 c113 1 273 8 355 15 233
19 360 11 339 -22 -9 -15 -104 -57 -199 -89 -55 -18 -112 -41 -127 -51 -14
-11 -33 -19 -41 -19 -26 0 -85 -29 -114 -56 -110 -102 -132 -124 -142 -142
-22 -41 23 -39 89 4 35 23 115 35 138 20 6 -4 22 0 35 9 19 12 30 13 54 4 37
-12 48 -41 22 -57 -27 -17 -53 -15 -83 9 l-26 21 2 -59 3 -58 -56 -30 c-71
-38 -84 -49 -121 -102 -60 -88 -40 -137 54 -133 78 3 79 3 133 -5 28 -3 73 -9
100 -11 28 -3 69 -14 91 -24 71 -32 90 -34 124 -10 16 12 30 25 30 29 0 9 -49
24 -128 40 -29 6 -73 25 -97 41 -108 75 -98 129 35 189 67 31 89 27 130 -20
32 -38 42 -43 100 -50 35 -5 66 -11 68 -14 11 -11 -10 -37 -38 -46 -26 -10
-30 -16 -30 -47 0 -21 -6 -49 -14 -63 -12 -24 -11 -27 23 -49 20 -13 49 -33
65 -44 19 -13 27 -15 21 -5 -4 7 12 -4 35 -26 24 -22 50 -46 58 -52 7 -7 33
-13 57 -13 23 0 56 -7 71 -15 17 -8 56 -15 91 -15 l61 0 -5 -42 c-2 -24 -9
-47 -14 -53 -17 -17 -10 -53 12 -60 27 -9 87 3 113 21 11 8 30 14 41 14 11 0
26 9 33 21 9 14 19 18 33 14 27 -9 84 20 110 55 12 16 32 31 45 34 14 4 24 14
24 24 0 10 4 22 10 28 5 5 11 23 13 40 5 45 14 54 56 54 23 0 59 12 94 31 47
25 57 35 61 62 3 18 8 50 11 72 21 131 -20 213 -192 381 -40 39 -73 76 -73 82
0 6 10 18 21 26 26 18 79 120 79 153 0 13 -13 37 -30 55 -19 20 -30 41 -30 60
0 32 -20 78 -43 96 -8 7 -34 15 -58 18 -24 4 -65 17 -91 30 -26 13 -55 26 -65
28 -10 1 -25 6 -33 9 -8 3 -73 20 -145 36 -71 16 -157 37 -190 46 -33 9 -78
20 -100 25 -22 5 -56 17 -75 26 -28 15 -66 18 -200 20 -91 2 -172 1 -180 -1z
m949 -960 c44 -22 56 -78 23 -108 -24 -22 -99 -38 -129 -26 -21 8 -23 13 -17
46 17 94 57 123 123 88z"/>
<path d="M19860 26387 c-14 -7 -46 -25 -73 -42 -37 -23 -47 -35 -44 -52 2 -12
1 -22 -2 -21 -22 2 -31 -5 -31 -23 0 -16 4 -19 19 -14 14 4 21 0 26 -15 5 -16
14 -21 33 -19 16 2 47 -10 74 -27 37 -22 51 -38 62 -71 8 -23 12 -43 10 -46
-3 -2 2 -7 11 -11 9 -3 13 -2 10 4 -3 6 3 10 14 10 24 0 25 3 11 49 -6 21 -6
39 0 46 10 12 12 94 4 171 -5 42 -10 54 -30 63 -31 14 -62 13 -94 -2z"/>
<path d="M11593 25185 c-21 -15 -32 -61 -35 -153 -1 -24 -5 -45 -10 -48 -4 -3
-8 -14 -8 -24 0 -10 -5 -20 -11 -22 -8 -3 -8 -10 2 -26 13 -20 11 -24 -14 -47
-28 -26 -37 -75 -14 -75 8 0 8 -3 1 -8 -5 -4 -10 -16 -11 -27 0 -11 -6 -41
-14 -67 -11 -42 -11 -49 4 -66 9 -10 17 -24 17 -30 0 -30 105 -54 140 -32 12
7 12 14 2 43 -7 18 -12 51 -12 73 0 55 19 168 30 174 5 3 11 26 13 50 3 25 7
52 9 60 42 132 43 150 8 198 -33 46 -60 53 -97 27z"/>
<path d="M16170 24410 c8 -5 11 -10 6 -10 -5 0 -4 -6 2 -12 6 -7 27 -45 47
-85 34 -66 125 -173 148 -173 5 0 4 6 -2 13 -6 8 -8 16 -5 19 11 11 -41 113
-74 148 -19 19 -40 47 -48 62 -16 30 -42 48 -71 48 -15 0 -16 -2 -3 -10z"/>
<path d="M16380 24100 c18 -12 30 -13 30 -2 0 4 -10 9 -22 9 -18 2 -20 0 -8
-7z"/>
<path d="M15820 23770 c-8 -6 -34 -10 -58 -10 -72 0 -162 -67 -162 -121 0 -29
-19 -59 -37 -59 -4 0 -28 -32 -52 -71 -24 -38 -53 -75 -64 -81 -20 -10 -203
-21 -282 -16 -22 1 -67 1 -100 0 -83 -4 -208 -5 -249 -1 -43 4 -106 -36 -144
-90 -33 -47 -63 -66 -119 -76 -24 -4 -60 -15 -80 -24 -21 -10 -65 -24 -98 -31
-119 -26 -159 -55 -313 -228 -116 -130 -119 -134 -147 -235 -13 -47 -27 -93
-33 -103 -5 -11 -15 -41 -21 -68 -7 -27 -20 -61 -30 -75 -40 -57 -42 -67 -20
-95 23 -29 44 -33 65 -11 19 18 51 19 83 1 14 -8 30 -12 36 -10 5 2 15 -6 20
-18 6 -14 26 -27 54 -35 24 -7 52 -20 61 -28 21 -19 80 -12 120 14 19 13 52
16 150 16 125 0 125 0 197 38 40 20 80 37 88 37 9 0 61 -16 116 -35 117 -41
129 -43 229 -50 41 -3 89 -8 107 -10 25 -3 33 1 38 16 5 16 -7 34 -52 78 -54
54 -63 59 -117 65 -87 11 -101 19 -140 81 -48 74 -85 71 -115 -8 -31 -81 -168
-35 -224 74 -31 62 -29 104 6 131 43 33 7 30 -58 -6 -36 -20 -71 -36 -77 -36
-6 0 -37 -18 -70 -40 -86 -57 -168 -75 -233 -50 -36 14 -41 35 -17 83 11 23
23 53 27 66 13 44 84 150 124 186 48 44 108 85 123 85 7 0 27 14 44 31 43 41
75 44 294 22 202 -20 285 -22 302 -5 17 17 69 15 95 -3 12 -9 42 -14 74 -14
30 0 110 0 179 -1 69 -1 138 3 153 9 15 6 56 13 92 17 54 6 73 3 105 -12 44
-21 47 -26 24 -48 -8 -9 -12 -16 -8 -16 4 0 -5 -9 -19 -20 -14 -11 -31 -20
-39 -20 -7 0 -26 -7 -42 -15 -16 -8 -43 -17 -60 -20 -55 -9 -141 -38 -158 -53
-21 -17 -24 -65 -5 -80 15 -12 73 -25 107 -24 14 0 51 12 84 27 104 46 279 48
333 3 20 -16 48 -74 62 -126 19 -67 -2 -155 -47 -198 -19 -19 -45 -34 -58 -34
-13 0 -38 -9 -56 -20 -18 -11 -41 -20 -50 -20 -10 0 -33 -8 -53 -17 -29 -14
-40 -15 -55 -5 -11 7 -28 12 -38 12 -21 0 -56 -33 -46 -43 10 -10 -45 -20 -80
-14 -36 6 -56 -6 -56 -35 0 -9 -7 -21 -16 -26 -14 -8 -10 -12 19 -21 47 -16
72 -8 87 29 13 32 20 36 36 21 23 -21 70 -29 94 -16 15 8 31 10 40 5 9 -5 36
-4 61 1 24 6 60 11 79 11 19 0 42 6 51 14 9 8 34 17 55 21 22 3 77 19 124 35
81 29 93 30 265 32 128 1 189 6 210 15 17 8 35 13 40 11 6 -1 69 -4 140 -5 72
-1 139 -5 151 -9 26 -8 74 27 74 54 0 10 4 21 10 25 16 10 59 -6 65 -25 3 -10
14 -20 23 -22 23 -5 53 3 47 12 -3 5 11 3 30 -2 47 -15 69 3 62 49 -3 18 -1
35 4 39 5 3 7 10 4 15 -4 5 -2 9 3 9 10 0 19 24 28 72 3 15 -2 41 -11 57 -8
17 -17 67 -20 113 -3 46 -6 90 -8 99 -4 21 -28 51 -35 45 -3 -3 -22 8 -42 24
-21 17 -42 30 -48 30 -8 0 -19 25 -27 66 -2 6 -15 30 -31 53 -39 60 -117 97
-148 72 -9 -8 -18 -5 -31 9 -10 11 -22 20 -27 20 -5 0 -16 6 -24 14 -19 20
-184 13 -196 -7 -7 -13 -1 -46 17 -88 3 -9 0 -23 -9 -31 -12 -13 -13 -19 -2
-40 7 -14 17 -47 21 -74 4 -27 14 -61 22 -77 35 -68 -18 -108 -106 -79 -25 8
-64 19 -86 25 -22 5 -58 18 -80 27 -64 28 -175 58 -240 65 -93 10 -98 12 -153
35 -31 13 -52 29 -52 38 0 8 13 39 30 68 39 70 51 123 38 175 -13 50 12 151
49 201 32 42 73 127 73 152 0 10 -11 29 -25 42 -14 13 -25 32 -25 42 0 40 -36
57 -124 59 -45 1 -88 -2 -96 -7z m405 -1007 c67 -33 92 -65 81 -106 -11 -45
-62 -32 -158 42 -119 92 -67 135 77 64z"/>
<path d="M19110 23683 c-23 -9 -39 -35 -40 -64 0 -34 -19 -89 -31 -89 -14 0
-11 -36 7 -74 16 -32 16 -39 0 -103 -10 -37 -20 -99 -22 -137 -3 -38 -10 -78
-15 -89 -6 -10 -12 -56 -13 -101 -4 -105 -14 -156 -38 -182 -18 -20 -18 -22 2
-85 11 -35 20 -70 20 -77 0 -28 -44 -103 -71 -119 -37 -22 -64 -98 -56 -156 5
-39 -15 -97 -34 -97 -3 0 -12 -28 -19 -62 -7 -35 -24 -81 -39 -102 -26 -39
-26 -42 -27 -220 -1 -245 7 -304 44 -337 49 -44 282 -118 282 -90 0 5 -19 16
-42 23 -24 7 -49 19 -58 26 -23 20 -81 59 -117 77 -17 9 -33 25 -36 35 -7 26
4 111 14 105 9 -6 16 40 25 170 3 50 12 108 19 129 8 22 12 43 9 48 -3 4 0 8
5 8 6 0 11 11 11 24 0 14 6 31 13 38 6 7 12 18 13 23 3 49 19 119 30 130 8 7
14 22 14 32 0 11 4 23 8 28 5 6 15 30 22 55 8 25 22 56 32 69 9 12 20 39 24
60 3 20 30 86 60 148 30 61 54 118 54 127 0 9 9 25 20 36 11 11 20 28 21 38 0
9 9 31 20 47 10 17 22 37 25 45 3 8 15 35 26 59 10 24 17 46 14 48 -3 3 3 13
12 22 10 9 34 50 53 91 18 41 36 77 39 80 9 9 40 72 40 81 0 25 82 181 105
201 15 13 31 31 36 40 8 15 4 17 -28 16 -21 0 -47 -5 -58 -11 -10 -5 -70 -9
-132 -9 -100 1 -118 4 -160 27 -49 26 -57 28 -83 18z"/>
<path d="M12115 23444 c-70 -59 -205 -104 -315 -106 -63 -1 -69 -3 -56 -17 8
-9 20 -35 27 -59 7 -23 18 -47 26 -53 7 -6 13 -17 13 -23 0 -6 12 -24 26 -41
14 -16 28 -42 31 -57 3 -15 14 -35 24 -44 11 -9 19 -22 19 -27 0 -6 11 -25 25
-43 14 -18 25 -37 25 -41 0 -15 40 -93 48 -93 4 0 13 -12 19 -27 7 -16 26 -42
42 -59 17 -18 27 -35 24 -38 -4 -3 3 -19 14 -34 11 -15 23 -37 27 -50 4 -12
16 -27 27 -32 10 -6 19 -17 19 -24 0 -14 18 -49 56 -111 13 -22 27 -47 31 -55
4 -8 12 -19 20 -23 7 -4 13 -16 13 -26 0 -9 14 -33 30 -51 17 -18 30 -39 30
-45 0 -7 9 -20 20 -30 12 -10 18 -25 15 -32 -2 -8 0 -11 5 -8 6 3 10 -1 10
-10 0 -16 19 -56 32 -65 8 -7 68 -135 68 -147 0 -5 16 -32 35 -59 19 -27 35
-57 35 -66 0 -9 11 -29 25 -44 13 -14 27 -36 30 -48 14 -50 28 -76 41 -76 7 0
16 -16 20 -37 4 -21 5 -38 3 -38 -2 0 5 -13 16 -30 12 -16 34 -55 49 -85 16
-30 37 -64 47 -75 10 -12 21 -38 25 -60 8 -54 21 -83 49 -117 14 -16 25 -35
25 -42 0 -7 13 -33 29 -58 16 -25 27 -48 25 -51 -3 -2 7 -27 21 -56 14 -28 23
-56 20 -61 -3 -6 -2 -10 3 -10 9 0 43 -72 62 -132 6 -21 16 -38 21 -38 6 0 8
-4 4 -10 -3 -5 -1 -17 4 -27 5 -10 23 -65 41 -123 18 -58 40 -132 51 -165 10
-33 23 -91 28 -130 25 -170 33 -255 28 -269 -13 -32 13 -25 40 11 15 21 30 40
33 43 3 3 19 22 37 42 32 37 32 38 18 79 -8 23 -15 53 -15 66 0 14 -7 48 -15
76 -7 29 -23 120 -35 202 -12 83 -25 168 -30 190 -14 59 -12 118 5 141 9 14
12 34 8 59 -5 31 -22 52 -97 123 -145 137 -283 279 -298 306 -7 13 -32 55 -55
94 -24 39 -43 75 -43 81 0 6 -4 11 -10 11 -5 0 -10 5 -10 11 0 7 -6 17 -14 23
-7 6 -30 43 -51 81 -48 88 -81 142 -94 149 -5 4 -17 32 -26 64 -9 31 -22 71
-29 87 -7 17 -21 55 -30 85 -10 30 -24 62 -32 70 -19 22 -44 97 -44 132 0 16
-11 54 -24 86 -13 31 -27 76 -31 100 -4 24 -18 71 -32 105 -14 35 -31 106 -39
162 -21 164 -62 373 -78 397 -12 19 -28 83 -51 208 -8 46 -38 100 -54 100 -14
0 -14 2 -1 10 8 5 11 10 5 9 -5 0 -23 -11 -40 -25z"/>
<path d="M15259 22321 c-23 -19 -23 -21 -7 -37 19 -19 78 -28 78 -12 0 5 5 6
10 3 6 -3 10 -2 10 4 0 5 9 8 20 6 11 -2 20 1 20 6 0 20 -26 37 -66 43 -32 6
-45 3 -65 -13z"/>
<path d="M17792 22304 c-13 -9 -21 -22 -18 -30 3 -8 1 -14 -5 -14 -6 0 -9 -6
-6 -13 3 -9 -2 -13 -16 -12 -23 2 -47 -32 -47 -66 0 -11 -4 -19 -10 -19 -5 0
-10 -7 -10 -15 0 -16 -46 -39 -60 -30 -5 3 -11 -3 -15 -14 -4 -13 -12 -17 -25
-14 -10 3 -27 0 -37 -6 -10 -6 -13 -11 -7 -11 6 0 11 -10 10 -22 -1 -15 -14
-28 -43 -42 -30 -15 -44 -29 -48 -48 -9 -38 1 -63 29 -76 18 -8 22 -16 19 -37
-4 -16 1 -33 12 -45 9 -10 14 -23 11 -29 -4 -6 -1 -21 6 -33 7 -13 12 -25 11
-28 -1 -3 14 -4 33 -2 19 2 34 0 34 -5 0 -6 11 -15 25 -21 30 -14 32 -41 5
-65 -11 -9 -20 -28 -20 -41 0 -13 -7 -27 -16 -30 -23 -9 -30 1 -16 24 7 12 8
21 2 25 -6 3 -10 1 -10 -4 0 -21 -49 -12 -61 11 -10 18 -8 24 7 35 16 12 16
13 -10 13 -32 0 -65 -28 -61 -52 2 -9 -3 -19 -10 -22 -12 -4 -11 -10 1 -35 12
-24 14 -64 4 -91 -1 -3 -1 -16 -1 -30 1 -19 -11 -35 -52 -67 -30 -23 -62 -58
-71 -77 -9 -20 -33 -48 -54 -63 -20 -16 -38 -31 -40 -35 -2 -5 -12 -8 -23 -8
-10 0 -20 -4 -20 -10 -1 -5 -3 -14 -4 -20 -1 -5 -3 -14 -4 -18 0 -5 -20 -17
-43 -28 -24 -10 -53 -26 -66 -35 -12 -10 -40 -20 -61 -24 -22 -4 -47 -17 -60
-31 -15 -17 -31 -24 -57 -24 -26 0 -43 -7 -58 -24 -48 -56 -142 -111 -206
-119 -25 -4 -56 -9 -69 -11 -13 -3 -21 -3 -18 0 8 8 -24 44 -55 60 -37 19
-132 18 -164 -2 -24 -16 -26 -16 -56 15 -17 18 -38 29 -45 27 -8 -3 -12 -2 -9
3 3 4 -5 14 -18 20 -20 11 -30 10 -66 -8 -24 -12 -49 -21 -56 -21 -7 0 -24
-12 -38 -26 -27 -30 -54 -27 -63 6 -3 11 -11 20 -19 20 -27 0 -64 -20 -64 -35
0 -8 -5 -15 -10 -15 -6 0 -3 -11 5 -24 17 -26 14 -29 -58 -66 -15 -7 -30 -24
-33 -37 -6 -24 -28 -31 -39 -13 -3 6 -24 10 -46 10 -21 0 -39 -4 -39 -10 0 -5
-9 -10 -19 -10 -14 0 -18 5 -14 20 6 23 4 24 -34 9 -15 -6 -41 -12 -56 -13
-16 -1 -32 -8 -36 -15 -6 -10 -10 -9 -14 2 -6 16 -46 12 -58 -6 -4 -5 -13 -6
-20 -1 -36 22 -82 3 -63 -27 10 -16 -47 -60 -70 -53 -50 16 -67 25 -72 39 -3
8 -16 15 -27 15 -42 0 -82 5 -92 12 -23 14 -126 27 -150 18 -28 -11 -51 -5
-59 16 -4 10 -22 14 -58 14 -48 0 -54 -3 -66 -28 -7 -15 -16 -49 -19 -75 -6
-50 -37 -87 -73 -87 -21 0 -60 41 -60 63 0 9 -5 17 -11 17 -5 0 -7 -4 -4 -10
4 -6 -5 -10 -20 -10 -19 0 -26 4 -22 14 3 8 -3 22 -13 31 -20 19 -18 19 -190
-25 -40 -11 -93 -5 -160 17 -70 23 -127 4 -195 -63 -13 -13 -28 -15 -75 -11
-32 4 -65 8 -72 9 -8 2 -12 -6 -10 -22 4 -35 113 -135 187 -172 33 -17 74 -43
92 -58 34 -30 232 -130 316 -160 29 -10 83 -30 122 -45 38 -14 108 -33 155
-41 47 -8 112 -23 145 -34 60 -19 155 -37 250 -47 28 -3 70 -8 94 -13 25 -4
49 -7 55 -5 33 10 182 14 219 6 23 -6 76 -12 119 -14 42 -3 82 -8 90 -13 7 -5
18 -9 23 -10 23 -4 103 -43 110 -53 3 -6 17 -8 29 -5 20 5 24 1 29 -26 4 -17
11 -29 16 -25 20 12 61 -8 80 -40 24 -42 73 -56 102 -29 14 13 22 15 30 7 6
-6 17 -9 24 -7 23 9 37 -23 30 -66 -6 -35 -11 -42 -36 -47 -30 -6 -39 -23 -34
-63 2 -14 4 -28 4 -31 2 -13 68 -15 79 -3 6 7 8 15 5 18 -4 3 -1 6 5 6 7 0 11
6 10 13 -2 7 7 11 25 10 22 -1 27 2 27 20 0 15 -3 18 -8 9 -7 -9 -13 -8 -27 8
-10 11 -13 20 -7 20 7 0 11 6 10 13 -2 8 14 13 50 15 31 2 52 -1 52 -7 0 -6
11 -11 25 -11 18 0 25 -5 25 -18 0 -10 11 -29 25 -42 21 -20 25 -21 31 -6 3 9
16 16 29 16 24 0 42 26 22 33 -9 3 -8 8 2 20 17 21 25 21 46 1 11 -12 13 -20
6 -27 -18 -18 -13 -39 7 -29 9 5 37 9 62 8 25 -1 54 4 65 11 11 7 29 13 40 13
12 0 31 9 43 20 12 11 26 20 32 20 6 0 16 11 22 25 6 14 15 25 20 25 4 0 8
-11 8 -25 0 -18 5 -25 20 -25 22 0 29 35 8 43 -8 3 -6 7 7 12 44 15 50 23 48
59 -2 34 -1 36 27 36 22 0 30 -5 30 -17 0 -16 2 -16 11 -3 9 12 10 10 6 -8 -7
-32 16 -23 23 9 5 17 12 23 26 20 10 -1 41 2 69 9 39 10 57 22 83 52 18 23 32
52 32 67 0 30 9 46 28 47 37 3 42 5 42 18 0 8 10 16 22 18 14 2 24 11 26 23 3
17 1 17 -7 5 -9 -13 -11 -12 -11 3 0 12 6 17 18 14 9 -2 29 3 45 10 22 11 27
20 27 48 0 36 11 43 67 48 12 0 21 4 20 7 -3 10 46 59 55 54 5 -3 7 -2 6 3 -2
4 1 9 6 10 5 0 13 8 18 17 5 9 14 16 19 16 16 0 46 39 75 97 16 31 32 49 39
47 7 -3 15 6 20 23 3 15 17 42 31 60 13 17 24 36 24 40 0 5 9 28 20 50 13 28
29 44 50 51 19 7 30 18 30 30 0 22 48 119 79 157 11 15 18 31 15 36 -3 5 -1 9
4 9 13 0 52 67 52 89 0 10 9 30 20 44 11 14 20 29 20 35 0 5 8 16 18 25 10 9
29 38 42 64 12 27 29 55 35 63 18 20 155 295 155 308 0 6 9 19 19 29 11 10 34
51 51 90 16 40 44 93 61 118 33 49 48 97 49 153 0 24 -9 42 -30 64 -30 30 -39
45 -19 33 6 -4 5 2 -3 14 -7 12 -17 22 -23 22 -35 4 -88 -2 -123 -14 -40 -14
-42 -14 -64 13 -13 15 -32 32 -43 38 -17 9 -21 6 -32 -20 -7 -16 -10 -35 -6
-41 3 -5 1 -7 -5 -3 -6 4 -12 -3 -14 -16 -2 -15 -10 -23 -23 -23 -11 0 -20 -6
-19 -12 2 -30 5 -34 14 -28 10 6 14 -37 5 -47 -4 -3 -16 -1 -28 5 -18 8 -22
17 -19 38 4 25 0 28 -32 34 -20 4 -36 11 -36 17 0 5 -26 8 -57 6 l-57 -3 -3
43 c-2 39 -1 42 23 42 24 0 25 -2 13 -17 -12 -16 -11 -16 7 0 12 11 15 20 9
25 -6 4 -12 20 -13 35 -3 40 -42 78 -42 41 0 -8 -4 -13 -8 -10 -5 3 -6 -8 -4
-25 3 -22 0 -29 -12 -29 -14 0 -16 6 -10 38 4 20 13 42 20 47 23 18 20 58 -5
88 -28 31 -38 33 -69 11z m-72 -164 c0 -5 -8 -10 -17 -10 -15 0 -16 2 -3 10
19 12 20 12 20 0z m-70 -250 c0 -5 -4 -10 -10 -10 -5 0 -10 5 -10 10 0 6 5 10
10 10 6 0 10 -4 10 -10z m-265 -1710 c-3 -5 -12 -10 -18 -10 -7 0 -6 4 3 10
19 12 23 12 15 0z"/>
<path d="M15502 21866 c-40 -7 -78 -18 -84 -24 -7 -7 -21 -12 -32 -12 -10 0
-16 -3 -13 -7 4 -3 1 -13 -6 -21 -8 -11 -8 -14 0 -9 17 10 19 -7 12 -76 -4
-38 -2 -73 5 -91 l11 -28 44 36 c24 20 52 41 61 46 10 5 23 23 30 39 15 36 27
42 73 31 39 -8 57 2 57 32 0 10 5 18 11 18 6 0 9 6 6 14 -3 7 0 19 6 25 6 6 7
11 2 11 -5 0 -1 6 8 13 15 10 6 12 -50 13 -38 1 -101 -4 -141 -10z"/>
<path d="M14867 20836 c-11 -27 -8 -36 8 -36 16 0 17 5 6 34 -7 18 -8 18 -14
2z"/>
<path d="M14868 20763 c6 -2 18 -2 25 0 6 3 1 5 -13 5 -14 0 -19 -2 -12 -5z"/>
<path d="M13590 20746 c0 -2 8 -10 18 -17 15 -13 16 -12 3 4 -13 16 -21 21
-21 13z"/>
<path d="M13032 19367 c-45 -47 -82 -92 -82 -101 0 -25 139 -23 170 2 40 33
47 172 9 180 -8 1 -52 -35 -97 -81z"/>
<path d="M19011 18968 c-12 -27 -24 -69 -28 -93 -5 -37 -2 -45 15 -54 11 -6
31 -10 44 -10 13 1 28 0 33 -1 6 -2 22 2 37 9 20 11 27 22 31 55 6 54 -15 91
-43 76 -17 -9 -22 -7 -32 17 -25 55 -33 55 -57 1z"/>
<path d="M13037 18934 c-34 -36 -64 -71 -66 -77 -2 -7 -12 -23 -22 -36 -11
-13 -19 -32 -19 -43 0 -11 -4 -16 -10 -13 -5 3 -10 0 -10 -8 0 -7 -11 -23 -25
-35 -18 -16 -25 -32 -25 -57 0 -19 -7 -40 -15 -47 -42 -35 -65 -65 -65 -85 0
-13 -4 -23 -10 -23 -5 0 -10 -10 -10 -22 -1 -13 -7 -34 -15 -48 -17 -30 -18
-40 -5 -40 6 0 10 7 10 15 0 8 5 15 10 15 6 0 10 -4 10 -9 0 -5 3 -16 6 -25 4
-12 0 -16 -16 -16 -12 0 -20 -5 -18 -12 5 -13 -69 -92 -94 -101 -12 -4 -18
-17 -18 -37 0 -18 4 -29 10 -25 6 3 10 -1 10 -9 0 -9 -8 -17 -17 -17 -24 -2
-25 -2 -45 6 -13 5 -19 0 -24 -21 -4 -15 -21 -40 -38 -55 -29 -27 -30 -30 -13
-43 21 -16 22 -54 2 -80 -8 -10 -12 -22 -10 -26 2 -4 -1 -7 -8 -8 -41 -4 -53
-9 -62 -27 -6 -11 -19 -21 -30 -22 -41 -3 -101 -4 -130 -1 -26 3 -30 -1 -33
-24 -2 -16 -11 -30 -22 -33 -13 -4 -19 -14 -17 -28 2 -19 -3 -22 -37 -22 -29
0 -40 5 -44 18 -6 23 -18 22 -25 -3 -3 -11 0 -20 6 -20 7 0 1 -6 -13 -13 -16
-8 -31 -29 -40 -57 -22 -66 -27 -71 -56 -60 -41 16 -54 12 -69 -23 -7 -18 -23
-41 -36 -52 -13 -12 -19 -14 -14 -5 6 10 1 8 -13 -4 -28 -25 -66 -15 -80 21
-16 44 -11 61 24 78 31 15 32 17 22 46 -8 25 -8 33 3 40 8 5 10 9 4 9 -5 0 5
9 23 20 42 26 122 109 122 128 0 14 27 52 70 99 11 13 31 38 44 57 13 20 37
46 53 60 16 13 35 36 42 50 8 14 20 26 27 26 19 0 116 118 138 168 10 23 23
42 28 42 4 0 8 6 8 13 0 6 13 20 30 29 17 10 32 29 36 45 4 15 25 47 48 69 26
26 49 63 61 99 11 31 23 55 27 53 11 -5 58 45 58 62 0 9 5 21 10 26 19 19 0
44 -29 38 -54 -12 -59 -16 -75 -48 -14 -30 -21 -34 -69 -40 -51 -6 -91 -20
-147 -51 -14 -8 -33 -15 -43 -15 -10 0 -33 -11 -51 -25 -18 -14 -40 -25 -49
-25 -8 0 -29 -11 -45 -25 -17 -14 -35 -25 -41 -25 -6 0 -11 -4 -11 -10 0 -5
-15 -10 -33 -10 -20 0 -47 -10 -68 -26 -19 -14 -50 -32 -69 -40 -19 -9 -55
-26 -80 -38 -25 -13 -56 -27 -70 -31 -14 -4 -38 -18 -53 -31 -16 -13 -36 -24
-45 -24 -10 0 -43 -25 -75 -55 -43 -42 -65 -55 -87 -55 -26 0 -31 -5 -36 -30
-6 -26 -34 -48 -56 -42 -5 1 -8 -3 -8 -9 0 -6 -13 -8 -32 -5 -23 4 -36 0 -49
-15 -10 -11 -20 -20 -23 -20 -30 4 -46 -1 -46 -14 0 -14 -98 -85 -116 -85 -5
0 -26 -18 -48 -40 -71 -71 -83 -80 -98 -80 -17 0 -51 -34 -42 -42 3 -3 -6 -18
-20 -33 -18 -19 -35 -27 -60 -27 -47 0 -68 -17 -70 -59 -2 -33 -3 -34 -53 -40
-28 -4 -56 -10 -62 -13 -6 -4 -11 -2 -11 3 0 6 -7 11 -15 11 -8 0 -15 -5 -15
-11 0 -5 -4 -8 -9 -5 -9 6 -38 -23 -33 -32 1 -3 -5 -7 -14 -8 -21 -3 -26 -9
-39 -47 -6 -19 -17 -32 -26 -31 -9 1 -16 -6 -15 -15 0 -9 -5 -15 -11 -13 -7 1
-13 -3 -13 -9 0 -5 -4 -8 -9 -5 -12 8 -71 -13 -98 -34 -15 -12 -19 -21 -12
-31 11 -18 12 -32 0 -25 -5 3 -11 -1 -15 -9 -3 -8 -15 -15 -26 -15 -11 0 -20
-6 -20 -12 0 -12 -43 -38 -62 -38 -5 0 -18 -9 -30 -20 -16 -14 -25 -17 -39 -9
-13 7 -27 4 -51 -11 -18 -11 -46 -20 -62 -20 -17 0 -37 -9 -51 -24 -14 -15
-27 -21 -35 -16 -7 4 -24 2 -37 -5 -29 -15 -54 -10 -47 9 3 7 20 19 39 26 28
11 32 16 24 32 -6 11 -21 18 -39 18 -24 0 -30 -4 -30 -22 0 -35 -11 -43 -58
-44 -29 -1 -47 -8 -56 -19 -8 -11 -18 -15 -26 -10 -7 5 -11 4 -7 -1 12 -20
-22 -47 -58 -46 -23 1 -38 -4 -41 -13 -3 -7 -20 -17 -37 -21 -30 -6 -124 -91
-119 -107 1 -5 -22 -7 -53 -5 -54 3 -55 2 -55 -23 0 -23 -4 -26 -27 -23 -28 3
-113 -39 -113 -55 0 -11 -112 -61 -135 -61 -35 0 -95 -33 -95 -53 0 -14 -5
-17 -21 -12 -16 5 -30 -2 -59 -34 -21 -23 -43 -41 -49 -41 -6 0 -21 -10 -33
-22 -12 -12 -29 -23 -36 -25 -8 -1 -21 -12 -30 -24 -15 -21 -16 -21 -29 -4 -7
11 -13 16 -13 13 0 -3 -15 -2 -34 2 -18 4 -40 4 -47 0 -8 -5 -39 -11 -69 -14
-69 -7 -110 -16 -110 -25 0 -7 -12 -9 -75 -11 -20 -1 -39 -9 -44 -17 -8 -14
-11 -14 -32 1 -13 9 -34 16 -47 16 -13 0 -30 7 -38 15 -17 17 -59 21 -49 5 3
-5 1 -10 -5 -10 -17 0 -98 -79 -132 -129 -31 -47 -68 -139 -68 -172 0 -10 -12
-44 -26 -76 -16 -38 -26 -79 -28 -120 -1 -45 -8 -68 -21 -83 -27 -30 -33 -95
-40 -485 -4 -187 -11 -364 -16 -394 -5 -30 -9 -99 -9 -152 0 -54 -4 -110 -10
-124 -6 -16 -10 -172 -10 -389 0 -305 2 -368 15 -399 26 -64 36 -359 28 -847
-15 -867 -4 -3070 15 -3107 6 -11 31 -30 55 -42 67 -32 77 -64 76 -229 0 -75
-4 -159 -7 -187 -10 -71 7 -340 27 -425 5 -25 15 -108 21 -185 12 -144 17
-180 52 -325 16 -70 25 -90 51 -112 l32 -27 0 -103 c0 -65 -6 -125 -17 -163
-27 -99 -39 -184 -39 -295 -1 -110 1 -126 32 -229 27 -89 25 -126 -11 -181
-36 -57 -36 -51 -21 -310 14 -255 18 -300 42 -425 10 -55 23 -147 29 -205 11
-116 21 -180 44 -285 9 -38 21 -113 26 -165 6 -52 19 -140 30 -195 10 -55 24
-170 30 -255 11 -156 15 -191 43 -355 8 -49 20 -155 26 -235 6 -80 20 -191 31
-247 11 -55 24 -172 30 -260 12 -199 17 -242 37 -323 19 -79 13 -126 -21 -176
-21 -31 -38 -42 -93 -60 -38 -12 -90 -25 -116 -29 -33 -5 -52 -13 -61 -28 -10
-17 -14 -99 -14 -365 -1 -189 -5 -348 -8 -354 -4 -5 -8 -47 -10 -92 -3 -44 -9
-99 -14 -121 -5 -22 -14 -128 -20 -235 -6 -107 -15 -211 -20 -230 -30 -119
-41 -174 -50 -244 -8 -64 -17 -90 -45 -132 -19 -29 -43 -55 -53 -59 -41 -14
-52 -48 -50 -162 5 -251 -2 -473 -16 -506 -10 -24 -15 -109 -20 -303 -15 -604
-21 -709 -45 -814 -9 -41 -21 -178 -37 -438 l-7 -102 2398 0 c2130 0 2396 2
2385 15 -7 8 -18 15 -26 15 -18 0 -64 62 -64 88 0 26 25 52 51 52 30 0 91 -28
119 -55 69 -64 141 -82 187 -45 14 11 32 20 39 20 22 0 44 -30 44 -61 l0 -29
7600 0 c4697 0 7600 4 7600 9 0 5 -12 9 -28 9 -36 -1 -73 11 -95 31 -9 9 -23
21 -29 27 -8 7 -23 8 -41 3 -28 -8 -97 8 -139 31 -10 6 -27 10 -38 10 -33 0
-90 28 -90 44 0 25 -51 64 -91 71 -21 4 -43 13 -50 21 -6 8 -17 14 -25 14 -18
0 -84 40 -84 51 0 5 -18 16 -40 25 -22 9 -40 20 -40 25 0 19 -83 89 -106 89
-18 0 -24 5 -24 23 0 23 -45 75 -58 69 -4 -2 -8 1 -10 7 -2 6 1 11 7 11 6 0 8
6 5 13 -9 24 144 -4 194 -36 23 -15 42 -25 42 -22 0 11 69 -33 105 -67 22 -20
58 -42 82 -48 23 -7 48 -19 54 -26 6 -8 35 -21 64 -30 30 -8 59 -22 66 -30 7
-9 35 -27 63 -41 27 -14 56 -31 63 -39 16 -16 129 -74 144 -74 6 0 34 -18 62
-41 28 -22 64 -43 79 -46 32 -6 44 -33 28 -63 -11 -20 -10 -20 428 -20 l439 0
7 43 c3 23 13 170 21 327 7 157 17 304 21 326 8 53 -6 79 -54 99 -20 9 -46 22
-57 28 -11 6 -36 19 -57 29 -23 11 -45 34 -60 60 -18 33 -29 43 -48 43 -28 -1
-38 7 -65 48 -10 16 -35 37 -55 47 -21 11 -40 27 -44 36 -4 12 -13 14 -31 10
-21 -5 -31 0 -51 23 -15 18 -31 28 -39 24 -8 -3 -15 -1 -15 5 0 6 6 13 13 15
9 4 9 6 0 6 -7 1 -21 -9 -33 -21 -19 -21 -20 -21 -21 -2 -1 10 -1 27 0 36 1
10 -16 30 -40 48 -42 30 -82 39 -94 20 -4 -6 -10 -8 -15 -5 -5 3 -11 1 -15 -4
-8 -14 -35 -2 -35 15 0 8 7 17 15 20 22 9 -27 53 -66 61 -38 7 -51 25 -51 68
0 19 -4 35 -9 35 -5 0 -9 9 -9 20 0 11 7 20 15 20 13 0 19 -11 16 -32 -1 -7
47 -1 61 8 13 8 10 17 -15 44 -32 37 -82 70 -105 70 -22 0 -35 20 -41 63 0 4
-9 3 -20 -2 -14 -8 -23 -6 -36 9 -10 11 -24 20 -31 20 -20 0 -166 95 -158 103
4 4 1 13 -6 22 -7 8 -10 28 -8 45 3 21 -1 35 -14 47 -10 9 -18 12 -18 8 0 -5
-12 2 -26 16 -14 13 -27 23 -30 22 -16 -10 -38 3 -60 37 -28 42 -39 101 -17
93 6 -3 9 -12 6 -20 -4 -11 -2 -14 5 -9 7 4 12 13 12 19 0 16 -38 39 -50 32
-6 -4 -13 1 -16 9 -3 9 -16 16 -28 16 -47 0 -122 92 -151 185 -11 37 -15 40
-49 40 -30 0 -42 6 -59 30 -12 17 -24 32 -27 35 -10 9 -10 30 0 30 6 0 10 9
10 20 0 24 1 24 48 3 20 -9 42 -15 47 -14 6 2 28 3 50 3 29 -1 45 -7 58 -24
10 -13 27 -33 37 -45 10 -12 16 -24 13 -26 -2 -3 5 -8 16 -12 12 -3 21 -10 21
-14 0 -7 68 -49 82 -50 12 -1 127 -90 173 -133 92 -86 106 -98 119 -98 7 0 23
-20 36 -45 13 -25 28 -45 34 -45 7 0 32 -18 56 -41 25 -23 60 -47 77 -55 22
-10 38 -27 48 -52 9 -20 23 -43 33 -50 27 -20 130 -112 189 -169 29 -29 53
-50 53 -48 0 6 49 -36 100 -85 26 -25 76 -70 111 -100 34 -30 72 -65 83 -78
11 -13 40 -35 63 -50 24 -15 43 -30 43 -35 0 -10 45 -28 90 -36 27 -5 36 -12
38 -30 2 -13 12 -26 23 -28 10 -3 19 -9 19 -14 0 -16 46 -9 62 9 43 49 61 131
79 370 12 168 6 468 -12 547 -6 28 -12 61 -14 75 -2 14 -20 67 -40 118 -19 51
-42 126 -50 168 -8 42 -19 81 -24 88 -35 44 -60 209 -65 436 -1 58 -5 114 -10
125 -6 16 -6 17 3 5 8 -12 11 -7 11 24 l0 39 19 -22 c11 -12 23 -21 28 -19 4
2 14 -10 21 -27 17 -38 21 -45 57 -90 29 -37 29 -39 27 -153 -1 -64 3 -175 9
-246 6 -72 12 -153 14 -179 9 -141 18 -193 35 -209 17 -16 19 -13 32 70 18
121 18 1422 -1 1467 -16 38 -32 17 -24 -32 4 -24 2 -33 -8 -33 -26 0 -40 17
-44 51 -3 19 -7 46 -11 60 -3 14 1 46 9 70 17 54 22 136 8 153 -6 7 -13 45
-16 85 -4 40 -10 83 -14 95 -6 14 -4 36 5 61 11 34 11 53 -2 130 -15 82 -18
125 -13 165 2 17 -7 84 -21 150 -5 25 -11 124 -14 221 -4 155 -7 181 -26 218
-19 36 -21 45 -10 71 13 32 8 112 -15 215 -9 37 -12 93 -9 143 3 47 1 89 -5
95 -5 7 -9 57 -8 112 1 75 -3 108 -15 130 -24 44 -38 93 -38 135 0 20 -3 40
-7 44 -4 4 -8 28 -9 54 -2 58 -22 164 -33 175 -5 5 -6 28 -4 51 4 31 -1 57
-17 92 -13 27 -24 67 -26 90 -1 22 -14 62 -28 88 -14 27 -24 51 -23 55 32 63
39 87 33 124 -4 23 -11 46 -16 52 -5 6 -12 38 -16 71 -3 32 -18 83 -31 112
-25 51 -25 53 -7 73 11 12 13 19 5 17 -23 -6 -49 45 -56 110 -4 40 -3 62 3 58
14 -8 35 21 28 39 -3 8 -11 15 -18 15 -7 0 -21 12 -31 26 -16 21 -17 31 -8 75
15 70 14 109 -4 115 -11 4 -13 14 -9 33 21 90 10 131 -36 131 -26 0 -59 70
-47 98 9 20 42 39 60 34 11 -3 8 26 -4 33 -9 6 -8 23 7 90 5 20 -25 66 -43 67
-20 1 -31 11 -36 28 -6 22 22 35 64 31 22 -2 29 4 38 30 8 24 15 30 31 26 11
-3 20 -2 20 3 0 4 10 7 23 6 12 -1 21 -7 20 -14 -2 -7 2 -12 8 -12 5 0 7 -5 4
-11 -4 -6 -13 -8 -20 -6 -6 3 -19 -2 -27 -12 -16 -19 -8 -69 14 -86 21 -16 45
-59 59 -103 13 -46 28 -53 47 -22 7 11 20 20 30 20 28 0 40 39 26 82 -12 34
-11 38 17 69 33 38 34 40 15 103 -15 48 -13 58 16 122 7 15 5 38 -6 76 -15 54
-13 158 4 158 4 0 11 12 15 28 l8 27 8 -30 c22 -75 29 -150 16 -185 -13 -37
-8 -159 8 -184 7 -11 17 -48 20 -81 9 -77 21 -101 30 -60 4 17 11 46 17 65 15
56 25 671 12 778 -20 170 -89 135 -99 -52 -2 -43 -9 -84 -14 -89 -8 -8 -11 -5
-11 10 0 12 -6 23 -12 26 -9 3 -13 34 -13 111 0 76 -4 109 -13 115 -8 5 -16
47 -22 112 -6 57 -15 145 -20 194 -6 50 -12 110 -15 135 -4 41 -7 64 -21 140
-2 14 -6 54 -9 90 -3 36 -7 99 -10 140 -3 41 -8 86 -10 100 -3 14 -9 50 -14
80 -31 167 -84 762 -79 880 3 55 -1 70 -21 98 -18 25 -22 41 -18 70 3 20 11
83 18 140 12 98 12 103 -8 125 -12 12 -25 40 -29 62 -3 22 -10 47 -15 56 -5 9
-9 41 -10 70 -1 30 -5 59 -9 64 -11 14 -24 139 -21 203 1 34 -4 61 -14 75 -8
12 -15 32 -15 46 0 13 -7 32 -15 41 -12 13 -13 26 -7 56 5 25 4 56 -4 85 -6
26 -10 63 -8 84 2 24 -8 67 -29 124 -27 71 -32 93 -24 121 6 24 4 43 -7 69
-23 55 -28 80 -27 125 1 59 -18 146 -34 153 -20 7 -29 85 -15 128 10 31 10 39
-1 47 -11 7 -11 11 -1 15 13 5 17 53 4 53 -11 0 -32 46 -32 70 0 11 8 35 17
55 15 31 15 39 4 57 -25 40 -33 82 -35 175 -2 70 1 90 10 82 8 -7 13 -3 17 11
3 11 10 20 17 20 6 0 8 -5 4 -12 -4 -6 -3 -8 3 -5 6 4 10 29 9 57 -1 47 6 60
34 60 4 0 13 -14 20 -31 10 -24 10 -35 0 -54 -11 -20 -10 -28 4 -49 9 -14 16
-39 16 -55 0 -17 9 -51 20 -76 11 -25 29 -65 40 -90 12 -28 20 -67 20 -101 0
-30 5 -64 11 -75 6 -12 12 -54 15 -94 2 -40 10 -90 18 -112 18 -44 42 -184 60
-338 20 -163 27 -211 42 -253 9 -26 20 -90 24 -142 5 -52 13 -144 19 -205 6
-60 13 -152 15 -204 4 -65 10 -99 20 -110 9 -10 17 -26 17 -37 4 -58 19 96 24
251 4 99 11 196 16 215 29 102 20 375 -15 475 -18 52 -23 82 -36 245 -7 74
-18 162 -25 195 -7 33 -13 77 -14 98 0 21 -5 55 -11 76 -5 20 -9 55 -8 77 0
21 -5 192 -11 379 -11 294 -15 347 -32 395 -11 30 -24 71 -28 91 -4 19 -12 42
-16 49 -5 8 -8 31 -6 52 1 29 -13 67 -60 163 -33 69 -59 131 -56 139 8 20 -29
65 -51 61 -9 -1 -16 -8 -15 -14 2 -6 -2 -11 -8 -11 -6 0 -9 -6 -6 -14 3 -8 -1
-13 -11 -12 -12 1 -17 -7 -18 -24 -1 -41 -32 -96 -48 -85 -3 3 -4 2 -2 -1 3
-3 0 -17 -5 -31 -6 -17 -6 -30 1 -38 14 -16 21 -75 10 -75 -5 0 -10 6 -13 13
-3 9 -7 9 -17 1 -13 -13 -5 -54 11 -54 5 0 9 -7 9 -15 0 -8 7 -15 15 -15 12 0
32 -24 33 -40 1 -3 3 -12 5 -20 3 -8 10 -42 17 -76 11 -58 11 -62 -13 -97 -25
-36 -25 -38 -10 -90 8 -28 17 -63 20 -77 4 -14 19 -38 35 -53 15 -16 28 -33
28 -38 0 -16 -27 -39 -44 -39 -8 0 -18 -4 -21 -10 -3 -5 -11 -10 -16 -10 -6 0
-8 4 -5 8 2 4 -8 7 -22 6 -19 -1 -35 9 -56 32 -15 19 -32 31 -37 28 -5 -3 -9
0 -9 7 0 7 -6 20 -14 28 -8 9 -16 40 -18 69 -2 33 -7 52 -15 52 -14 0 -14 -1
-18 49 -2 24 -11 41 -29 54 -28 20 -33 46 -14 65 9 9 6 18 -16 41 -16 16 -39
32 -51 35 -32 8 -23 46 11 46 14 0 23 5 21 13 -1 6 4 11 11 9 8 -1 11 1 8 6
-3 5 0 23 6 40 14 36 -3 99 -36 135 -14 15 -21 35 -20 60 1 41 -11 58 -19 27
-7 -29 -24 -25 -24 6 0 16 -12 36 -32 54 -30 28 -34 62 -7 59 21 -3 36 1 35 9
-5 28 3 72 11 67 6 -3 10 5 10 18 0 14 -7 27 -15 31 -8 3 -20 17 -26 30 -10
20 -9 28 5 41 9 9 16 13 16 9 0 -5 18 11 39 35 21 24 43 41 47 39 14 -5 17 42
4 58 -15 17 -47 18 -53 2 -4 -10 -6 -9 -6 1 -1 11 -4 11 -17 0 -19 -16 -28 -4
-45 56 -12 42 2 105 28 126 7 6 13 22 13 34 0 25 -23 40 -67 44 -14 1 -15 3
-4 10 16 10 1 45 -25 55 -9 4 -14 9 -11 12 3 3 2 16 -3 29 -9 23 4 36 35 39 6
1 11 11 13 23 3 17 0 21 -12 17 -12 -5 -16 0 -16 21 0 16 -4 24 -11 19 -7 -4
-9 0 -5 14 5 15 1 27 -13 39 -27 22 -27 49 -1 65 16 10 20 24 20 70 0 44 3 58
15 58 8 0 19 -9 25 -20 16 -30 37 -25 35 8 -4 40 -34 92 -61 104 -25 12 -32
32 -14 43 6 4 4 18 -6 37 -11 21 -14 43 -10 68 5 35 4 38 -21 45 -15 3 -39 15
-55 26 l-28 20 -87 -21 c-49 -12 -108 -29 -133 -39 -25 -10 -68 -24 -97 -31
-28 -6 -59 -20 -69 -31 -9 -10 -31 -21 -48 -24 -18 -4 -53 -27 -84 -56 -28
-27 -52 -46 -52 -42 0 3 -9 -2 -19 -11 -11 -10 -32 -17 -48 -15 -35 3 -83 -10
-103 -26 -8 -7 -25 -16 -37 -19 -13 -4 -36 -20 -51 -36 -34 -34 -77 -47 -202
-61 -70 -8 -100 -16 -112 -29 -10 -11 -18 -24 -18 -29 0 -24 -50 -43 -110 -42
-34 0 -70 -5 -81 -12 -31 -19 -66 27 -60 79 0 6 15 28 31 49 17 21 30 47 30
57 0 11 9 31 20 45 28 35 28 113 0 130 -12 8 -21 9 -25 3 -4 -6 -11 -8 -16 -5
-5 4 -9 1 -9 -6 0 -8 -20 -10 -73 -5 -56 5 -77 3 -92 -9 -29 -21 -108 -19
-128 3 -10 10 -17 24 -17 31 0 7 -5 9 -10 6 -6 -4 -7 -11 -4 -17 4 -6 2 -8 -4
-4 -6 3 -13 2 -17 -4 -9 -15 -53 -12 -62 3 -13 22 -53 27 -78 11 -20 -13 -23
-13 -28 0 -3 8 -20 17 -38 21 -17 4 -47 22 -66 41 -57 57 -120 44 -114 -23 3
-27 -15 -31 -22 -5 -4 16 -5 16 -6 -1 0 -10 -7 -17 -13 -16 -31 4 -48 -2 -48
-16 0 -8 -5 -15 -11 -15 -5 0 -7 -4 -4 -10 3 -5 3 -10 -2 -10 -4 0 -16 15 -26
32 -17 30 -18 33 -1 45 9 7 22 9 28 6 6 -4 5 1 -3 10 -14 18 -41 23 -41 9 0
-16 -35 -9 -56 10 -13 12 -24 16 -28 9 -4 -5 -24 -10 -45 -9 -31 0 -43 6 -60
29 -12 16 -28 29 -35 29 -8 0 -16 4 -18 9 -11 31 -165 193 -189 199 -8 2 -27
6 -44 8 -16 2 -34 10 -40 17 -13 18 -62 30 -70 17 -4 -6 -10 -8 -14 -6 -13 8
-34 -12 -38 -35 -5 -36 -19 -43 -44 -26 -14 10 -33 14 -51 10 -16 -3 -39 -1
-51 4 -12 6 -40 16 -62 23 -22 7 -48 19 -57 27 -9 8 -21 12 -27 9 -19 -12 -52
32 -45 59 3 14 11 22 16 19 6 -4 5 3 -2 15 -6 12 -19 24 -28 27 -9 3 -31 12
-48 20 -17 9 -39 17 -50 18 -11 2 -20 12 -22 27 -6 38 -22 50 -64 47 -26 -1
-43 -9 -55 -25 -23 -29 -30 -29 -73 8 -31 26 -35 35 -36 81 -1 31 -7 54 -14
56 -7 3 -10 0 -6 -6 3 -5 -5 -13 -19 -16 -14 -4 -25 -11 -25 -16 0 -6 -4 -10
-10 -10 -5 0 -10 9 -10 20 0 11 -7 23 -15 26 -8 4 -12 11 -9 16 10 16 -18 28
-39 17 -14 -8 -23 -6 -37 6 -12 11 -38 18 -67 19 -51 1 -66 11 -57 38 4 15 -2
17 -44 16 -33 -2 -48 -6 -45 -14 7 -18 -38 -24 -136 -18 -80 6 -91 4 -91 -10
0 -9 -5 -16 -11 -16 -5 0 -7 -4 -4 -10 3 -5 2 -10 -4 -10 -14 0 -26 23 -14 27
18 6 2 43 -17 43 -10 0 -25 7 -33 15 -16 16 -65 31 -86 26 -8 -1 -21 5 -28 15
-7 10 -25 17 -44 16 -22 0 -29 3 -25 13 5 14 -3 16 -66 16 -27 0 -39 5 -43 18
-6 19 -55 27 -55 10 0 -5 -12 -9 -27 -9 -34 0 -60 -15 -44 -24 6 -4 11 -2 11
5 0 7 3 9 6 6 4 -4 1 -14 -7 -24 -12 -15 -12 -16 4 -10 10 4 16 3 13 -2 -3 -4
-26 -14 -51 -21 -25 -7 -45 -16 -45 -19 0 -12 -54 -27 -105 -29 -34 -2 -63 4
-90 18 -23 12 -41 16 -43 10 -5 -15 -22 -12 -22 4 0 7 -11 16 -25 18 -14 3
-25 1 -25 -4 0 -6 -6 -8 -14 -5 -8 3 -26 -3 -39 -14 -14 -10 -28 -19 -32 -19
-4 0 -18 -11 -31 -25 -13 -14 -20 -25 -17 -25 3 0 1 -6 -5 -13 -8 -10 -3 -23
23 -52 36 -40 43 -55 24 -55 -6 0 -9 -6 -6 -13 4 -10 -4 -14 -26 -13 -28 1
-34 6 -45 41 -9 28 -19 41 -32 42 -11 1 -22 -2 -25 -7 -3 -5 -19 -4 -35 2 -21
7 -39 7 -60 -1 -20 -6 -30 -7 -30 0 0 6 -4 8 -9 5 -5 -3 -21 4 -35 15 -33 26
-32 62 2 67 12 2 28 12 35 23 6 10 19 19 27 20 32 1 87 89 82 130 -1 4 10 10
23 13 18 5 26 15 30 40 6 27 15 37 53 56 26 13 50 28 54 33 3 6 4 34 1 63 -3
29 -3 60 1 69 5 15 9 14 36 -5 25 -18 33 -19 52 -8 13 7 26 11 31 10 4 -1 7 7
7 18 0 11 -4 20 -10 20 -5 0 -10 7 -10 15 0 9 -6 12 -15 9 -8 -4 -22 -3 -30 0
-13 5 -14 10 -4 28 7 13 19 28 26 33 16 12 8 45 -11 46 -6 0 -1 4 11 9 21 9
22 15 19 79 -3 63 -6 72 -35 101 -27 28 -31 38 -26 67 4 28 2 36 -14 40 -12 3
-17 11 -14 23 3 12 -4 28 -19 42 -14 13 -33 35 -43 51 -9 15 -26 27 -37 27
-10 0 -16 4 -13 10 3 6 -1 7 -9 4 -9 -3 -16 -1 -16 6 0 6 -4 9 -9 5 -5 -3 -12
-1 -16 5 -3 5 -1 10 5 10 13 0 -16 59 -33 66 -7 2 -26 6 -44 8 -19 2 -52 21
-85 48 -29 25 -59 43 -65 41 -7 -3 -13 2 -13 11 0 9 -5 16 -11 16 -5 0 -8 4
-4 9 7 13 -45 52 -58 44 -6 -4 -8 0 -4 11 4 10 2 16 -6 15 -6 -1 -21 2 -32 5
-11 4 -24 6 -30 5 -5 -2 -12 10 -15 26 -4 23 -12 31 -39 37 -18 5 -41 6 -50 2
-9 -4 -19 -6 -23 -6 -5 1 -8 -2 -8 -8 0 -5 -18 -10 -41 -10 -28 0 -38 -4 -33
-12 5 -8 0 -9 -15 -5 -14 3 -24 0 -28 -9 -3 -8 -11 -14 -19 -14 -7 0 -16 -11
-20 -25 -3 -13 -15 -27 -25 -30 -11 -4 -17 -11 -14 -16 4 -5 2 -9 -4 -9 -18 0
-23 -39 -7 -56 18 -17 20 -42 7 -62 -5 -8 -30 -14 -62 -16 l-54 -2 0 -45 c0
-30 -6 -51 -18 -63 -23 -24 -18 -39 19 -51 28 -9 30 -12 22 -43 -5 -18 -13
-30 -18 -27 -6 4 -13 -1 -16 -9 -5 -14 -8 -14 -29 0 -22 14 -24 14 -30 -5 -3
-12 -12 -21 -20 -21 -7 0 -15 -9 -18 -20 -3 -12 0 -20 7 -20 20 0 37 -37 27
-63 -5 -13 -9 -32 -8 -43 2 -15 -6 -20 -35 -22 -20 -2 -38 -9 -41 -15 -5 -14
36 -67 51 -67 5 0 15 -14 22 -31 11 -26 11 -33 -3 -46 -10 -10 -22 -13 -34 -8
-10 5 -21 8 -25 7 -4 -1 -15 8 -25 21 -10 12 -24 22 -30 23 -7 1 -31 2 -53 3
-40 1 -58 21 -20 21 11 0 20 4 20 9 0 14 -29 21 -36 9 -5 -8 -10 -5 -16 8 -6
14 -7 11 -5 -13 3 -26 0 -33 -14 -33 -10 0 -22 -7 -27 -17 -9 -15 -27 -20 -79
-22 -16 -1 -23 -7 -23 -20 0 -11 -8 -22 -18 -25 -11 -4 -25 -19 -33 -34 -8
-15 -21 -32 -29 -39 -13 -10 -11 -16 14 -42 22 -23 27 -36 22 -55 -12 -48 -72
-36 -102 20 -20 38 -39 43 -52 17 -10 -19 -8 -157 4 -288 4 -44 8 -132 9 -195
1 -63 2 -155 4 -205 3 -130 5 -124 -24 -119 -13 2 -37 9 -52 15 -16 6 -39 13
-53 15 -40 7 -68 25 -74 47 -3 12 -8 18 -12 15 -3 -4 -15 2 -27 12 -15 14 -31
18 -66 16 -25 -2 -50 -4 -56 -6 -28 -7 -50 4 -96 50 -61 61 -82 72 -130 72
-21 -1 -41 3 -44 7 -2 5 -26 14 -52 21 -27 8 -52 20 -56 27 -9 15 -46 32 -85
39 -13 3 -42 17 -65 31 -23 14 -48 26 -55 26 -7 0 -11 5 -9 11 4 12 -21 35
-39 36 -6 0 -21 -23 -34 -50 -22 -47 -25 -49 -45 -36 -17 12 -25 12 -46 1 -28
-16 -129 -18 -129 -4 0 6 -11 25 -25 43 -14 18 -25 38 -25 45 0 6 -6 11 -12 9
-23 -4 -113 13 -126 25 -7 5 -35 9 -61 8 -43 -1 -54 3 -92 35 -32 26 -48 34
-63 28 -38 -13 -150 -4 -168 14 -7 7 -20 12 -29 12 -10 0 -21 5 -24 10 -9 15
-42 12 -49 -5 -3 -8 -21 -23 -41 -32 -27 -13 -34 -21 -29 -36 5 -16 1 -18 -28
-15 -18 1 -46 14 -62 28 -66 56 -148 147 -162 180 -8 19 -26 47 -40 61 -14 15
-27 37 -29 50 -4 32 -35 123 -45 129 -4 3 -15 19 -24 37 -9 18 -25 37 -37 43
-17 9 -19 18 -15 58 3 26 8 57 12 70 4 16 2 22 -9 22 -8 0 -20 7 -27 15 -7 9
-15 13 -18 11 -2 -3 -21 23 -42 57 -72 118 -98 106 -149 -71 -12 -40 -36 -96
-53 -125 -57 -96 -70 -138 -78 -242 -5 -55 -23 -161 -40 -235 -49 -206 -201
-750 -281 -1008 -16 -51 -29 -98 -29 -106 0 -7 -9 -42 -21 -77 -26 -84 -78
-273 -163 -594 -18 -71 -43 -161 -54 -200 -11 -38 -24 -90 -30 -115 -6 -25
-52 -209 -101 -410 -50 -201 -97 -401 -106 -445 -9 -44 -21 -93 -26 -110 -13
-45 -60 -262 -69 -325 -5 -30 -13 -80 -19 -110 -6 -30 -17 -92 -25 -137 -8
-46 -22 -111 -30 -145 -14 -60 -35 -170 -55 -288 -27 -156 -43 -244 -60 -330
-21 -99 -91 -494 -117 -660 -8 -52 -19 -117 -24 -145 -5 -27 -21 -122 -34
-210 -14 -88 -45 -284 -70 -435 -51 -312 -85 -554 -121 -850 -8 -69 -24 -179
-35 -245 -10 -66 -26 -178 -36 -250 -9 -71 -29 -211 -45 -310 -16 -99 -33
-223 -39 -275 -10 -89 -24 -191 -50 -355 -17 -112 -40 -271 -55 -395 -8 -63
-19 -144 -25 -180 -5 -36 -17 -132 -25 -215 -19 -195 -54 -413 -71 -447 -30
-58 -91 -40 -125 36 -34 78 -79 286 -104 486 -5 45 -17 171 -35 375 -9 102
-40 519 -40 539 0 4 -16 23 -35 40 l-35 32 15 85 c19 105 19 124 0 142 -8 8
-11 17 -8 21 4 3 1 6 -5 6 -19 0 -14 54 14 137 25 75 25 83 19 238 -7 169 -11
208 -44 425 -11 74 -25 223 -31 330 -6 107 -13 201 -15 208 -3 7 -9 252 -15
545 -19 1067 -19 1068 -81 1061 -36 -4 -37 9 -8 98 13 41 23 109 29 199 5 75
14 158 21 185 33 139 105 379 164 549 14 39 34 104 45 145 41 154 79 277 110
355 17 44 51 134 74 200 24 66 59 154 78 196 20 42 41 93 48 114 7 21 28 68
47 103 19 36 43 86 53 111 10 25 39 90 64 143 25 53 52 122 61 152 9 31 57
149 107 263 49 115 96 225 104 247 8 21 27 64 43 96 16 32 43 98 60 147 16 49
46 120 67 158 56 101 105 244 93 267 -14 26 -155 137 -184 144 -36 9 -65 -4
-65 -30 0 -12 -7 -49 -15 -81 -15 -55 -15 -63 1 -98 15 -32 16 -44 6 -71 -7
-18 -12 -40 -12 -49 0 -18 -29 -37 -58 -37 -10 0 -25 -11 -32 -25 -7 -13 -24
-28 -38 -33 -22 -7 -26 -15 -27 -55 -3 -59 -22 -107 -44 -107 -43 -1 -44 -17
-2 -55 32 -29 41 -45 41 -69 0 -60 -44 -75 -82 -27 -13 16 -52 43 -88 61 -79
39 -110 66 -110 96 0 25 17 34 65 34 l33 0 -11 35 c-15 49 11 103 53 111 39 8
38 16 -5 48 -58 44 -41 79 35 73 22 -2 25 2 22 25 -1 15 9 50 23 78 23 45 29
50 58 50 18 0 39 -6 46 -12 11 -11 12 -9 3 8 -6 11 -18 26 -26 34 -36 29 -13
94 40 116 19 8 34 19 34 24 0 5 -11 35 -25 67 -31 69 -109 153 -142 153 -27 0
-54 -53 -150 -295 -31 -77 -62 -149 -70 -161 -7 -11 -24 -52 -37 -90 -13 -38
-42 -108 -65 -155 -22 -47 -41 -89 -41 -93 0 -4 -23 -60 -51 -124 -50 -115
-109 -263 -203 -512 -26 -69 -65 -165 -86 -215 -21 -49 -51 -121 -66 -160 -15
-38 -41 -101 -59 -140 -18 -38 -35 -83 -39 -100 -13 -53 -33 -75 -70 -75 -46
0 -92 54 -133 157 -48 122 -114 300 -144 389 -34 102 -44 122 -84 159 -22 21
-35 44 -40 72 -3 23 -16 52 -29 66 -21 22 -22 29 -16 153 4 97 10 137 23 162
10 18 26 66 37 105 37 145 155 388 251 517 27 36 79 118 116 184 36 65 87 141
112 168 25 27 63 75 84 106 21 32 57 80 79 109 22 29 55 84 74 124 19 39 43
83 54 96 43 55 33 69 -175 257 -133 121 -194 166 -222 166 -14 0 -60 -15 -104
-34 -43 -19 -93 -38 -111 -41 -18 -4 -66 -21 -106 -37 -41 -16 -104 -35 -140
-42 -59 -12 -163 -45 -407 -129 -92 -32 -282 -54 -333 -39 -67 20 -96 63 -145
212 -98 298 -99 373 -1 450 24 19 47 43 50 52 7 23 -17 58 -40 58 -17 0 -149
-92 -231 -160 -78 -65 -209 -199 -230 -235 -44 -76 -42 -92 18 -172 81 -106
179 -356 192 -488 3 -38 10 -88 15 -110 5 -22 14 -76 20 -120 6 -44 15 -100
20 -125 5 -25 14 -81 20 -125 15 -101 68 -321 86 -357 8 -15 29 -38 46 -51 59
-43 426 -233 577 -298 111 -48 141 -66 141 -85 0 -20 -26 -18 -159 12 -80 18
-130 35 -160 55 -25 16 -48 29 -53 29 -5 0 -42 20 -82 44 -40 24 -93 50 -117
57 -24 7 -53 19 -64 26 -24 16 -55 17 -55 2 0 -6 17 -27 38 -46 33 -31 98 -66
247 -133 53 -24 125 -76 125 -91 0 -5 -20 -9 -45 -9 -48 0 -167 38 -279 89
-38 17 -73 28 -78 23 -4 -4 -4 -51 1 -104 7 -81 12 -104 34 -136 32 -45 33
-69 10 -143 -14 -43 -17 -79 -13 -179 9 -276 3 -396 -29 -535 -16 -71 -43
-177 -60 -235 -25 -89 -66 -281 -110 -520 -6 -30 -14 -94 -17 -142 -7 -83 -6
-87 12 -82 13 3 28 27 44 67 13 34 28 71 34 82 5 11 11 25 11 30 1 6 5 19 9
30 28 73 35 93 41 119 3 17 14 41 24 55 10 14 23 55 29 90 6 35 18 71 25 80 8
9 22 42 31 75 20 68 50 119 96 161 18 17 30 24 26 18 -4 -7 -3 -13 3 -13 6 0
2 -24 -9 -55 -10 -30 -17 -55 -14 -55 3 0 -6 -21 -20 -47 -27 -53 -43 -104
-45 -145 -2 -56 29 -40 74 37 61 107 143 215 162 215 7 0 10 7 6 16 -6 15 29
53 50 54 15 0 6 -47 -13 -68 -11 -12 -20 -24 -20 -28 0 -4 -16 -31 -35 -60
-19 -29 -35 -55 -35 -59 0 -4 -8 -19 -19 -33 -28 -41 -91 -161 -91 -175 0 -6
-27 -67 -60 -134 -33 -67 -63 -135 -66 -150 -4 -15 -13 -37 -20 -48 -7 -11
-20 -47 -29 -80 -10 -33 -21 -64 -25 -70 -4 -5 -24 -55 -44 -110 -21 -55 -43
-111 -51 -125 -7 -14 -21 -46 -30 -72 -9 -25 -23 -52 -31 -58 -7 -7 -14 -20
-14 -29 0 -10 -24 -91 -54 -182 -72 -219 -84 -288 -106 -614 -23 -335 -51
-683 -60 -740 -5 -33 -16 -127 -24 -210 -9 -82 -18 -172 -21 -200 -33 -314
-40 -355 -65 -355 -15 0 -40 94 -39 152 1 31 -2 61 -5 66 -8 14 -36 287 -47
477 -6 94 -14 222 -19 285 -14 173 -31 461 -34 585 -3 106 -20 185 -41 192
-28 9 -47 -24 -52 -88 -5 -61 -4 -65 26 -96 17 -18 31 -37 31 -42 0 -5 -16
-21 -35 -35 -46 -36 -77 -97 -70 -139 11 -69 14 -248 4 -274 -7 -20 -6 -36 6
-65 8 -21 15 -64 15 -96 -1 -67 25 -147 63 -191 33 -39 33 -53 6 -98 -23 -37
-28 -96 -9 -118 8 -10 10 -29 5 -57 -3 -24 -6 -71 -5 -106 1 -35 -4 -70 -10
-77 -9 -11 -8 -31 4 -85 15 -63 15 -73 1 -99 -32 -63 -138 -62 -171 1 -17 33
-13 118 8 164 9 19 8 28 -7 44 -21 23 -48 233 -44 345 3 97 3 99 -16 205 -17
100 -15 145 12 196 16 30 15 33 -8 65 -23 32 -24 42 -24 189 0 85 3 182 6 215
16 135 21 169 30 192 5 13 9 42 9 64 0 22 7 54 16 71 10 20 14 45 11 70 -3 21
-3 47 0 58 7 26 53 50 123 65 56 11 69 26 56 61 -5 13 -14 11 -54 -12 -82 -46
-141 -14 -143 79 -3 108 3 183 17 216 13 31 12 37 -6 67 -14 22 -20 48 -19 76
1 24 -3 54 -9 68 -12 30 -17 129 -13 255 2 79 5 92 24 107 34 26 96 38 141 28
22 -5 44 -7 48 -4 20 12 1 94 -22 94 -5 0 -26 -11 -47 -25 -51 -35 -107 -32
-137 8 l-21 28 22 39 c21 35 21 39 6 52 -22 18 -44 73 -37 92 3 8 1 30 -5 49
-7 21 -13 170 -17 393 -3 197 -7 409 -10 469 -3 61 -4 130 -4 155 1 25 1 80 0
123 0 74 1 80 29 108 34 33 75 38 121 14 75 -39 65 -143 -11 -116 -22 8 -37 8
-51 0 -27 -15 -10 -31 36 -34 19 -1 47 -11 62 -23 26 -19 27 -22 15 -48 -7
-16 -22 -55 -33 -87 -16 -49 -17 -64 -7 -94 11 -35 15 -138 9 -271 -2 -65 0
-75 20 -97 13 -14 32 -25 42 -25 17 0 18 12 19 168 1 92 0 172 -1 177 -1 6 -4
188 -6 405 -5 526 -23 1140 -38 1325 -8 98 -10 198 -5 289 8 137 7 156 -11
156 -16 0 -81 -77 -150 -179 -39 -57 -105 -147 -148 -200 -83 -103 -120 -154
-172 -241 -71 -118 -71 -118 -71 -286 0 -86 3 -159 6 -164 5 -8 22 -209 31
-360 5 -95 24 -321 35 -430 5 -53 14 -168 20 -255 6 -88 14 -212 19 -275 4
-63 13 -205 19 -315 6 -110 13 -211 16 -225 2 -14 12 -117 20 -230 9 -113 20
-252 25 -310 5 -58 16 -186 25 -285 9 -99 24 -238 34 -310 19 -136 17 -263 -8
-470 -27 -218 -32 -316 -32 -575 0 -180 5 -330 15 -435 9 -88 21 -230 27 -315
5 -85 14 -191 19 -235 17 -158 42 -362 55 -468 26 -201 44 -401 55 -592 14
-264 44 -594 60 -655 16 -63 50 -350 64 -555 8 -110 15 -319 15 -465 0 -392
12 -536 62 -712 107 -384 117 -447 100 -648 -6 -74 -15 -169 -20 -210 -11 -81
-33 -599 -32 -719 1 -40 6 -94 12 -119 12 -54 111 -252 138 -276 21 -19 128
-25 207 -11 53 9 109 -9 131 -41 9 -14 19 -57 23 -97 4 -40 13 -117 19 -172
47 -431 46 -415 30 -443 -22 -40 -74 -62 -146 -62 -66 0 -76 -6 -43 -30 37
-27 35 -110 -2 -110 -17 0 -68 61 -68 80 0 10 7 26 16 35 21 21 4 42 -41 51
-46 8 -79 -16 -111 -82 -29 -59 -29 -86 1 -164 18 -48 19 -32 -20 -331 -17
-123 -17 -143 -4 -205 13 -59 19 -70 41 -78 14 -5 37 -6 52 -2 26 6 26 8 20
56 -5 36 -3 55 7 66 10 12 14 48 15 118 1 56 6 118 13 139 10 29 10 44 0 71
-25 70 6 88 102 57 87 -28 102 -50 61 -89 -24 -22 -29 -36 -31 -82 -2 -30 -10
-67 -19 -83 -17 -27 -16 -28 16 -53 40 -32 40 -49 2 -69 l-30 -16 16 -37 c9
-20 18 -42 21 -49 11 -27 120 -44 153 -23 13 8 12 15 -9 54 -22 43 -23 51 -16
169 4 69 12 135 19 148 8 17 26 28 61 36 104 26 124 71 85 188 -43 128 -22
145 207 176 81 11 200 27 263 35 183 24 229 34 266 56 33 19 36 19 77 3 32
-13 57 -15 104 -10 36 4 69 2 81 -4 10 -5 59 -15 108 -21 107 -13 160 -39 190
-94 20 -36 22 -56 28 -325 3 -157 8 -321 11 -364 5 -86 0 -104 -49 -155 l-31
-33 2 -542 2 -542 39 -35 c78 -70 75 -55 86 -429 5 -185 6 -353 2 -374 -17
-89 -111 -132 -326 -148 -172 -12 -1667 2 -1691 16 -3 2 -51 9 -107 14 -188
20 -237 72 -281 298 l-18 92 48 63 c45 61 47 66 39 104 -7 29 -5 50 7 81 11
30 13 55 8 85 -4 24 -7 56 -6 72 0 16 -11 43 -25 62 -19 25 -25 41 -21 61 22
101 25 91 -36 118 -31 13 -61 33 -66 44 -10 17 -16 328 -11 558 0 39 -4 89 -9
110 -13 47 0 102 29 128 43 39 58 94 56 206 -2 71 -7 113 -18 133 -12 23 -13
38 -5 67 11 46 0 65 -50 86 -54 22 -62 44 -65 184 -3 115 -1 129 17 149 17 19
20 35 19 104 -1 44 -9 108 -18 141 -12 42 -18 115 -21 240 -3 99 -9 227 -15
285 -5 58 -12 157 -15 220 -18 399 -26 506 -56 745 -5 44 -16 148 -23 232 -8
83 -16 155 -19 160 -3 4 -8 49 -11 98 -4 50 -11 131 -16 180 -5 50 -12 124
-15 165 -6 77 -24 240 -50 460 -14 111 -52 562 -75 865 -4 61 -14 178 -20 260
-13 165 -10 211 20 329 24 93 25 193 5 321 -36 229 -58 455 -75 765 -5 85 -11
175 -14 200 -3 25 -8 122 -11 215 -3 94 -8 186 -10 205 -2 19 -6 112 -10 205
-3 94 -8 186 -10 205 -2 19 -8 103 -14 185 -7 83 -16 209 -22 280 -6 72 -12
186 -15 255 -3 69 -7 139 -10 155 -3 17 -7 363 -10 770 -4 730 1 994 36 1640
5 110 15 297 20 415 6 118 13 229 15 245 3 17 7 77 10 135 3 58 7 129 10 158
3 30 8 97 11 150 3 54 9 151 14 216 4 66 6 126 3 133 -8 21 19 255 32 283 7
14 15 43 18 66 3 22 16 65 28 95 12 30 24 73 26 95 4 39 2 44 -34 73 -22 18
-50 50 -63 73 -21 37 -22 48 -16 132 4 50 15 127 26 171 23 95 44 210 60 320
7 44 18 112 26 152 8 40 14 91 14 115 0 24 11 113 24 198 13 85 27 189 30 230
4 41 13 120 21 175 55 377 56 387 51 948 -4 526 -6 557 -37 557 -5 0 -37 -30
-72 -66z m-1154 -1420 c-5 -14 0 -16 30 -12 28 3 37 0 38 -12 5 -42 3 -57 -5
-77 -6 -15 -5 -27 4 -38 11 -13 9 -15 -13 -15 -14 0 -29 -4 -32 -10 -7 -11
-84 -14 -109 -4 -9 3 -16 11 -16 16 0 6 -10 19 -22 30 -17 14 -23 16 -30 6 -6
-10 -8 -10 -8 -1 0 19 -27 4 -33 -18 -7 -25 -27 -25 -27 1 0 11 7 20 15 20 19
0 19 19 -1 41 -19 21 -7 30 23 18 15 -5 21 -14 17 -24 -4 -10 0 -15 10 -15 9
0 16 7 16 15 0 13 4 14 21 4 20 -10 21 -9 16 10 -3 12 0 19 6 18 6 -1 16 8 22
21 6 15 18 22 37 22 15 0 30 5 33 10 10 16 15 12 8 -6z m3883 -807 c110 -75
157 -124 70 -73 -26 15 -82 46 -124 68 -89 47 -97 52 -88 67 13 20 34 11 142
-62z m-5116 -272 c0 -8 5 -15 10 -15 6 0 10 -4 10 -10 0 -5 -16 -2 -35 7 -36
17 -38 33 -4 33 10 0 19 -7 19 -15z m11897 -95 l23 -44 -28 -12 c-21 -9 -33
-8 -55 3 -16 8 -26 17 -23 20 3 3 1 14 -5 24 -7 14 -5 23 11 39 30 30 52 22
77 -30z m-2242 8 c4 -4 4 -16 0 -27 -5 -17 -10 -19 -26 -10 -11 6 -30 12 -41
14 -26 5 -32 11 -24 24 7 11 80 10 91 -1z m-6828 -160 c6 -7 22 -36 38 -65
l27 -52 -22 -55 -23 -54 26 -32 c31 -36 34 -62 11 -81 -14 -11 -16 -27 -11
-91 3 -43 0 -93 -5 -112 -13 -40 12 -133 47 -175 34 -41 35 -55 8 -122 -25
-60 -25 -68 -14 -132 6 -38 21 -91 32 -117 26 -60 16 -83 -44 -111 -57 -25
-93 -24 -121 4 -20 21 -25 38 -31 120 -4 53 -5 103 -1 112 3 8 0 28 -6 43 -12
29 -28 161 -33 277 -2 39 -8 102 -15 140 -6 39 -12 126 -13 196 l-2 125 44 85
c42 83 63 109 87 109 6 0 16 -6 21 -12z m11143 -8 c0 -11 -4 -20 -10 -20 -5 0
-10 9 -10 20 0 11 5 20 10 20 6 0 10 -9 10 -20z m-2230 -60 c0 -5 -5 -10 -11
-10 -5 0 -7 5 -4 10 3 6 8 10 11 10 2 0 4 -4 4 -10z m-5826 -1085 c77 -52 96
-69 111 -102 27 -55 16 -66 -59 -59 -34 3 -78 8 -97 12 l-34 5 22 -18 c12 -10
34 -26 48 -36 34 -24 32 -54 -5 -75 -20 -11 -28 -22 -24 -32 19 -42 16 -66 -9
-77 -22 -10 -25 -16 -20 -52 5 -33 1 -44 -20 -65 -22 -22 -31 -25 -75 -19 -66
7 -72 -7 -23 -59 23 -23 41 -48 41 -55 0 -7 -15 -16 -32 -21 l-33 -8 0 -75 c0
-41 -4 -80 -8 -86 -5 -7 -22 -13 -38 -13 -39 0 -46 -21 -20 -63 36 -59 31 -68
-51 -82 -45 -7 -46 -14 -13 -45 28 -26 33 -65 10 -74 -12 -4 -14 -14 -9 -41 4
-24 1 -42 -9 -59 -9 -12 -17 -38 -19 -56 -3 -29 -8 -35 -37 -42 -28 -8 -32
-12 -26 -31 3 -12 9 -43 12 -69 5 -43 3 -50 -25 -78 -23 -23 -39 -30 -69 -30
-58 0 -156 37 -188 70 -25 26 -27 34 -19 58 5 15 22 33 37 40 30 14 31 19 18
56 -12 29 3 46 46 50 18 2 29 10 32 22 2 10 12 31 22 46 11 14 19 33 19 41 0
8 9 25 19 38 19 23 19 24 -6 53 -36 43 -27 60 32 66 46 5 50 7 47 29 -2 14 5
32 18 46 16 17 21 31 16 49 -5 19 0 29 19 45 20 15 24 25 19 45 -4 18 2 44 22
84 15 31 27 69 26 84 -1 16 11 55 28 88 16 33 30 64 30 70 0 6 9 30 20 52 l20
42 -21 34 c-25 44 -19 60 23 64 34 3 35 6 24 44 -11 35 19 56 71 52 23 -2 43
-3 43 -2 0 0 -7 16 -16 34 l-17 33 33 27 c22 18 31 33 27 43 -5 14 4 24 24 26
3 1 23 -10 43 -24z m124 13 c20 -20 14 -38 -13 -38 -24 0 -51 31 -38 44 10 10
38 7 51 -6z m3609 -198 c6 0 24 -13 39 -29 16 -16 52 -48 79 -71 141 -120 335
-328 335 -361 0 -13 -31 -11 -57 4 -30 16 -106 83 -156 136 -87 91 -132 140
-148 158 -9 10 -44 45 -78 77 -48 47 -61 65 -61 89 0 29 1 29 18 14 10 -10 23
-17 29 -17z m-5479 -701 c-7 -13 -25 -38 -40 -56 -15 -18 -34 -47 -43 -65 -21
-44 -36 -63 -60 -76 -18 -9 -21 -7 -23 15 -1 18 11 40 40 73 55 60 78 89 78
97 0 4 10 17 22 30 27 29 45 16 26 -18z m13639 -31 c-3 -8 -6 -5 -6 6 -1 11 2
17 5 13 3 -3 4 -12 1 -19z m-12457 -648 c22 -11 47 -31 55 -43 13 -21 13 -29
0 -75 -18 -58 -36 -72 -94 -72 -23 0 -41 -3 -41 -6 0 -3 13 -16 29 -30 36 -30
43 -55 25 -90 -8 -14 -14 -39 -14 -54 0 -16 -11 -38 -27 -55 -20 -19 -27 -35
-24 -56 1 -17 -4 -40 -12 -52 -8 -12 -18 -37 -21 -55 -4 -17 -17 -38 -28 -46
-16 -11 -19 -22 -15 -44 4 -20 -1 -42 -15 -68 -12 -22 -25 -57 -29 -79 -8 -41
-28 -100 -43 -123 -6 -10 -24 -12 -72 -7 -80 9 -84 -4 -19 -58 49 -41 53 -52
29 -78 -9 -10 -17 -41 -19 -77 -3 -61 -17 -101 -41 -115 -8 -4 -14 -23 -14
-41 0 -19 -7 -39 -15 -46 -8 -7 -15 -29 -15 -50 0 -21 -7 -43 -15 -50 -8 -7
-15 -22 -15 -34 0 -35 -28 -115 -49 -142 -14 -18 -18 -34 -15 -53 5 -22 0 -33
-22 -50 -33 -26 -57 -85 -49 -124 7 -43 -26 -53 -105 -33 -82 21 -128 44 -147
72 -19 29 -10 56 27 88 25 20 29 31 28 70 -1 60 14 76 69 76 44 0 45 0 38 29
-4 18 1 52 11 85 18 56 18 56 -5 80 -33 35 -25 68 19 81 19 5 53 28 76 50 35
35 39 43 31 65 -15 41 8 107 44 126 29 15 30 16 15 39 -21 33 -20 43 10 82 19
25 27 51 33 103 5 52 13 76 30 94 17 18 22 34 20 63 -2 21 0 57 5 80 5 30 3
49 -8 70 -18 35 -10 51 36 72 46 22 76 80 62 118 -14 37 -8 50 27 68 23 12 29
22 29 48 0 17 14 56 30 86 17 30 30 67 30 82 0 39 18 75 44 87 34 17 94 13
136 -8z m-739 -1986 c30 -9 62 -23 72 -32 19 -17 23 -47 7 -57 -5 -3 -10 -23
-10 -44 0 -23 -8 -48 -20 -64 -11 -14 -20 -39 -20 -56 0 -35 -15 -46 -82 -55
-59 -9 -66 -19 -32 -48 47 -41 54 -49 54 -69 0 -11 -11 -24 -24 -31 -23 -10
-24 -15 -19 -59 7 -57 -9 -101 -43 -124 -19 -12 -22 -21 -18 -44 5 -24 1 -35
-22 -58 -23 -23 -29 -37 -29 -73 0 -44 -1 -45 -33 -48 -78 -8 -202 53 -202
100 0 9 15 34 32 54 24 27 32 45 29 65 -2 25 1 29 22 29 45 0 57 10 57 46 0
34 34 119 51 130 5 3 9 25 9 48 0 24 6 59 14 77 7 19 12 53 9 76 -2 23 1 52 7
63 8 15 8 30 -1 55 -14 38 -1 65 31 65 10 0 37 16 60 35 23 19 43 35 44 35 1
0 27 -7 57 -16z m-307 -939 c56 -17 86 -40 86 -66 0 -25 -16 -32 -72 -30 -44
1 -48 -1 -48 -22 0 -15 10 -29 30 -40 40 -24 49 -61 21 -91 -11 -12 -21 -35
-21 -52 0 -43 -25 -106 -49 -125 -16 -13 -19 -24 -15 -47 5 -24 1 -33 -18 -46
-14 -10 -23 -26 -23 -44 0 -19 -8 -30 -28 -40 -21 -10 -27 -18 -21 -30 15 -37
15 -68 0 -81 -9 -8 -16 -21 -16 -30 0 -10 -11 -28 -25 -41 -20 -19 -24 -30
-19 -53 4 -21 -1 -38 -22 -68 -32 -47 -50 -58 -83 -53 -55 9 -68 49 -21 65 35
13 35 12 14 44 -16 24 -15 25 11 35 14 5 31 10 36 10 13 0 12 5 -16 46 -14 20
-25 43 -25 51 0 8 -9 28 -21 44 -27 38 -21 63 15 69 34 6 43 22 21 40 -28 23
-18 47 23 57 26 6 41 17 50 37 8 15 27 32 43 38 33 11 36 20 14 38 -10 8 -15
30 -15 63 0 41 5 56 25 77 23 24 24 30 14 53 -10 21 -8 33 11 72 17 36 21 55
15 90 l-6 45 43 0 c24 0 65 -7 92 -15z m-1200 -225 c14 -5 33 -21 42 -35 14
-22 15 -29 4 -50 -10 -19 -11 -30 -2 -50 18 -39 15 -57 -13 -80 -26 -20 -26
-20 -16 -107 6 -48 16 -100 24 -114 13 -24 12 -32 -4 -70 -25 -54 -40 -204
-27 -252 6 -20 8 -59 4 -86 -3 -32 0 -66 10 -96 14 -43 14 -51 1 -77 -13 -24
-13 -32 -1 -53 7 -14 13 -48 14 -76 0 -35 5 -56 16 -65 12 -10 15 -24 11 -53
-4 -30 -1 -49 13 -71 17 -28 18 -34 4 -59 -11 -23 -12 -43 -4 -105 l10 -76
-30 -26 c-17 -14 -30 -31 -30 -38 0 -28 -46 -5 -67 34 -12 22 -29 52 -38 67
-17 31 -11 55 15 63 27 9 33 35 13 64 -9 14 -21 50 -25 79 -4 28 -13 78 -18
110 -24 130 -24 127 7 162 l30 33 -39 35 c-40 36 -51 78 -23 88 20 8 19 21 -5
51 -24 31 -26 92 -5 133 14 26 13 33 -2 65 -14 29 -15 43 -7 75 8 28 8 46 -2
68 -18 44 -25 241 -9 272 11 22 10 32 -7 69 -25 54 -20 112 12 146 29 31 97
43 144 25z m891 -780 c16 -17 17 -25 7 -58 -21 -66 -26 -70 -69 -47 -35 19
-38 24 -37 64 0 25 7 47 15 52 24 15 65 10 84 -11z m-77 -172 c19 -19 14 -28
-15 -28 -35 0 -58 14 -49 29 9 15 49 14 64 -1z m-43 -68 c31 -12 31 -39 0 -50
-19 -7 -108 10 -121 23 -4 3 -4 13 -1 22 7 18 80 21 122 5z m-69 -205 c16 -13
17 -16 4 -25 -16 -10 -46 -5 -67 12 -33 26 29 39 63 13z m-41 -310 c0 -39 -31
-48 -41 -11 -7 30 2 48 24 44 11 -2 17 -13 17 -33z m14656 -202 c-2 -35 -6
-42 -13 -30 -5 10 -6 22 -3 27 3 6 -1 7 -9 4 -13 -5 -15 0 -10 27 4 19 12 40
18 48 15 19 22 -15 17 -76z m-13261 29 c0 -9 -49 -82 -55 -82 -13 0 -3 40 16
64 20 25 39 34 39 18z m-1976 -74 c35 -15 41 -42 18 -81 -17 -29 -18 -40 -10
-107 6 -41 16 -91 23 -111 11 -30 11 -40 0 -62 -15 -29 -23 -135 -28 -357 -1
-86 -8 -160 -16 -183 -9 -28 -10 -46 -3 -65 13 -33 21 -117 15 -142 -7 -26
-62 -44 -96 -31 -42 16 -56 46 -50 110 3 31 12 66 20 79 8 14 11 32 7 45 -4
12 -8 76 -10 142 -2 88 -8 137 -23 185 -26 82 -26 129 -1 183 14 29 22 73 26
142 9 141 8 166 0 201 -6 23 -4 35 9 47 19 20 82 22 119 5z m514 -5 c-4 -23
-68 -32 -68 -9 0 14 17 23 53 25 12 1 17 -5 15 -16z m1382 -46 c0 -8 -9 -22
-19 -31 -11 -10 -36 -50 -55 -89 -20 -40 -42 -79 -49 -88 -13 -18 -57 -43 -63
-37 -6 6 40 88 63 112 11 12 28 35 38 51 52 83 85 114 85 82z m12920 -97 c0
-5 5 -9 12 -7 6 1 13 -5 15 -14 3 -12 -2 -15 -19 -12 -23 4 -38 43 -17 43 5 0
9 -4 9 -10z m-12860 -125 c-7 -8 -16 -12 -21 -10 -10 7 0 37 15 47 16 11 20
-20 6 -37z m12835 20 c14 -13 25 -31 25 -40 0 -18 -25 -47 -32 -39 -3 2 -11
-2 -18 -11 -18 -22 -30 -19 -29 8 0 12 -4 39 -9 59 -5 20 -7 39 -4 42 13 13
45 4 67 -19z m82 -80 c3 -18 0 -23 -11 -19 -20 8 -29 36 -14 45 16 10 21 4 25
-26z m-13177 -29 c-6 -19 -20 -38 -31 -41 -10 -4 -19 -14 -19 -22 0 -22 -47
-100 -66 -111 -8 -5 -16 -15 -17 -23 -4 -24 -47 -79 -63 -79 -18 0 -9 46 15
75 10 11 26 33 36 50 21 34 24 37 65 86 16 20 30 43 30 50 0 17 54 73 58 60 2
-6 -2 -26 -8 -45z m13227 -2 c-3 -3 -12 -4 -19 -1 -8 3 -5 6 6 6 11 1 17 -2
13 -5z m19 -61 c-11 -11 -19 6 -11 24 8 17 8 17 12 0 3 -10 2 -21 -1 -24z
m-13116 -33 c0 -22 -86 -160 -100 -160 -5 0 -12 -10 -16 -22 -4 -13 -20 -38
-36 -57 -16 -18 -35 -45 -41 -60 -16 -38 -56 -99 -97 -150 -19 -24 -44 -58
-55 -76 -27 -44 -96 -135 -102 -135 -2 0 -1 6 4 13 4 6 6 20 4 30 -1 11 7 26
18 34 12 8 21 22 21 32 0 9 16 32 35 51 19 18 40 50 46 69 14 42 66 121 79
121 5 0 21 24 34 53 14 28 41 70 61 91 19 22 35 44 35 48 0 12 70 121 84 130
18 13 26 9 26 -12z m-457 -382 c-9 -18 -16 -36 -15 -40 1 -5 -4 -8 -12 -8 -12
0 -22 -13 -31 -40 -17 -51 -47 -90 -69 -90 -20 0 -21 14 -1 30 8 7 15 18 15
25 0 6 8 19 18 28 10 9 28 37 41 62 20 41 43 64 64 65 4 0 0 -15 -10 -32z m-3
-305 c0 -19 -47 -69 -55 -61 -5 5 8 34 28 66 12 18 27 15 27 -5z m-66 -103
c-9 -16 -23 -30 -32 -30 -12 0 -8 8 13 30 16 17 30 30 31 30 1 0 -4 -13 -12
-30z m-103 -143 c-12 -12 -21 -16 -21 -10 0 6 7 18 15 27 8 8 16 21 16 28 1 7
3 5 6 -6 3 -11 -4 -27 -16 -39z m989 -1712 c0 -8 -9 -24 -20 -35 -11 -11 -21
-26 -22 -32 -2 -7 -13 -21 -25 -31 -13 -10 -23 -24 -23 -32 0 -7 -7 -18 -15
-25 -9 -7 -13 -15 -11 -18 10 -9 -36 -84 -53 -89 -10 -2 -29 -23 -42 -45 -13
-22 -34 -49 -46 -61 -12 -11 -20 -24 -17 -29 3 -4 2 -8 -3 -8 -4 0 -17 -18
-27 -41 -11 -22 -29 -45 -40 -51 -11 -6 -29 -22 -39 -35 -11 -13 -22 -22 -24
-19 -3 3 2 12 11 21 9 9 16 25 16 35 0 11 18 38 39 60 22 23 52 60 67 83 15
23 38 53 50 67 12 14 25 36 29 50 4 14 23 42 42 63 19 21 39 49 45 63 6 13 29
43 50 66 21 23 38 45 38 50 0 4 5 8 10 8 6 0 10 -7 10 -15z m-89 -423 c-23
-46 -56 -67 -41 -26 9 24 52 74 58 69 2 -2 -6 -21 -17 -43z m-411 -262 c0 -5
-8 -10 -17 -10 -15 0 -16 2 -3 10 19 12 20 12 20 0z m13740 -1285 c0 -17 -23
-25 -41 -14 -12 8 -11 12 5 24 21 16 36 12 36 -10z m-2026 -910 c3 -8 1 -15
-4 -15 -6 0 -10 7 -10 15 0 8 2 15 4 15 2 0 6 -7 10 -15z m106 -105 c0 -5 -7
-10 -16 -10 -8 0 -12 5 -9 10 3 6 10 10 16 10 5 0 9 -4 9 -10z m-12680 -2130
c0 -4 -6 -13 -14 -19 -15 -13 -32 1 -22 17 6 10 36 11 36 2z m174 -35 c-4 -8
-11 -12 -16 -9 -6 4 -5 10 3 15 19 12 19 11 13 -6z m-339 -175 c-10 -11 -21
-20 -26 -20 -4 0 -5 9 -2 20 3 12 14 20 26 20 19 0 20 -1 2 -20z"/>
<path d="M14748 9933 c7 -3 16 -2 19 1 4 3 -2 6 -13 5 -11 0 -14 -3 -6 -6z"/>
<path d="M13890 18895 c0 -11 9 -35 20 -53 11 -18 32 -60 46 -95 33 -80 144
-280 211 -382 123 -188 348 -452 425 -501 21 -13 50 -43 64 -67 51 -80 111
-119 178 -116 55 3 52 14 -22 71 -31 24 -72 61 -92 82 -19 22 -47 51 -62 65
-16 13 -28 30 -28 37 0 8 -13 20 -28 28 -15 8 -33 26 -40 40 -6 14 -16 26 -20
26 -5 0 -25 24 -45 53 -20 28 -56 74 -81 102 -25 27 -46 55 -46 60 0 6 -16 27
-36 46 -19 18 -50 63 -67 98 -18 35 -42 70 -54 78 -13 8 -33 31 -45 52 -12 20
-24 38 -28 41 -3 3 -30 41 -60 85 -30 44 -74 108 -99 141 -26 34 -56 77 -68
95 -18 27 -23 30 -23 14z"/>
<path d="M19154 18814 c-6 -3 -9 -16 -6 -29 3 -21 7 -23 23 -14 36 19 20 58
-17 43z"/>
<path d="M18922 18737 c-11 -17 -25 -57 -32 -87 -7 -30 -23 -82 -36 -114 -13
-33 -24 -68 -24 -78 0 -10 -13 -58 -30 -108 -16 -50 -30 -100 -30 -113 0 -12
-10 -42 -21 -67 -11 -25 -25 -67 -31 -95 -5 -27 -14 -69 -19 -93 -5 -24 -15
-58 -23 -75 -27 -58 -96 -329 -96 -375 0 -23 35 -57 49 -48 6 4 34 8 63 10 29
3 84 7 121 11 56 6 70 4 80 -9 10 -13 19 -14 54 -5 39 10 90 49 65 49 -7 0
-12 10 -12 22 0 12 3 19 6 15 3 -3 14 3 25 14 10 10 29 19 42 19 18 1 19 2 6
10 -11 6 -15 18 -11 35 4 21 1 24 -14 19 -17 -6 -17 -5 1 9 11 9 26 17 33 17
6 0 12 4 12 9 0 10 54 9 58 -2 5 -15 2 -28 -6 -23 -5 3 -9 -1 -9 -9 0 -16 42
-21 51 -6 9 15 55 0 61 -20 7 -20 11 -21 112 -21 57 -1 64 2 87 30 14 16 26
36 26 44 0 20 31 43 80 59 42 13 52 24 64 62 4 12 16 17 43 17 34 0 83 18 58
21 -5 0 1 4 15 8 17 5 25 14 25 29 1 24 12 39 35 44 19 4 40 24 40 38 0 6 5 8
11 5 6 -4 19 2 30 14 11 12 26 21 33 21 10 0 13 15 12 55 -1 59 -9 72 -45 77
-30 4 -38 40 -15 63 15 15 15 17 -5 22 -11 3 -18 10 -14 16 4 7 0 8 -12 3 -15
-5 -16 -4 -6 8 10 12 5 16 -31 23 -35 7 -55 4 -108 -15 -36 -14 -83 -27 -105
-29 -22 -3 -42 -9 -45 -14 -3 -4 -22 -9 -42 -11 -34 -2 -36 -4 -31 -30 5 -25
3 -28 -22 -28 -19 0 -26 -4 -22 -14 3 -7 0 -19 -6 -25 -16 -16 -44 -13 -51 5
-5 14 -9 14 -23 3 -9 -8 -14 -9 -11 -4 4 6 3 17 -3 25 -6 11 -9 8 -9 -12 0
-21 5 -28 19 -28 27 0 34 -38 10 -50 -10 -6 -18 -14 -17 -18 4 -14 -23 -52
-33 -47 -5 4 -8 1 -7 -7 2 -9 -8 -12 -34 -11 -29 1 -38 -3 -43 -18 -4 -11 -11
-17 -16 -13 -12 7 -51 -25 -44 -37 3 -4 -15 -11 -40 -15 -25 -3 -48 -10 -51
-16 -3 -5 -14 -6 -25 -3 -13 4 -19 2 -19 -9 0 -8 -16 -20 -36 -26 -19 -7 -38
-19 -42 -29 -6 -16 -31 -40 -43 -41 -3 0 -19 19 -36 43 -21 29 -31 54 -31 79
0 20 -4 43 -8 50 -22 34 -14 41 41 34 41 -5 55 -2 66 10 22 27 70 46 101 40
23 -4 30 -2 36 15 5 11 11 20 15 20 31 -4 45 2 56 22 12 23 70 57 96 57 8 0
15 4 15 9 0 5 9 13 21 16 17 6 18 9 7 23 -10 12 -10 14 0 8 6 -4 12 -2 12 3 0
6 7 11 15 11 10 0 15 10 15 28 0 29 -20 41 -97 57 -42 8 -83 41 -83 66 0 12
-7 19 -20 20 -11 1 -25 2 -30 3 -6 0 -21 19 -34 41 l-24 39 20 29 c11 16 21
41 23 55 1 15 5 35 9 45 9 20 42 23 49 5 2 -7 8 4 12 25 5 25 4 42 -4 50 -6 6
-11 19 -11 28 0 22 -41 28 -89 14 -25 -7 -36 -6 -38 2 -6 17 -36 48 -50 50 -6
2 -20 -12 -31 -30z m118 -472 c0 -17 -2 -18 -24 -9 -23 9 -20 24 4 24 11 0 20
-7 20 -15z"/>
<path d="M19330 18246 c0 -22 17 -28 24 -10 9 22 8 24 -9 24 -8 0 -15 -6 -15
-14z"/>
<path d="M19933 18246 c-8 -10 -6 -19 13 -41 l24 -28 10 27 c8 21 7 31 -4 42
-18 17 -27 17 -43 0z"/>
<path d="M12146 17844 c-9 -23 -8 -24 14 -24 13 0 20 7 20 20 0 24 -25 27 -34
4z"/>
<path d="M21560 17170 c0 -5 5 -10 10 -10 6 0 10 5 10 10 0 6 -4 10 -10 10 -5
0 -10 -4 -10 -10z"/>
<path d="M21580 17139 c0 -5 5 -7 10 -4 6 3 10 8 10 11 0 2 -4 4 -10 4 -5 0
-10 -5 -10 -11z"/>
<path d="M25693 15785 c-7 -8 -9 -16 -4 -20 5 -3 11 1 14 7 3 10 9 10 26 0 20
-12 21 -11 9 8 -15 23 -28 25 -45 5z"/>
<path d="M28180 14460 c0 -32 16 -36 37 -10 20 24 15 40 -12 40 -21 0 -25 -5
-25 -30z"/>
<path d="M28378 14178 c6 -6 18 -8 28 -6 14 3 12 5 -9 10 -19 3 -25 2 -19 -4z"/>
<path d="M13651 13903 c-39 -40 -50 -108 -27 -172 9 -25 16 -60 16 -78 0 -17
5 -44 11 -60 6 -15 13 -44 15 -63 2 -19 11 -41 18 -49 12 -11 16 -10 26 9 9
17 10 67 5 189 -11 263 -14 274 -64 224z"/>
<path d="M13675 13080 c-3 -6 -1 -26 5 -45 6 -19 9 -60 7 -92 -5 -55 7 -103
25 -103 5 0 7 55 6 122 -3 105 -5 123 -20 126 -9 2 -19 -2 -23 -8z"/>
<path d="M29123 7533 c1 -31 7 -48 15 -48 6 0 12 3 12 8 0 4 0 21 0 38 0 20
-4 28 -12 23 -8 -5 -9 -2 -5 9 3 10 2 17 -3 17 -5 0 -8 -21 -7 -47z"/>
<path d="M29260 3811 c0 -9 6 -26 14 -37 13 -17 15 -18 21 -2 10 26 2 51 -17
54 -11 1 -18 -4 -18 -15z"/>
<path d="M29122 978 c-9 -32 2 -63 17 -53 11 6 12 73 1 80 -5 3 -13 -9 -18
-27z"/>
</g>
</svg>
