<?xml version="1.0" standalone="no"?>
<!DOCTYPE svg PUBLIC "-//W3C//DTD SVG 20010904//EN"
 "http://www.w3.org/TR/2001/REC-SVG-20010904/DTD/svg10.dtd">
<svg version="1.0" xmlns="http://www.w3.org/2000/svg"
 width="1600.000000pt" height="1190.000000pt" viewBox="0 0 1600.000000 1190.000000"
 preserveAspectRatio="xMidYMid meet">

<g transform="translate(0.000000,1190.000000) scale(0.100000,-0.100000)"
fill="#000000" stroke="none">
<path d="M1055 10877 l-90 -53 -3 -52 c-2 -29 0 -52 3 -52 3 0 49 25 101 55
l94 54 78 -45 c124 -73 112 -72 112 -12 l0 53 -90 53 c-49 28 -95 52 -102 52
-7 0 -53 -24 -103 -53z"/>
<path d="M10670 10821 c-15 -29 -12 -56 8 -74 24 -22 46 -22 63 0 13 15 12 15
-9 2 -44 -27 -84 37 -47 75 9 9 12 16 6 16 -6 0 -15 -9 -21 -19z"/>
<path d="M10725 10830 c3 -5 11 -10 16 -10 6 0 7 5 4 10 -3 6 -11 10 -16 10
-6 0 -7 -4 -4 -10z"/>
<path d="M10929 10825 c-7 -31 5 -88 19 -91 7 -1 8 0 2 3 -15 7 -13 63 3 63 8
0 9 3 1 8 -6 4 -13 14 -16 22 -3 11 -6 9 -9 -5z"/>
<path d="M11029 10825 c-2 -11 -2 -38 2 -60 l6 -40 2 38 c0 22 6 37 14 37 8 0
9 3 1 8 -6 4 -13 14 -16 22 -3 11 -6 9 -9 -5z"/>
<path d="M11279 10825 c-7 -31 5 -88 19 -91 7 -1 8 0 2 3 -15 7 -13 63 3 63 8
0 9 3 1 8 -6 4 -13 14 -16 22 -3 11 -6 9 -9 -5z"/>
<path d="M11803 10800 c0 -25 2 -35 4 -22 2 12 2 32 0 45 -2 12 -4 2 -4 -23z"/>
<path d="M11840 10821 c-5 -11 -10 -28 -10 -39 0 -22 30 -52 51 -52 8 0 3 6
-11 13 -30 15 -38 58 -15 81 9 9 12 16 6 16 -6 0 -15 -9 -21 -19z"/>
<path d="M11900 10830 c0 -5 5 -10 11 -10 5 0 7 5 4 10 -3 6 -8 10 -11 10 -2
0 -4 -4 -4 -10z"/>
<path d="M12006 10825 c-9 -26 -7 -32 5 -12 6 10 9 21 6 23 -2 3 -7 -2 -11
-11z"/>
<path d="M12050 10833 c19 -9 10 -37 -22 -70 l-32 -33 40 1 c32 2 34 3 10 6
l-28 5 27 28 c27 28 31 61 7 66 -7 1 -8 0 -2 -3z"/>
<path d="M12233 10785 c0 -33 2 -45 4 -27 2 18 2 45 0 60 -2 15 -4 0 -4 -33z"/>
<path d="M12658 10789 c-1 -28 0 -53 5 -56 4 -2 7 21 7 51 0 70 -7 73 -12 5z"/>
<path d="M12798 10833 c7 -3 16 -2 19 1 4 3 -2 6 -13 5 -11 0 -14 -3 -6 -6z"/>
<path d="M12850 10825 c0 -8 2 -15 4 -15 2 0 6 7 10 15 3 8 1 15 -4 15 -6 0
-10 -7 -10 -15z"/>
<path d="M12903 10825 c0 -8 4 -12 9 -9 4 3 8 9 8 15 0 5 -4 9 -8 9 -5 0 -9
-7 -9 -15z"/>
<path d="M12998 10793 c-2 -40 -6 -48 -23 -48 -26 0 -32 35 -9 53 11 8 13 12
5 10 -46 -13 -36 -72 13 -74 25 -1 26 1 26 52 0 67 -8 71 -12 7z"/>
<path d="M13039 10825 c-2 -11 -2 -38 2 -60 l6 -40 2 38 c0 22 6 37 14 37 8 0
9 3 1 8 -6 4 -13 14 -16 22 -3 11 -6 9 -9 -5z"/>
<path d="M13201 10835 c-2 -5 -2 -22 -1 -37 1 -22 -3 -28 -20 -28 -13 0 -19 4
-14 12 4 7 3 8 -4 4 -20 -12 -13 -26 12 -26 15 0 26 -7 29 -17 4 -17 5 -17 6
0 0 9 7 17 14 17 9 0 9 2 0 8 -6 4 -13 23 -16 42 -2 19 -5 31 -6 25z"/>
<path d="M13297 10820 c3 -11 7 -20 9 -20 2 0 4 9 4 20 0 11 -4 20 -9 20 -5 0
-7 -9 -4 -20z"/>
<path d="M13589 10824 c-16 -19 -1 -48 27 -51 15 -2 14 -1 -3 7 -25 10 -29 30
-11 48 7 7 9 12 6 12 -3 0 -11 -7 -19 -16z"/>
<path d="M13636 10827 c3 -10 9 -15 12 -12 3 3 0 11 -7 18 -10 9 -11 8 -5 -6z"/>
<path d="M13735 10830 c3 -5 8 -10 11 -10 2 0 4 5 4 10 0 6 -5 10 -11 10 -5 0
-7 -4 -4 -10z"/>
<path d="M13836 10827 c3 -10 9 -15 12 -12 3 3 0 11 -7 18 -10 9 -11 8 -5 -6z"/>
<path d="M14248 10805 c4 -30 1 -35 -17 -35 -14 0 -20 4 -15 12 4 7 3 8 -4 4
-20 -12 -13 -26 13 -26 17 0 25 -6 26 -17 0 -14 2 -15 6 -3 3 8 11 18 17 22 8
5 7 8 -1 8 -8 0 -13 14 -13 35 0 19 -4 35 -8 35 -4 0 -6 -16 -4 -35z"/>
<path d="M14486 10825 c-9 -26 -7 -32 5 -12 6 10 9 21 6 23 -2 3 -7 -2 -11
-11z"/>
<path d="M14530 10833 c19 -9 10 -37 -22 -70 l-32 -33 40 1 c32 2 34 3 10 6
l-28 5 27 28 c27 28 31 61 7 66 -7 1 -8 0 -2 -3z"/>
<path d="M14922 10823 c-4 -10 -5 -36 -1 -58 l6 -40 2 38 c0 22 6 37 14 37 9
0 8 3 -2 9 -7 5 -10 14 -7 20 4 6 5 11 2 11 -3 0 -9 -8 -14 -17z"/>
<path d="M14966 10825 c-9 -26 -7 -32 5 -12 6 10 9 21 6 23 -2 3 -7 -2 -11
-11z"/>
<path d="M15010 10833 c19 -9 10 -37 -22 -70 l-32 -33 40 1 c32 2 34 3 10 6
l-28 5 27 28 c27 28 31 61 7 66 -7 1 -8 0 -2 -3z"/>
<path d="M13481 10804 c0 -11 3 -14 6 -6 3 7 2 16 -1 19 -3 4 -6 -2 -5 -13z"/>
<path d="M13781 10809 c-1 -19 26 -45 36 -35 3 3 1 6 -6 6 -6 0 -16 10 -21 23
-6 15 -9 17 -9 6z"/>
<path d="M10782 10798 c-7 -7 -12 -21 -12 -32 0 -23 10 -16 14 11 2 11 11 18
24 17 12 0 19 3 16 8 -7 12 -28 10 -42 -4z"/>
<path d="M11490 10806 c0 -2 7 -7 16 -10 8 -3 12 -2 9 4 -6 10 -25 14 -25 6z"/>
<path d="M11562 10798 c-6 -6 -12 -21 -11 -32 1 -18 2 -17 8 4 9 33 45 34 49
2 2 -15 -3 -25 -20 -32 -17 -7 -18 -9 -4 -7 28 3 44 33 30 55 -14 22 -36 26
-52 10z"/>
<path d="M12291 10804 c10 -3 17 -16 17 -30 0 -14 4 -30 9 -35 7 -7 8 3 4 28
-5 28 -11 38 -26 40 -13 1 -15 0 -4 -3z"/>
<path d="M12371 10804 c10 -3 17 -16 17 -30 0 -14 4 -30 9 -35 7 -7 8 3 4 28
-5 28 -11 38 -26 40 -13 1 -15 0 -4 -3z"/>
<path d="M12474 10799 c-3 -6 -1 -16 5 -22 17 -17 13 -27 -11 -37 -16 -6 -18
-9 -7 -9 26 -1 44 26 29 44 -6 8 -9 19 -5 25 3 5 4 10 1 10 -3 0 -8 -5 -12
-11z"/>
<path d="M12551 10804 c10 -3 17 -16 17 -30 0 -14 5 -31 11 -37 9 -9 11 -8 5
6 -4 10 -7 28 -8 40 -1 14 -8 22 -21 24 -13 1 -14 0 -4 -3z"/>
<path d="M13350 10795 c-15 -18 -10 -45 12 -59 12 -7 21 -7 28 0 8 8 4 10 -12
10 -18 -1 -23 4 -23 24 0 19 5 25 22 24 12 0 20 3 17 8 -8 13 -30 9 -44 -7z"/>
<path d="M13681 10792 c-2 -56 46 -84 70 -41 9 17 8 24 -7 38 -16 15 -17 15
-6 0 16 -21 5 -49 -18 -49 -26 0 -35 32 -13 49 15 12 16 13 1 8 -9 -3 -19 -1
-22 6 -2 7 -5 2 -5 -11z"/>
<path d="M14040 10795 c-15 -18 -10 -45 12 -59 12 -7 21 -7 28 0 8 8 4 10 -12
10 -18 -1 -23 4 -23 24 0 19 5 25 22 24 12 0 20 3 17 8 -8 13 -30 9 -44 -7z"/>
<path d="M14434 10799 c-3 -6 2 -18 12 -27 17 -16 17 -16 5 0 -7 9 -10 22 -6
28 3 5 4 10 1 10 -3 0 -8 -5 -12 -11z"/>
<path d="M14860 10806 c0 -2 7 -7 16 -10 8 -3 12 -2 9 4 -6 10 -25 14 -25 6z"/>
<path d="M11117 10793 c-9 -9 -9 -41 1 -46 4 -3 7 8 7 24 0 16 0 29 -1 29 0 0
-4 -3 -7 -7z"/>
<path d="M11239 10788 c-2 -21 2 -42 10 -50 4 -5 5 8 3 27 -4 35 -11 46 -13
23z"/>
<path d="M12139 10788 c-2 -21 2 -42 10 -50 4 -5 5 8 3 27 -4 35 -11 46 -13
23z"/>
<path d="M12760 10789 c0 -5 5 -7 10 -4 6 3 10 8 10 11 0 2 -4 4 -10 4 -5 0
-10 -5 -10 -11z"/>
<path d="M12819 10768 c4 -28 6 -29 9 -9 2 13 0 27 -5 32 -6 6 -7 -3 -4 -23z"/>
<path d="M12881 10769 c-6 -18 -9 -34 -7 -36 2 -2 9 10 15 28 6 18 9 34 7 36
-2 2 -9 -10 -15 -28z"/>
<path d="M13640 10790 c0 -5 5 -10 11 -10 5 0 7 5 4 10 -3 6 -8 10 -11 10 -2
0 -4 -4 -4 -10z"/>
<path d="M13929 10788 c-2 -21 2 -42 10 -50 4 -5 5 8 3 27 -4 35 -11 46 -13
23z"/>
<path d="M14171 10784 c0 -11 3 -14 6 -6 3 7 2 16 -1 19 -3 4 -6 -2 -5 -13z"/>
<path d="M14619 10788 c-2 -21 2 -42 10 -50 4 -5 5 8 3 27 -4 35 -11 46 -13
23z"/>
<path d="M14708 10773 c5 -21 7 -23 10 -9 2 10 0 22 -6 28 -6 6 -7 0 -4 -19z"/>
<path d="M14834 10785 c-3 -8 -4 -20 -2 -27 3 -7 7 -1 10 15 6 29 1 36 -8 12z"/>
<path d="M11331 10775 c-1 -25 17 -45 39 -44 10 0 9 3 -5 8 -11 4 -23 19 -26
32 -6 21 -7 21 -8 4z"/>
<path d="M12171 10775 c-1 -22 16 -45 33 -45 5 0 3 6 -6 13 -9 6 -18 21 -21
32 -5 20 -5 20 -6 0z"/>
<path d="M12601 10775 c-1 -22 16 -45 33 -45 5 0 3 6 -6 13 -9 6 -18 21 -21
32 -5 20 -5 20 -6 0z"/>
<path d="M13290 10786 c0 -2 8 -10 18 -17 15 -13 16 -12 3 4 -13 16 -21 21
-21 13z"/>
<path d="M14742 10770 c0 -14 2 -19 5 -12 2 6 2 18 0 25 -3 6 -5 1 -5 -13z"/>
<path d="M1760 10681 l0 -99 -37 19 c-25 13 -58 19 -99 19 -85 0 -139 -29
-182 -101 -31 -51 -33 -59 -30 -131 3 -66 7 -82 33 -120 63 -89 191 -122 278
-71 36 22 37 22 37 3 0 -17 7 -20 50 -20 l50 0 0 300 0 300 -50 0 -50 0 0 -99z
m-54 -170 c32 -20 64 -74 64 -110 0 -35 -26 -86 -55 -109 -57 -45 -159 -21
-190 44 -57 120 70 243 181 175z"/>
<path d="M11948 10773 c6 -2 18 -2 25 0 6 3 1 5 -13 5 -14 0 -19 -2 -12 -5z"/>
<path d="M12698 10773 c6 -2 18 -2 25 0 6 3 1 5 -13 5 -14 0 -19 -2 -12 -5z"/>
<path d="M13088 10773 c6 -2 18 -2 25 0 6 3 1 5 -13 5 -14 0 -19 -2 -12 -5z"/>
<path d="M13241 10770 c-2 -31 48 -55 63 -31 3 4 -6 6 -19 3 -19 -3 -27 1 -34
19 -6 14 -10 18 -10 9z"/>
<path d="M13440 10755 l-23 -25 39 1 c31 2 33 3 11 6 -28 4 -28 5 -11 24 26
28 11 23 -16 -6z"/>
<path d="M13518 10773 c6 -2 18 -2 25 0 6 3 1 5 -13 5 -14 0 -19 -2 -12 -5z"/>
<path d="M13968 10773 c6 -2 18 -2 25 0 6 3 1 5 -13 5 -14 0 -19 -2 -12 -5z"/>
<path d="M11195 10760 c-9 -15 4 -30 23 -29 15 1 14 2 -1 6 -11 3 -16 11 -13
19 6 16 0 19 -9 4z"/>
<path d="M11730 10758 c0 -17 36 -35 47 -24 4 3 -1 6 -10 6 -9 0 -21 8 -26 18
-9 15 -10 16 -11 0z"/>
<path d="M12265 10760 c-9 -15 4 -30 23 -29 15 1 14 2 -1 6 -11 3 -16 11 -13
19 6 16 0 19 -9 4z"/>
<path d="M12344 10759 c-3 -6 -2 -15 3 -20 5 -5 9 -1 9 11 0 23 -2 24 -12 9z"/>
<path d="M13636 10754 c-4 -10 -13 -14 -26 -11 -11 3 -18 1 -14 -4 3 -5 11 -9
18 -9 15 0 41 28 34 36 -3 3 -8 -3 -12 -12z"/>
<path d="M13885 10760 c-8 -13 3 -30 18 -30 8 0 7 3 -2 9 -7 5 -10 14 -7 20 4
6 5 11 2 11 -3 0 -8 -4 -11 -10z"/>
<path d="M14350 10757 c0 -8 -8 -18 -17 -20 -17 -4 -17 -5 0 -6 18 -1 35 25
23 36 -3 4 -6 -1 -6 -10z"/>
<path d="M14380 10764 c0 -26 51 -46 64 -25 4 5 -4 7 -15 4 -15 -4 -27 0 -35
12 -8 11 -14 14 -14 9z"/>
<path d="M12093 10750 c2 -8 12 -16 23 -17 13 -2 15 -1 4 4 -8 3 -19 11 -23
17 -6 7 -7 6 -4 -4z"/>
<path d="M12520 10751 c0 -10 19 -25 25 -20 1 2 -3 10 -11 17 -8 7 -14 8 -14
3z"/>
<path d="M13834 10749 c-3 -6 -15 -9 -25 -6 -11 3 -17 1 -13 -4 8 -14 30 -11
44 6 7 8 10 15 7 15 -3 0 -9 -5 -13 -11z"/>
<path d="M14573 10750 c2 -8 12 -16 23 -17 13 -2 15 -1 4 4 -8 3 -19 11 -23
17 -6 7 -7 6 -4 -4z"/>
<path d="M14662 10744 c9 -9 21 -15 27 -13 6 2 -2 10 -17 17 -25 11 -25 11
-10 -4z"/>
<path d="M11150 10740 c-9 -6 -10 -10 -3 -10 6 0 15 5 18 10 8 12 4 12 -15 0z"/>
<path d="M12778 10738 c5 -5 16 -8 23 -6 8 3 3 7 -10 11 -17 4 -21 3 -13 -5z"/>
<path d="M14865 10740 c-16 -7 -17 -9 -3 -9 9 -1 20 4 23 9 7 11 7 11 -20 0z"/>
<path d="M14768 10733 c7 -3 16 -2 19 1 4 3 -2 6 -13 5 -11 0 -14 -3 -6 -6z"/>
<path d="M2085 10621 c-126 -33 -193 -147 -164 -282 23 -108 133 -180 252
-165 56 8 113 34 140 64 17 19 17 20 -18 41 l-36 21 -39 -20 c-22 -11 -53 -20
-70 -20 -64 0 -130 47 -130 92 0 17 14 18 165 18 l165 0 0 49 c0 27 -4 61 -9
74 -13 34 -68 95 -101 112 -34 18 -116 26 -155 16z m138 -121 c15 -16 27 -35
27 -40 0 -6 -46 -10 -115 -10 -63 0 -115 3 -115 8 0 18 35 55 64 68 48 22 106
11 139 -26z"/>
<path d="M1008 10612 l-48 -3 0 -150 c0 -104 4 -160 14 -182 53 -128 276 -143
354 -24 26 38 27 48 31 189 2 81 1 154 -2 160 -3 9 -21 12 -56 10 l-51 -4 0
-144 c0 -140 -1 -146 -25 -169 -33 -34 -93 -34 -132 -1 -28 24 -28 25 -33 173
l-5 148 -47 -3z"/>
<path d="M2404 10605 c-3 -6 -3 -103 -2 -215 l3 -205 53 -3 52 -3 0 149 c0
144 1 150 25 176 41 44 104 32 124 -25 6 -18 11 -92 11 -165 l0 -134 50 0 50
0 0 146 0 146 29 29 c36 35 79 38 107 8 16 -18 20 -42 24 -173 l5 -151 53 -3
52 -3 0 148 c-1 177 -15 234 -69 270 -49 33 -135 32 -185 -2 -45 -30 -44 -30
-73 -3 -34 32 -121 37 -167 10 -30 -18 -35 -18 -38 -5 -2 11 -16 16 -52 17
-27 0 -50 -4 -52 -9z"/>
<path d="M3050 10610 c0 -3 39 -100 86 -217 62 -153 85 -219 80 -237 -11 -42
-55 -86 -87 -86 -28 0 -29 -2 -29 -45 l0 -45 43 0 c55 0 99 28 130 82 22 37
237 536 237 548 0 3 -23 5 -52 5 l-51 -1 -61 -152 c-34 -83 -64 -152 -67 -152
-3 0 -32 67 -65 150 -48 122 -63 150 -79 151 -11 0 -35 1 -53 2 -17 1 -32 0
-32 -3z"/>
<path d="M10070 10531 c-15 -29 -12 -57 8 -72 14 -11 15 -11 5 1 -18 19 -16
55 3 74 8 9 11 16 5 16 -6 0 -15 -9 -21 -19z"/>
<path d="M10330 10535 c-9 -32 4 -88 20 -92 10 -3 11 -2 3 4 -6 5 -13 31 -15
58 -2 28 -5 41 -8 30z"/>
<path d="M10432 10533 c-4 -10 -5 -36 -1 -58 l6 -40 2 38 c0 22 6 37 14 37 9
0 8 3 -2 9 -7 5 -10 14 -7 20 4 6 5 11 2 11 -3 0 -9 -8 -14 -17z"/>
<path d="M10679 10535 c-7 -31 5 -88 19 -91 7 -1 8 0 2 3 -15 7 -13 63 3 63 8
0 9 3 1 8 -6 4 -13 14 -16 22 -3 11 -6 9 -9 -5z"/>
<path d="M11282 10530 c0 -14 2 -19 5 -12 2 6 2 18 0 25 -3 6 -5 1 -5 -13z"/>
<path d="M11803 10510 c0 -25 2 -35 4 -22 2 12 2 32 0 45 -2 12 -4 2 -4 -23z"/>
<path d="M11897 10539 c7 -7 15 -10 18 -7 3 3 -2 9 -12 12 -14 6 -15 5 -6 -5z"/>
<path d="M12057 10529 c4 -14 -4 -31 -28 -55 l-33 -34 40 1 c35 1 36 2 11 8
l-29 6 26 24 c26 25 34 55 17 65 -5 4 -7 -3 -4 -15z"/>
<path d="M12228 10528 c-2 -13 -1 -39 3 -58 5 -30 7 -26 8 23 1 58 -4 74 -11
35z"/>
<path d="M12659 10533 c0 -10 -1 -33 -2 -51 -1 -19 1 -36 5 -39 5 -2 8 21 8
51 0 31 -2 56 -5 56 -3 0 -5 -8 -6 -17z"/>
<path d="M12903 10535 c0 -8 4 -12 9 -9 4 3 8 9 8 15 0 5 -4 9 -8 9 -5 0 -9
-7 -9 -15z"/>
<path d="M12999 10528 c-3 -69 -4 -73 -24 -73 -12 0 -22 9 -26 25 -6 22 -7 23
-8 4 -1 -27 18 -44 47 -41 20 1 22 7 22 54 0 51 -9 76 -11 31z"/>
<path d="M13042 10533 c-4 -10 -5 -36 -1 -58 l6 -40 2 35 c2 19 4 45 5 58 3
27 0 28 -12 5z"/>
<path d="M13198 10515 c4 -30 1 -35 -17 -35 -14 0 -20 4 -15 12 4 7 3 8 -4 4
-20 -12 -13 -26 13 -26 17 0 25 -6 26 -17 0 -14 2 -15 6 -3 3 8 11 18 17 22 8
5 7 8 -1 8 -8 0 -13 14 -13 35 0 19 -4 35 -8 35 -4 0 -6 -16 -4 -35z"/>
<path d="M13295 10520 c0 -38 9 -46 12 -9 1 15 -1 30 -5 33 -4 2 -7 -9 -7 -24z"/>
<path d="M13470 10543 c19 -9 10 -37 -22 -70 l-32 -33 40 1 c32 2 34 3 10 6
l-28 5 27 28 c27 28 31 61 7 66 -7 1 -8 0 -2 -3z"/>
<path d="M13637 10529 c4 -13 8 -18 11 -10 2 7 -1 18 -6 23 -8 8 -9 4 -5 -13z"/>
<path d="M13789 10534 c-14 -17 -3 -45 22 -52 8 -2 5 3 -6 11 -17 14 -18 19
-7 36 15 25 10 28 -9 5z"/>
<path d="M13836 10537 c3 -10 9 -15 12 -12 3 3 0 11 -7 18 -10 9 -11 8 -5 -6z"/>
<path d="M14246 10523 c10 -40 14 -41 14 -5 0 18 -5 32 -10 32 -6 0 -8 -11 -4
-27z"/>
<path d="M14537 10529 c4 -14 -4 -31 -28 -55 l-33 -34 40 1 c35 1 36 2 11 8
l-29 6 26 24 c26 25 34 55 17 65 -5 4 -7 -3 -4 -15z"/>
<path d="M14922 10533 c-4 -10 -5 -36 -1 -58 l6 -40 2 38 c0 22 6 37 14 37 9
0 8 3 -2 9 -7 5 -10 14 -7 20 4 6 5 11 2 11 -3 0 -9 -8 -14 -17z"/>
<path d="M15017 10529 c4 -14 -4 -31 -28 -55 l-33 -34 40 1 c35 1 36 2 11 8
l-29 6 26 24 c26 25 34 55 17 65 -5 4 -7 -3 -4 -15z"/>
<path d="M11836 10524 c-11 -28 -6 -51 12 -65 15 -13 16 -12 3 4 -8 10 -11 28
-7 47 6 32 2 40 -8 14z"/>
<path d="M13421 10524 c0 -11 3 -14 6 -6 3 7 2 16 -1 19 -3 4 -6 -2 -5 -13z"/>
<path d="M13581 10519 c-1 -21 24 -43 41 -36 8 3 6 6 -5 6 -10 1 -22 11 -27
24 -6 15 -9 17 -9 6z"/>
<path d="M10187 10513 c-3 -5 5 -8 18 -8 13 0 21 3 18 8 -2 4 -10 7 -18 7 -8
0 -16 -3 -18 -7z"/>
<path d="M10540 10516 c0 -2 7 -7 16 -10 8 -3 12 -2 9 4 -6 10 -25 14 -25 6z"/>
<path d="M10621 10514 c10 -3 17 -16 17 -30 0 -14 4 -30 9 -35 7 -7 8 3 4 28
-5 28 -11 38 -26 40 -13 1 -15 0 -4 -3z"/>
<path d="M10747 10513 c-3 -5 5 -8 18 -8 13 0 21 3 18 8 -2 4 -10 7 -18 7 -8
0 -16 -3 -18 -7z"/>
<path d="M11322 10508 c-24 -24 -6 -69 28 -67 9 0 6 4 -8 10 -31 12 -27 54 5
53 12 0 20 3 17 8 -7 12 -28 10 -42 -4z"/>
<path d="M11482 10506 c7 -8 15 -12 17 -11 5 6 -10 25 -20 25 -5 0 -4 -6 3
-14z"/>
<path d="M11532 10506 c7 -8 15 -12 17 -11 5 6 -10 25 -20 25 -5 0 -4 -6 3
-14z"/>
<path d="M11616 10505 c-9 -26 -7 -32 5 -12 6 10 9 21 6 23 -2 3 -7 -2 -11
-11z"/>
<path d="M12116 10514 c15 -4 22 -13 22 -30 0 -14 4 -30 9 -35 7 -7 8 3 4 28
-5 32 -11 38 -31 40 -20 1 -21 0 -4 -3z"/>
<path d="M12291 10514 c10 -3 17 -16 17 -30 0 -14 4 -30 9 -35 7 -7 8 3 4 28
-5 28 -11 38 -26 40 -13 1 -15 0 -4 -3z"/>
<path d="M12371 10514 c10 -3 17 -16 17 -30 0 -14 4 -30 9 -35 7 -7 8 3 4 28
-5 28 -11 38 -26 40 -13 1 -15 0 -4 -3z"/>
<path d="M12436 10507 c3 -10 9 -15 12 -12 3 3 0 11 -7 18 -10 9 -11 8 -5 -6z"/>
<path d="M12474 10509 c-3 -6 2 -18 12 -27 17 -16 17 -16 5 0 -7 9 -10 22 -6
28 3 5 4 10 1 10 -3 0 -8 -5 -12 -11z"/>
<path d="M12548 10513 c7 -3 16 -2 19 1 4 3 -2 6 -13 5 -11 0 -14 -3 -6 -6z"/>
<path d="M12612 10508 c-22 -22 -7 -69 23 -68 5 0 2 5 -7 11 -10 5 -18 19 -18
29 0 10 8 24 18 29 9 6 12 11 7 11 -6 0 -16 -5 -23 -12z"/>
<path d="M13360 10516 c0 -2 9 -6 20 -9 11 -3 18 -1 14 4 -5 9 -34 13 -34 5z"/>
<path d="M13681 10502 c-1 -13 4 -32 9 -43 11 -19 44 -26 54 -10 3 4 -5 6 -18
4 -28 -6 -43 22 -24 45 8 10 9 13 1 9 -6 -4 -14 -1 -16 5 -3 7 -6 3 -6 -10z"/>
<path d="M13912 10514 c11 -3 18 -19 21 -42 l4 -37 -1 40 c-1 32 -5 40 -21 42
-15 1 -15 0 -3 -3z"/>
<path d="M14042 10508 c-7 -7 -12 -21 -11 -32 1 -18 2 -17 8 4 5 17 14 25 29
24 11 0 19 3 16 8 -7 12 -28 10 -42 -4z"/>
<path d="M14396 10507 c3 -10 9 -15 12 -12 3 3 0 11 -7 18 -10 9 -11 8 -5 -6z"/>
<path d="M14434 10509 c-3 -6 2 -18 12 -27 17 -16 17 -16 5 0 -7 9 -10 22 -6
28 3 5 4 10 1 10 -3 0 -8 -5 -12 -11z"/>
<path d="M14596 10514 c15 -4 22 -13 22 -30 0 -14 4 -30 9 -35 7 -7 8 3 4 28
-5 32 -11 38 -31 40 -20 1 -21 0 -4 -3z"/>
<path d="M14760 10516 c0 -2 9 -6 20 -9 11 -3 18 -1 14 4 -5 9 -34 13 -34 5z"/>
<path d="M14850 10516 c0 -2 9 -6 20 -9 11 -3 18 -1 14 4 -5 9 -34 13 -34 5z"/>
<path d="M12760 10499 c0 -5 5 -7 10 -4 6 3 10 8 10 11 0 2 -4 4 -10 4 -5 0
-10 -5 -10 -11z"/>
<path d="M12817 10486 c6 -31 -19 -45 -45 -25 -16 12 -15 11 1 -6 14 -16 21
-17 35 -9 20 13 28 42 14 56 -6 6 -8 0 -5 -16z"/>
<path d="M13835 10500 c-3 -5 -2 -10 4 -10 5 0 13 5 16 10 3 6 2 10 -4 10 -5
0 -13 -4 -16 -10z"/>
<path d="M14352 10485 c0 -16 2 -22 5 -12 2 9 2 23 0 30 -3 6 -5 -1 -5 -18z"/>
<path d="M14650 10499 c0 -5 5 -7 10 -4 6 3 10 8 10 11 0 2 -4 4 -10 4 -5 0
-10 -5 -10 -11z"/>
<path d="M14708 10483 c5 -21 7 -23 10 -9 2 10 0 22 -6 28 -6 6 -7 0 -4 -19z"/>
<path d="M10510 10481 c0 -11 4 -22 9 -25 4 -3 6 6 3 19 -5 30 -12 33 -12 6z"/>
<path d="M11222 10480 c0 -14 2 -19 5 -12 2 6 2 18 0 25 -3 6 -5 1 -5 -13z"/>
<path d="M11278 10475 c-3 -14 -1 -28 3 -31 5 -3 9 9 9 25 0 38 -6 40 -12 6z"/>
<path d="M12171 10485 c-1 -22 16 -45 33 -45 5 0 3 6 -6 13 -9 6 -18 21 -21
32 -5 20 -5 20 -6 0z"/>
<path d="M12567 10493 c-2 -5 -1 -19 4 -33 7 -23 7 -23 8 8 1 31 -3 40 -12 25z"/>
<path d="M13343 10481 c2 -29 31 -51 47 -35 8 8 4 10 -12 10 -15 -1 -24 7 -29
24 -8 25 -8 25 -6 1z"/>
<path d="M14207 10493 c-14 -13 -6 -23 17 -23 13 0 26 -4 28 -9 2 -5 9 -3 16
5 11 12 7 14 -23 14 -22 0 -34 4 -30 10 7 11 2 13 -8 3z"/>
<path d="M14741 10485 c-1 -25 17 -45 39 -44 10 0 9 3 -5 8 -11 4 -23 19 -26
32 -6 21 -7 21 -8 4z"/>
<path d="M14833 10481 c2 -29 31 -51 47 -35 8 8 4 10 -12 10 -15 -1 -24 7 -29
24 -8 25 -8 25 -6 1z"/>
<path d="M10171 10479 c-1 -21 24 -43 41 -36 8 3 6 6 -5 6 -10 1 -22 11 -27
24 -6 15 -9 17 -9 6z"/>
<path d="M10731 10479 c-1 -21 24 -43 41 -36 8 3 6 6 -5 6 -10 1 -22 11 -27
24 -6 15 -9 17 -9 6z"/>
<path d="M11958 10483 c7 -3 16 -2 19 1 4 3 -2 6 -13 5 -11 0 -14 -3 -6 -6z"/>
<path d="M12698 10483 c6 -2 18 -2 25 0 6 3 1 5 -13 5 -14 0 -19 -2 -12 -5z"/>
<path d="M12881 10483 c-1 -6 -4 -20 -7 -30 -5 -17 -5 -17 6 0 6 10 9 23 6 30
-3 9 -5 9 -5 0z"/>
<path d="M13088 10483 c6 -2 18 -2 25 0 6 3 1 5 -13 5 -14 0 -19 -2 -12 -5z"/>
<path d="M13241 10480 c-2 -38 47 -53 70 -22 11 14 11 15 -1 5 -22 -20 -50
-15 -60 10 -5 13 -9 16 -9 7z"/>
<path d="M13518 10483 c6 -2 18 -2 25 0 6 3 1 5 -13 5 -14 0 -19 -2 -12 -5z"/>
<path d="M13968 10483 c6 -2 18 -2 25 0 6 3 1 5 -13 5 -14 0 -19 -2 -12 -5z"/>
<path d="M14381 10479 c-1 -21 24 -43 41 -36 8 3 6 6 -5 6 -10 1 -22 11 -27
24 -6 15 -9 17 -9 6z"/>
<path d="M10595 10470 c-8 -13 3 -30 18 -30 8 0 7 3 -2 9 -7 5 -10 14 -7 20 4
6 5 11 2 11 -3 0 -8 -4 -11 -10z"/>
<path d="M11491 10464 c0 -11 3 -14 6 -6 3 7 2 16 -1 19 -3 4 -6 -2 -5 -13z"/>
<path d="M11542 10460 c0 -14 2 -19 5 -12 2 6 2 18 0 25 -3 6 -5 1 -5 -13z"/>
<path d="M12265 10470 c-8 -13 3 -30 18 -30 8 0 7 3 -2 9 -7 5 -10 14 -7 20 4
6 5 11 2 11 -3 0 -8 -4 -11 -10z"/>
<path d="M12345 10470 c-8 -13 3 -30 18 -30 8 0 7 3 -2 9 -7 5 -10 14 -7 20 4
6 5 11 2 11 -3 0 -8 -4 -11 -10z"/>
<path d="M12420 10474 c0 -26 51 -46 64 -25 4 5 -4 7 -15 4 -15 -4 -27 0 -35
12 -8 11 -14 14 -14 9z"/>
<path d="M12520 10465 c0 -8 2 -15 4 -15 2 0 6 7 10 15 3 8 1 15 -4 15 -6 0
-10 -7 -10 -15z"/>
<path d="M11142 10454 c10 -10 20 -16 22 -13 3 3 -5 11 -17 18 -21 13 -21 12
-5 -5z"/>
<path d="M11645 10459 c-4 -6 -5 -12 -2 -15 2 -3 7 2 10 11 7 17 1 20 -8 4z"/>
<path d="M11742 10454 c9 -9 21 -15 27 -13 6 2 -2 10 -17 17 -25 11 -25 11
-10 -4z"/>
<path d="M13634 10459 c-3 -6 -15 -9 -25 -6 -11 3 -17 1 -13 -4 8 -14 30 -11
44 6 7 8 10 15 7 15 -3 0 -9 -5 -13 -11z"/>
<path d="M13834 10459 c-3 -6 -15 -9 -25 -6 -11 3 -17 1 -13 -4 8 -14 30 -11
44 6 7 8 10 15 7 15 -3 0 -9 -5 -13 -11z"/>
<path d="M13883 10460 c2 -8 12 -16 23 -17 13 -2 15 -1 4 4 -8 3 -19 11 -23
17 -6 7 -7 6 -4 -4z"/>
<path d="M14156 10455 c-11 -8 -15 -15 -9 -15 6 0 16 7 23 15 16 19 11 19 -14
0z"/>
<path d="M14662 10454 c9 -9 21 -15 27 -13 6 2 -2 10 -17 17 -25 11 -25 11
-10 -4z"/>
<path d="M10550 10450 c-9 -6 -10 -10 -3 -10 6 0 15 5 18 10 8 12 4 12 -15 0z"/>
<path d="M10877 10449 c7 -7 15 -10 18 -7 3 3 -2 9 -12 12 -14 6 -15 5 -6 -5z"/>
<path d="M11593 10443 c-4 -10 -11 -22 -17 -26 -7 -6 -6 -7 3 -5 13 4 37 48
25 48 -2 0 -8 -8 -11 -17z"/>
<path d="M12097 10449 c7 -7 15 -10 18 -7 3 3 -2 9 -12 12 -14 6 -15 5 -6 -5z"/>
<path d="M14065 10450 c-16 -7 -17 -9 -3 -9 9 -1 20 4 23 9 7 11 7 11 -20 0z"/>
<path d="M14577 10449 c7 -7 15 -10 18 -7 3 3 -2 9 -12 12 -14 6 -15 5 -6 -5z"/>
<path d="M14000 10240 c0 -5 5 -10 11 -10 5 0 7 5 4 10 -3 6 -8 10 -11 10 -2
0 -4 -4 -4 -10z"/>
<path d="M14068 10199 c-1 -28 0 -53 5 -56 4 -2 7 21 7 51 0 70 -7 73 -12 5z"/>
<path d="M14670 10229 c-6 -11 -9 -28 -7 -37 4 -13 5 -11 6 5 0 12 8 29 17 37
8 9 11 16 5 16 -6 0 -15 -9 -21 -21z"/>
<path d="M14717 10240 c6 -8 13 -28 16 -45 l4 -30 2 31 c0 20 -6 37 -16 45
-16 12 -16 12 -6 -1z"/>
<path d="M14770 10231 c-12 -24 -13 -58 -2 -65 5 -3 7 8 4 23 -2 17 3 34 13
44 9 10 12 17 6 17 -6 0 -15 -9 -21 -19z"/>
<path d="M14817 10240 c6 -8 13 -28 16 -45 l4 -30 2 31 c0 20 -6 37 -16 45
-16 12 -16 12 -6 -1z"/>
<path d="M14870 10231 c-12 -24 -13 -51 0 -71 6 -10 8 -4 4 21 -4 26 -1 40 11
52 9 9 12 17 6 17 -6 0 -15 -9 -21 -19z"/>
<path d="M14917 10240 c6 -8 13 -28 16 -45 l4 -30 2 31 c0 20 -6 37 -16 45
-16 12 -16 12 -6 -1z"/>
<path d="M14995 10229 c-15 -18 -15 -20 -2 -10 15 12 17 11 17 -14 0 -24 -3
-27 -25 -23 -14 3 -25 1 -25 -3 0 -5 11 -9 24 -9 15 0 26 -7 29 -17 4 -17 5
-17 6 0 0 9 7 17 14 17 9 0 9 2 0 8 -6 4 -13 22 -15 41 l-3 33 -20 -23z"/>
<path d="M13408 10227 c-2 -7 -1 -30 3 -52 l6 -40 2 37 c0 20 5 38 10 40 5 2
3 8 -4 15 -10 9 -14 9 -17 0z"/>
<path d="M13211 10208 c-1 -21 3 -25 18 -21 14 3 24 -3 35 -24 18 -33 21 -25
4 12 -6 14 -19 25 -29 25 -10 0 -20 8 -22 18 -3 11 -5 7 -6 -10z"/>
<path d="M13330 10216 c0 -2 9 -6 20 -9 11 -3 18 -1 14 4 -5 9 -34 13 -34 5z"/>
<path d="M13488 10209 c13 -5 20 -13 17 -19 -3 -5 -1 -10 4 -10 6 0 11 4 11 8
0 14 -23 32 -39 31 -10 0 -7 -4 7 -10z"/>
<path d="M13638 10209 c13 -5 20 -13 17 -19 -3 -5 -1 -10 4 -10 6 0 11 4 11 8
0 14 -23 32 -39 31 -10 0 -7 -4 7 -10z"/>
<path d="M13728 10213 c7 -3 16 -2 19 1 4 3 -2 6 -13 5 -11 0 -14 -3 -6 -6z"/>
<path d="M13790 10205 c-15 -18 -10 -45 12 -59 12 -7 21 -7 28 0 8 8 4 10 -12
10 -18 -1 -23 4 -23 24 0 19 5 25 22 24 12 0 20 3 17 8 -8 13 -30 9 -44 -7z"/>
<path d="M14242 10206 c7 -8 15 -12 17 -11 5 6 -10 25 -20 25 -5 0 -4 -6 3
-14z"/>
<path d="M14287 10213 c6 -4 13 -24 16 -43 4 -34 4 -33 3 4 -1 26 -6 41 -16
43 -10 3 -11 2 -3 -4z"/>
<path d="M14450 10216 c0 -2 9 -6 20 -9 11 -3 18 -1 14 4 -5 9 -34 13 -34 5z"/>
<path d="M13311 10185 c-1 -25 17 -45 39 -44 10 0 9 3 -5 8 -11 4 -23 19 -26
32 -6 21 -7 21 -8 4z"/>
<path d="M13452 10180 c0 -14 2 -19 5 -12 2 6 2 18 0 25 -3 6 -5 1 -5 -13z"/>
<path d="M13601 10185 c-1 -25 17 -45 39 -44 10 0 9 3 -5 8 -11 4 -23 19 -26
32 -6 21 -7 21 -8 4z"/>
<path d="M14002 10170 c0 -19 2 -27 5 -17 2 9 2 25 0 35 -3 9 -5 1 -5 -18z"/>
<path d="M14431 10185 c-1 -25 17 -45 39 -44 10 0 9 3 -5 8 -11 4 -23 19 -26
32 -6 21 -7 21 -8 4z"/>
<path d="M14251 10164 c0 -11 3 -14 6 -6 3 7 2 16 -1 19 -3 4 -6 -2 -5 -13z"/>
<path d="M13211 10154 c0 -11 3 -14 6 -6 3 7 2 16 -1 19 -3 4 -6 -2 -5 -13z"/>
<path d="M13872 10154 c9 -9 21 -15 27 -13 6 2 -2 10 -17 17 -25 11 -25 11
-10 -4z"/>
<path d="M13485 10150 c-16 -7 -17 -9 -3 -9 9 -1 20 4 23 9 7 11 7 11 -20 0z"/>
<path d="M14705 10150 c-16 -7 -17 -9 -3 -9 9 -1 20 4 23 9 7 11 7 11 -20 0z"/>
<path d="M14800 10150 c-23 -7 -23 -8 -3 -9 12 -1 25 4 28 9 3 6 5 10 3 9 -2
-1 -14 -5 -28 -9z"/>
<path d="M14128 10143 c7 -3 16 -2 19 1 4 3 -2 6 -13 5 -11 0 -14 -3 -6 -6z"/>
<path d="M1009 8787 c-66 -51 -37 -157 43 -157 14 0 34 7 42 16 19 19 11 41
-9 24 -12 -10 -80 -11 -70 -2 2 3 0 13 -6 23 -25 47 23 103 65 76 32 -21 56
-5 25 17 -27 19 -67 20 -90 3z"/>
<path d="M1182 8718 l3 -83 58 -3 c46 -2 57 0 57 13 0 11 -11 15 -45 15 -38 0
-45 3 -45 20 0 17 7 20 40 20 29 0 40 4 40 15 0 11 -11 15 -40 15 -33 0 -40 3
-40 19 0 16 8 20 43 23 60 4 48 22 -18 26 l-56 3 3 -83z"/>
<path d="M1360 8715 c0 -67 3 -85 14 -85 9 0 16 12 18 32 4 44 24 46 49 4 13
-22 29 -36 41 -36 19 0 19 1 -2 31 -20 28 -21 31 -6 48 40 44 3 91 -71 91
l-43 0 0 -85z m98 33 c-2 -18 -11 -24 -35 -26 -30 -3 -33 -1 -33 22 0 23 4 26
36 26 31 0 35 -3 32 -22z"/>
<path d="M1540 8785 c0 -9 9 -15 24 -15 23 0 24 -3 24 -66 0 -69 5 -85 23 -67
6 6 9 37 7 72 -3 58 -2 61 20 61 13 0 22 6 22 15 0 12 -13 15 -60 15 -47 0
-60 -3 -60 -15z"/>
<path d="M1720 8715 c0 -69 3 -85 15 -85 12 0 15 16 15 85 0 69 -3 85 -15 85
-12 0 -15 -16 -15 -85z"/>
<path d="M1810 8715 c0 -69 3 -85 15 -85 10 0 15 11 15 35 0 33 2 35 35 35 24
0 35 5 35 15 0 10 -11 15 -35 15 -28 0 -35 4 -35 20 0 17 7 20 40 20 29 0 40
4 40 15 0 12 -13 15 -55 15 l-55 0 0 -85z"/>
<path d="M1982 8718 c2 -54 7 -83 16 -86 9 -3 12 18 12 82 0 71 -3 86 -15 86
-13 0 -15 -14 -13 -82z"/>
<path d="M2102 8780 c-12 -11 -25 -32 -28 -45 -17 -70 65 -132 121 -92 28 21
11 39 -21 22 -32 -17 -48 -11 -63 21 -25 56 18 110 64 80 30 -19 48 0 20 21
-27 19 -68 16 -93 -7z"/>
<path d="M2320 8797 c0 -3 -13 -41 -29 -86 -26 -74 -27 -81 -11 -81 10 0 20 9
23 20 4 15 14 20 37 20 23 0 33 -5 37 -20 3 -11 12 -20 19 -20 17 0 13 27 -15
110 -13 41 -23 56 -39 58 -12 2 -22 1 -22 -1z m34 -59 c10 -38 7 -48 -14 -48
-11 0 -20 6 -20 13 0 23 12 57 20 57 4 0 10 -10 14 -22z"/>
<path d="M2450 8785 c0 -9 9 -15 24 -15 23 0 24 -3 24 -65 0 -36 2 -68 5 -71
16 -16 27 14 27 72 0 57 2 64 20 64 11 0 20 7 20 15 0 12 -13 15 -60 15 -47 0
-60 -3 -60 -15z"/>
<path d="M2630 8715 l0 -85 60 0 c47 0 60 3 60 15 0 11 -12 15 -45 15 -38 0
-45 3 -45 20 0 17 7 20 40 20 29 0 40 4 40 15 0 11 -11 15 -40 15 -33 0 -40 3
-40 19 0 16 8 20 43 23 60 4 48 22 -18 26 l-55 3 0 -86z"/>
<path d="M2913 8780 c-30 -27 -36 -55 -23 -96 19 -57 83 -72 125 -29 72 71
-28 194 -102 125z m77 -20 c38 -38 19 -100 -31 -100 -23 0 -32 6 -39 26 -12
31 -3 71 19 84 23 13 29 12 51 -10z"/>
<path d="M3090 8715 c0 -69 3 -85 15 -85 10 0 15 11 15 35 0 33 2 35 35 35 24
0 35 5 35 15 0 10 -11 15 -35 15 -28 0 -35 4 -35 20 0 17 7 20 40 20 29 0 40
4 40 15 0 12 -13 15 -55 15 l-55 0 0 -85z"/>
<path d="M3367 8793 c-20 -5 -47 -52 -47 -82 0 -32 48 -81 79 -81 34 0 67 23
57 39 -6 9 -11 9 -21 1 -8 -6 -26 -10 -41 -8 -21 2 -30 10 -35 31 -16 59 23
101 67 72 24 -15 46 -3 27 16 -11 11 -63 19 -86 12z"/>
<path d="M3553 8780 c-30 -27 -36 -55 -23 -96 19 -57 83 -72 125 -29 72 71
-28 194 -102 125z m77 -20 c38 -38 19 -100 -31 -100 -23 0 -32 6 -39 26 -12
31 -3 71 19 84 23 13 29 12 51 -10z"/>
<path d="M3740 8715 c0 -69 3 -85 15 -85 12 0 15 15 16 68 1 70 5 67 29 -25
15 -60 35 -55 55 15 9 31 18 62 20 67 2 6 4 -20 4 -57 1 -53 4 -68 16 -68 12
0 15 16 15 85 0 82 -1 85 -23 85 -20 0 -26 -9 -42 -62 l-18 -63 -19 63 c-16
54 -22 62 -43 62 -25 0 -25 -1 -25 -85z"/>
<path d="M3982 8718 c2 -51 7 -83 15 -85 7 -3 13 9 15 29 3 30 6 33 38 36 45
5 60 18 60 52 0 32 -32 50 -91 50 l-40 0 3 -82z m93 27 c0 -16 -7 -20 -30 -20
-24 0 -31 5 -33 23 -3 21 0 23 30 20 25 -2 33 -8 33 -23z"/>
<path d="M4170 8715 l0 -85 50 0 c38 0 50 4 50 15 0 10 -11 15 -35 15 l-35 0
0 70 c0 56 -3 70 -15 70 -12 0 -15 -16 -15 -85z"/>
<path d="M4330 8715 l0 -85 60 0 c47 0 60 3 60 15 0 11 -12 15 -45 15 -38 0
-45 3 -45 20 0 17 7 20 40 20 29 0 40 4 40 15 0 11 -11 15 -40 15 -33 0 -40 3
-40 19 0 16 8 20 43 23 60 4 48 22 -18 26 l-55 3 0 -86z"/>
<path d="M4490 8785 c0 -9 9 -15 24 -15 22 0 23 -4 25 -67 2 -72 4 -79 20 -68
6 3 11 35 11 71 0 57 2 64 20 64 11 0 20 7 20 15 0 12 -13 15 -60 15 -47 0
-60 -3 -60 -15z"/>
<path d="M4670 8715 c0 -69 3 -85 15 -85 12 0 15 16 15 85 0 69 -3 85 -15 85
-12 0 -15 -16 -15 -85z"/>
<path d="M4807 8793 c-20 -5 -47 -52 -47 -82 0 -32 48 -81 79 -81 42 0 81 41
81 85 0 61 -48 95 -113 78z m75 -37 c11 -16 10 -54 -2 -77 -12 -21 -64 -27
-75 -8 -15 24 -9 81 10 95 20 15 55 10 67 -10z"/>
<path d="M4980 8715 c0 -68 3 -85 15 -85 10 0 15 15 17 58 l3 57 35 -57 c21
-34 42 -58 53 -58 15 0 17 11 17 85 0 69 -3 85 -15 85 -15 0 -19 -21 -16 -85
l2 -30 -20 25 c-11 14 -28 40 -38 58 -10 17 -26 32 -35 32 -16 0 -18 -10 -18
-85z"/>
<path d="M4183 8171 c-93 -30 -103 -36 -70 -45 14 -3 27 -16 31 -28 8 -31 8
-552 0 -573 -4 -9 -18 -22 -33 -28 -23 -11 -19 -12 41 -15 38 -2 98 -2 135 0
61 3 65 4 42 15 -15 6 -29 19 -33 28 -3 9 -6 86 -6 170 0 142 2 155 19 165 32
16 60 12 86 -15 24 -24 25 -28 25 -180 l0 -155 -25 -10 c-14 -5 -25 -12 -25
-15 0 -3 59 -5 132 -5 79 0 128 4 123 9 -6 5 -19 11 -30 13 -19 3 -20 13 -26
178 -6 195 -15 226 -72 260 -58 36 -127 23 -178 -32 l-29 -32 0 162 c0 123 -3
162 -12 161 -7 -1 -50 -13 -95 -28z"/>
<path d="M8030 8174 c-109 -35 -109 -35 -79 -46 15 -5 30 -19 33 -31 10 -37 7
-544 -4 -571 -6 -16 -17 -26 -30 -26 -11 0 -20 -4 -20 -10 0 -6 51 -10 132
-10 130 0 140 2 96 24 l-23 12 -3 342 c-2 264 -5 342 -15 341 -6 -1 -46 -12
-87 -25z"/>
<path d="M1147 8126 c-108 -40 -160 -133 -126 -223 18 -49 81 -103 171 -149
48 -24 103 -58 122 -75 31 -26 36 -37 36 -73 -1 -50 -15 -71 -63 -91 -105 -44
-202 18 -243 155 -10 33 -21 60 -26 60 -4 0 -8 -49 -8 -108 l0 -109 53 -17
c81 -27 183 -32 250 -12 112 33 185 137 158 227 -20 65 -71 112 -191 174 -60
30 -118 67 -129 81 -59 75 17 162 117 135 59 -16 87 -43 118 -116 16 -36 32
-65 36 -65 5 0 8 42 8 93 l0 94 -42 13 c-66 19 -196 23 -241 6z"/>
<path d="M1857 8129 c-78 -9 -177 -59 -221 -112 -53 -66 -71 -119 -71 -217 0
-99 23 -161 83 -224 38 -39 141 -95 177 -97 11 0 28 -4 39 -8 16 -6 11 -12
-33 -40 -28 -18 -51 -39 -51 -47 0 -12 4 -12 30 1 49 25 76 19 112 -26 18 -23
46 -48 61 -56 36 -18 152 -28 196 -16 54 14 51 33 -4 33 -44 0 -50 4 -95 53
l-49 52 -80 0 c-79 0 -80 0 -58 17 12 10 40 22 62 28 156 39 220 80 270 171
28 50 30 61 30 159 0 92 -3 111 -25 153 -29 58 -96 122 -155 148 -55 25 -145
36 -218 28z m123 -44 c78 -40 114 -143 109 -309 -4 -101 -7 -118 -34 -172 -79
-156 -255 -127 -307 50 -7 23 -12 91 -13 151 0 116 16 180 57 235 43 56 128
76 188 45z"/>
<path d="M5549 8107 c-77 -33 -112 -59 -148 -114 -71 -107 -79 -232 -22 -348
50 -101 141 -160 264 -172 123 -11 219 32 277 124 33 52 36 63 18 63 -7 -1
-26 -21 -42 -46 -41 -66 -94 -97 -171 -102 -97 -6 -159 36 -192 133 -25 70
-24 241 1 313 68 199 254 188 352 -20 22 -47 38 -49 30 -5 -3 17 -8 62 -12 99
-6 63 -8 68 -38 79 -17 6 -83 13 -146 16 -104 3 -120 1 -171 -20z"/>
<path d="M2330 8110 c0 -5 8 -10 18 -10 10 0 28 -7 40 -16 22 -15 22 -18 22
-283 0 -247 -1 -269 -18 -284 -10 -10 -26 -17 -35 -17 -9 0 -19 -4 -22 -10 -4
-7 87 -10 264 -10 l271 0 0 38 c0 22 3 80 6 130 4 53 3 92 -2 92 -5 0 -17 -26
-26 -58 -36 -121 -89 -166 -202 -166 l-71 -1 -3 272 c-2 262 -2 273 18 293 11
11 29 20 40 20 11 0 20 5 20 10 0 6 -60 10 -160 10 -100 0 -160 -4 -160 -10z"/>
<path d="M3406 8068 c-13 -133 -14 -209 -3 -205 6 2 17 22 23 44 34 118 80
163 177 177 l48 7 -3 -281 c-3 -265 -4 -282 -22 -296 -11 -8 -30 -14 -42 -14
-13 0 -26 -4 -29 -10 -4 -7 55 -10 170 -10 115 0 174 3 170 10 -3 6 -16 10
-29 10 -13 0 -31 9 -42 21 -18 20 -19 40 -19 293 l0 271 45 -3 c86 -7 135 -53
171 -161 12 -33 25 -61 30 -61 9 0 4 186 -7 238 l-4 22 -314 0 -315 0 -5 -52z"/>
<path d="M8843 8057 c-39 -33 -62 -61 -65 -77 -2 -21 -9 -26 -40 -28 -30 -3
-38 -7 -38 -23 0 -16 7 -19 40 -19 l40 0 -1 -172 c0 -98 4 -184 9 -199 6 -15
23 -36 38 -48 50 -39 149 -20 194 37 28 35 25 45 -10 27 -32 -16 -68 -12 -82
9 -4 6 -8 86 -8 179 l0 167 55 0 c48 0 55 2 55 20 0 18 -7 20 -55 20 l-55 0 0
80 c0 44 -3 80 -7 79 -5 0 -36 -23 -70 -52z"/>
<path d="M4832 7947 c-51 -19 -95 -59 -127 -118 -39 -71 -42 -180 -8 -245 50
-95 147 -134 257 -103 25 7 59 30 95 67 53 53 58 80 9 48 -13 -8 -40 -18 -61
-21 -103 -19 -183 41 -202 153 l-7 42 156 0 c155 0 156 0 156 23 -1 30 -33 98
-56 119 -50 45 -143 60 -212 35z m118 -59 c11 -18 20 -43 20 -55 0 -22 -3 -23
-86 -23 l-86 0 6 32 c10 49 42 78 88 78 32 0 41 -5 58 -32z"/>
<path d="M6161 7946 c-84 -30 -161 -136 -161 -222 0 -175 156 -292 321 -242
89 26 169 134 169 229 0 172 -169 293 -329 235z m136 -54 c12 -18 27 -59 34
-90 15 -75 8 -218 -14 -259 -30 -57 -100 -54 -131 4 -53 103 -42 352 16 377
34 14 73 0 95 -32z"/>
<path d="M6622 7928 c-83 -27 -111 -48 -62 -48 10 0 21 -7 24 -16 10 -27 7
-324 -4 -345 -6 -10 -17 -19 -25 -19 -7 0 -17 -4 -20 -10 -4 -6 38 -10 119
-10 77 0 126 4 126 10 0 6 -7 10 -15 10 -28 0 -35 39 -35 194 0 143 1 156 19
166 27 14 62 12 84 -5 26 -19 36 -74 37 -197 0 -113 -10 -158 -35 -158 -8 0
-15 -4 -15 -10 0 -6 49 -10 127 -10 125 0 134 2 91 24 -22 11 -23 18 -28 171
-5 147 -3 161 14 178 26 24 63 21 91 -8 24 -23 25 -28 25 -169 0 -151 -4 -176
-25 -176 -8 0 -17 -4 -20 -10 -4 -6 38 -10 119 -10 71 0 126 4 126 9 0 5 -10
11 -22 13 -31 4 -36 30 -37 201 -1 168 -11 205 -63 237 -61 37 -142 19 -195
-44 -17 -20 -28 -26 -31 -18 -10 32 -56 72 -88 78 -55 10 -98 -3 -138 -43
l-36 -36 0 41 c0 23 -3 42 -7 41 -5 -1 -50 -14 -101 -31z"/>
<path d="M7452 7928 c-88 -29 -102 -41 -57 -50 19 -3 20 -12 23 -280 l2 -276
-30 -10 c-16 -6 -30 -13 -30 -16 0 -4 65 -6 145 -6 90 0 145 4 145 10 0 6 -11
10 -24 10 -33 0 -56 25 -58 63 0 18 -2 52 -4 76 -3 40 -1 43 19 36 57 -16 99
-17 140 -1 85 32 145 117 154 217 13 143 -66 259 -177 259 -39 0 -65 -13 -107
-53 l-33 -31 0 42 c0 23 -3 42 -7 41 -5 -1 -50 -15 -101 -31z m220 -78 c51
-40 81 -174 58 -259 -22 -81 -88 -115 -140 -73 -21 17 -22 24 -22 177 1 118 5
160 14 167 23 14 65 9 90 -12z"/>
<path d="M8385 7936 c-93 -43 -139 -124 -139 -241 0 -164 122 -257 278 -214
25 7 59 30 95 67 53 53 58 80 9 48 -13 -8 -40 -18 -60 -21 -104 -19 -184 41
-203 153 l-7 42 156 0 156 0 0 25 c0 31 -30 93 -57 117 -56 51 -150 61 -228
24z m135 -48 c11 -18 20 -43 20 -55 0 -22 -3 -23 -86 -23 l-86 0 6 32 c10 49
42 78 88 78 32 0 41 -5 58 -32z"/>
<path d="M9252 7947 c-95 -35 -157 -134 -157 -252 1 -139 84 -225 219 -225 55
0 119 33 167 88 41 47 40 66 -3 38 -13 -8 -40 -18 -60 -21 -104 -19 -184 41
-203 153 l-7 42 157 0 158 0 -7 42 c-18 111 -147 177 -264 135z m118 -59 c11
-18 20 -43 20 -55 0 -22 -3 -23 -86 -23 l-86 0 6 32 c10 49 42 78 88 78 32 0
41 -5 58 -32z"/>
<path d="M2940 7720 l0 -40 115 0 115 0 0 40 0 40 -115 0 -115 0 0 -40z"/>
<path d="M5279 7081 c-17 -18 -29 -40 -29 -56 0 -32 49 -85 80 -85 29 0 76 26
84 45 17 46 4 91 -35 110 -42 22 -67 18 -100 -14z"/>
<path d="M3695 7095 c-5 -2 -50 -16 -100 -31 -87 -26 -89 -27 -62 -39 41 -17
47 -31 47 -118 l0 -78 -30 16 c-67 35 -161 7 -223 -66 -121 -141 -62 -389 96
-406 50 -6 119 23 137 57 14 27 30 16 30 -21 0 -16 5 -29 12 -29 6 0 49 12 95
27 79 26 105 43 65 43 -41 0 -42 12 -42 337 0 172 -3 313 -7 312 -5 0 -12 -2
-18 -4z m-141 -286 l26 -20 0 -154 c0 -142 -2 -155 -19 -165 -78 -41 -151 47
-154 185 -2 72 10 119 38 149 30 32 72 34 109 5z"/>
<path d="M8037 7025 c-61 -20 -123 -81 -133 -129 -18 -96 38 -172 178 -242 48
-24 103 -58 122 -75 31 -27 36 -37 36 -74 0 -36 -5 -48 -30 -69 -66 -55 -176
-39 -230 36 -15 21 -36 65 -46 98 -10 33 -21 60 -26 60 -4 0 -8 -49 -8 -110
l0 -109 53 -16 c144 -44 274 -26 351 48 80 77 84 165 10 247 -21 23 -77 60
-145 95 -60 32 -119 69 -129 83 -58 73 19 159 118 133 59 -16 87 -43 118 -116
16 -36 32 -65 36 -65 5 0 8 42 8 93 l0 94 -42 13 c-68 20 -186 22 -241 5z"/>
<path d="M8746 7029 c-85 -10 -181 -61 -228 -123 -95 -127 -87 -318 20 -430
38 -39 141 -95 177 -97 11 0 28 -4 39 -8 16 -6 11 -12 -33 -40 -28 -18 -51
-39 -51 -47 0 -12 4 -12 30 1 31 16 68 19 85 7 6 -4 21 -22 34 -40 12 -18 36
-39 53 -48 60 -31 225 -29 236 4 2 8 -11 12 -43 12 -44 0 -50 4 -95 53 l-49
52 -80 0 c-79 0 -80 0 -58 17 12 10 40 22 62 28 149 37 202 68 254 147 42 63
54 112 49 208 -4 96 -31 157 -96 217 -77 70 -182 101 -306 87z m117 -40 c86
-44 122 -141 115 -313 -4 -98 -8 -121 -32 -169 -77 -158 -255 -131 -308 47
-20 64 -16 251 6 314 18 53 62 107 100 122 30 13 94 12 119 -1z"/>
<path d="M990 7010 c0 -5 9 -10 19 -10 10 0 29 -8 40 -18 22 -17 22 -22 22
-281 0 -234 -2 -265 -17 -282 -9 -11 -25 -19 -35 -19 -10 0 -21 -4 -24 -10 -4
-7 52 -10 160 -10 108 0 164 3 160 10 -3 6 -15 10 -26 10 -10 0 -28 9 -39 20
-19 19 -20 33 -20 280 0 247 1 261 20 280 11 11 29 20 39 20 11 0 23 5 26 10
4 7 -52 10 -159 10 -104 0 -166 -4 -166 -10z"/>
<path d="M9220 7010 c0 -5 9 -10 19 -10 10 0 28 -8 40 -17 21 -18 22 -25 22
-281 1 -237 -1 -265 -17 -283 -9 -10 -25 -19 -35 -19 -10 0 -21 -4 -24 -10 -4
-7 86 -10 263 -10 l269 0 7 126 c7 115 4 158 -8 123 -53 -149 -83 -189 -155
-209 -23 -6 -63 -10 -89 -8 l-47 3 -3 272 c-2 262 -2 273 18 293 11 11 29 20
39 20 11 0 23 5 26 10 4 7 -52 10 -159 10 -104 0 -166 -4 -166 -10z"/>
<path d="M2053 6957 c-39 -33 -62 -61 -65 -77 -2 -21 -9 -26 -40 -28 -29 -2
-38 -8 -38 -22 0 -14 9 -20 38 -22 l37 -3 2 -95 c8 -295 6 -277 32 -304 47
-50 138 -46 196 8 43 41 46 60 5 40 -31 -16 -69 -11 -82 10 -4 6 -8 86 -8 179
l0 167 55 0 c48 0 55 2 55 20 0 18 -7 20 -55 20 l-55 0 0 80 c0 44 -3 80 -7
79 -5 0 -36 -23 -70 -52z"/>
<path d="M4963 6957 c-39 -33 -62 -61 -65 -77 -2 -21 -9 -26 -40 -28 -30 -3
-38 -7 -38 -23 0 -15 7 -19 39 -19 25 0 39 -5 38 -12 0 -7 1 -90 1 -185 2
-168 2 -172 28 -202 46 -55 138 -54 199 3 19 18 35 39 35 46 0 10 -3 10 -15 0
-21 -17 -84 -17 -96 0 -5 8 -9 90 -9 183 l0 167 55 0 c48 0 55 2 55 20 0 18
-7 20 -55 20 l-55 0 0 80 c0 44 -3 80 -7 79 -5 0 -36 -23 -70 -52z"/>
<path d="M6913 6957 c-39 -33 -62 -61 -65 -77 -2 -21 -9 -26 -40 -28 -30 -3
-38 -7 -38 -23 0 -15 7 -19 35 -19 19 0 36 -1 37 -2 0 -2 4 -87 7 -190 6 -179
7 -187 30 -212 47 -50 138 -46 196 8 44 42 46 60 3 39 -28 -14 -35 -14 -57 -2
l-26 15 -3 172 -2 172 55 0 c48 0 55 2 55 20 0 18 -7 20 -55 20 l-55 0 0 80
c0 44 -3 80 -7 79 -5 0 -36 -23 -70 -52z"/>
<path d="M1453 6829 c-90 -29 -118 -49 -69 -49 13 0 27 -7 30 -16 10 -27 7
-324 -4 -345 -6 -10 -17 -19 -25 -19 -7 0 -17 -4 -20 -10 -4 -6 39 -10 121
-10 l127 0 -27 25 -26 25 2 161 3 162 28 10 c37 12 74 2 88 -26 15 -26 24
-216 14 -282 -5 -35 -12 -49 -26 -52 -51 -14 -7 -23 108 -23 125 0 134 2 91
24 -22 11 -23 17 -29 181 -6 180 -11 205 -54 245 -22 21 -37 25 -85 25 -55 0
-62 -3 -100 -40 l-40 -39 0 42 c0 23 -3 42 -7 41 -5 0 -50 -14 -100 -30z"/>
<path d="M2391 6829 c-104 -32 -112 -36 -87 -44 9 -3 23 -7 31 -10 13 -4 15
-31 13 -187 -3 -174 -4 -183 -23 -186 -11 -2 -24 -8 -30 -13 -5 -5 49 -9 135
-9 144 1 145 1 110 18 l-35 17 -3 165 c-2 146 -1 166 15 177 26 20 36 16 62
-22 17 -26 31 -35 52 -35 34 0 69 41 69 82 0 34 -39 78 -70 78 -31 0 -74 -25
-103 -60 -14 -16 -28 -30 -31 -30 -3 0 -6 20 -8 44 l-3 44 -94 -29z"/>
<path d="M2871 6846 c-84 -30 -161 -136 -161 -221 0 -136 88 -239 214 -252 85
-9 142 11 201 71 54 54 75 103 75 173 0 166 -172 286 -329 229z m111 -27 c52
-28 88 -230 59 -337 -22 -80 -78 -106 -126 -58 -31 31 -45 83 -52 191 -10 165
38 247 119 204z"/>
<path d="M4562 6847 c-19 -6 -55 -30 -82 -54 -163 -147 -85 -423 120 -423 59
0 100 21 148 75 38 43 54 73 35 63 -94 -48 -155 -49 -205 -2 -42 40 -58 83
-58 154 0 143 87 213 136 110 29 -60 46 -73 84 -65 41 9 57 43 40 84 -24 58
-130 87 -218 58z"/>
<path d="M5301 6829 c-103 -32 -112 -36 -87 -44 9 -3 23 -7 31 -10 13 -4 15
-32 15 -174 0 -93 -3 -176 -6 -185 -3 -9 -14 -16 -24 -16 -11 0 -22 -4 -25
-10 -4 -6 42 -10 131 -10 83 0 134 4 129 9 -6 5 -19 11 -30 13 -19 3 -20 12
-23 231 -1 125 -6 227 -10 226 -4 0 -49 -14 -101 -30z"/>
<path d="M5671 6846 c-18 -6 -51 -27 -72 -45 -163 -137 -84 -406 125 -428 85
-9 142 11 201 71 54 54 75 103 75 173 0 166 -172 286 -329 229z m111 -27 c52
-28 88 -230 59 -337 -22 -80 -78 -106 -126 -58 -31 31 -45 83 -52 191 -10 165
38 247 119 204z"/>
<path d="M6133 6829 c-90 -29 -118 -49 -69 -49 13 0 27 -7 30 -16 10 -27 7
-324 -4 -345 -6 -10 -17 -19 -25 -19 -7 0 -17 -4 -20 -10 -4 -6 39 -10 121
-10 l127 0 -27 25 -26 25 2 162 3 163 38 9 c34 9 40 7 64 -17 25 -24 27 -33
31 -136 6 -139 -3 -202 -29 -208 -51 -14 -7 -23 109 -23 l127 0 -32 20 -33 20
0 147 c0 166 -9 210 -50 256 -26 29 -33 32 -89 32 -56 0 -62 -2 -101 -40 l-40
-39 0 42 c0 23 -3 42 -7 41 -5 0 -50 -14 -100 -30z"/>
<path d="M7320 6847 c-19 -6 -58 -34 -86 -62 -43 -43 -54 -61 -65 -109 -24
-108 13 -208 100 -266 154 -103 363 -1 379 186 15 177 -154 306 -328 251z
m112 -28 c52 -28 88 -230 59 -337 -31 -113 -128 -106 -163 12 -14 46 -17 226
-5 269 16 57 62 81 109 56z"/>
<path d="M3883 6832 c-46 -8 -83 -19 -83 -23 0 -5 9 -9 20 -9 33 0 40 -33 40
-176 0 -120 3 -143 21 -182 24 -48 64 -72 121 -72 38 0 92 30 108 60 14 27 30
16 30 -21 0 -16 5 -29 12 -29 21 0 178 54 178 61 0 4 -11 10 -25 13 -14 4 -27
16 -30 29 -3 12 -5 100 -3 195 2 94 1 172 -2 172 -26 1 -200 -35 -200 -42 0
-4 9 -8 20 -8 34 0 41 -32 38 -182 l-3 -143 -27 -12 c-40 -20 -74 -2 -88 44
-7 24 -10 96 -8 191 4 175 17 160 -119 134z"/>
<path d="M5719 5981 c-17 -18 -29 -40 -29 -56 0 -32 49 -85 80 -85 29 0 76 26
84 45 17 46 4 91 -35 110 -42 22 -67 18 -100 -14z"/>
<path d="M1062 5728 c-88 -29 -102 -41 -57 -50 19 -3 20 -11 20 -278 l0 -274
-23 -12 c-12 -6 -25 -14 -29 -18 -3 -3 60 -6 141 -6 136 0 178 9 107 23 -34 7
-39 20 -42 107 -2 71 -7 67 63 53 75 -15 169 38 212 118 85 155 5 369 -137
369 -45 0 -71 -12 -114 -53 l-33 -31 0 42 c0 23 -3 42 -7 41 -5 -1 -50 -15
-101 -31z m220 -78 c51 -40 81 -174 58 -259 -21 -81 -88 -116 -139 -73 -20 16
-22 26 -23 175 -1 172 0 177 53 177 15 0 38 -9 51 -20z"/>
<path d="M1641 5729 c-104 -32 -112 -36 -87 -44 9 -3 23 -7 31 -10 13 -4 15
-33 15 -180 l0 -175 -32 -20 -33 -20 145 1 c144 0 145 0 110 17 l-35 17 -3
167 c-2 164 -2 167 20 179 20 11 25 8 54 -25 38 -44 73 -48 103 -10 12 15 21
40 21 56 0 34 -39 78 -70 78 -31 0 -74 -25 -103 -60 -14 -16 -28 -30 -31 -30
-3 0 -6 20 -8 44 l-3 44 -94 -29z"/>
<path d="M2115 5744 c-48 -18 -99 -65 -128 -119 -28 -53 -30 -163 -3 -218 40
-81 106 -126 196 -134 107 -10 192 37 240 131 103 203 -91 418 -305 340z m117
-25 c52 -28 88 -230 59 -337 -31 -113 -128 -106 -163 12 -14 46 -17 226 -5
269 16 57 62 81 109 56z"/>
<path d="M2614 5735 c-59 -29 -84 -67 -84 -127 0 -56 17 -87 63 -117 l37 -24
-44 -47 c-24 -26 -46 -56 -50 -67 -9 -28 9 -69 35 -84 22 -11 22 -12 -14 -30
-100 -52 -73 -122 58 -149 166 -34 348 34 362 136 3 24 0 51 -7 63 -19 36 -90
61 -188 67 -164 9 -182 18 -143 72 19 27 24 29 69 24 73 -7 153 20 191 63 34
39 42 80 27 139 -6 24 -4 25 41 28 36 2 49 7 51 21 3 15 -5 17 -66 17 -48 0
-83 6 -113 20 -65 29 -161 27 -225 -5z m164 -55 c42 -85 24 -200 -33 -200 -48
0 -85 71 -85 161 0 60 23 91 63 87 27 -2 36 -11 55 -48z m94 -452 c53 -20 43
-68 -19 -89 -53 -18 -163 -15 -207 6 -39 19 -51 43 -41 82 l6 25 117 -7 c64
-3 129 -11 144 -17z"/>
<path d="M3130 5725 c-63 -22 -89 -35 -77 -39 9 -3 24 -8 32 -11 13 -4 15 -30
13 -182 l-3 -178 -30 -15 c-30 -15 -29 -15 43 -18 112 -4 221 2 197 11 -51 21
-50 17 -55 163 -6 172 -4 191 23 205 18 11 25 7 53 -25 38 -44 73 -48 103 -10
57 73 -16 162 -97 120 -16 -8 -41 -29 -55 -46 -14 -16 -28 -30 -31 -30 -3 0
-6 20 -6 45 0 25 -3 45 -7 44 -5 0 -51 -15 -103 -34z"/>
<path d="M3595 5737 c-58 -28 -78 -48 -100 -100 l-15 -37 60 0 60 0 0 31 c0
32 15 69 34 81 6 4 25 8 43 8 43 0 63 -30 63 -97 0 -45 -3 -53 -22 -59 -56
-17 -188 -88 -213 -114 -49 -52 -32 -126 37 -161 64 -32 114 -24 170 29 15 14
29 24 30 21 2 -2 8 -13 14 -24 28 -51 108 -56 164 -9 31 27 32 51 1 35 -40
-22 -46 -1 -46 167 0 134 -3 162 -18 185 -29 44 -62 60 -140 64 -61 3 -80 0
-122 -20z m143 -284 c-3 -84 -4 -88 -30 -100 -38 -19 -75 -2 -94 42 -20 49 -3
82 61 117 28 15 54 28 58 28 4 0 6 -39 5 -87z"/>
<path d="M4062 5728 c-83 -26 -112 -48 -62 -48 10 0 21 -7 24 -16 10 -27 7
-324 -4 -345 -6 -10 -17 -19 -25 -19 -7 0 -17 -4 -20 -10 -4 -6 39 -10 121
-10 l127 0 -27 25 -26 25 2 162 3 163 26 9 c14 5 37 6 50 3 44 -11 53 -42 57
-182 4 -134 -5 -185 -33 -185 -8 0 -15 -4 -15 -10 0 -6 49 -10 127 -10 125 0
134 2 91 24 -22 11 -23 18 -28 171 -5 147 -3 161 14 178 26 24 63 21 91 -8 24
-23 25 -28 25 -172 0 -81 -4 -153 -8 -159 -4 -6 -16 -15 -27 -20 -23 -10 75
-17 178 -12 57 3 60 4 36 15 -35 15 -39 34 -39 206 0 168 -10 205 -62 237 -60
36 -141 20 -190 -39 -29 -34 -38 -38 -38 -18 0 7 -14 26 -31 43 -26 25 -38 29
-89 29 -55 0 -62 -3 -100 -40 l-40 -39 0 36 c0 20 -3 39 -7 41 -5 2 -50 -9
-101 -25z"/>
<path d="M4903 5728 c-86 -27 -118 -48 -75 -48 38 0 42 -19 42 -183 0 -157 -7
-197 -35 -197 -7 0 -17 -4 -20 -10 -4 -6 39 -10 121 -10 l127 0 -27 25 -26 25
2 161 3 162 28 10 c15 5 38 6 50 3 42 -10 51 -42 55 -181 4 -134 -5 -185 -33
-185 -8 0 -15 -4 -15 -10 0 -6 49 -10 127 -10 125 0 134 2 91 24 -22 11 -23
18 -28 171 -5 147 -3 161 14 178 26 24 63 21 91 -8 24 -23 25 -28 25 -169 0
-151 -4 -176 -25 -176 -8 0 -17 -4 -20 -10 -4 -6 38 -10 119 -10 77 0 126 4
126 10 0 6 -9 10 -20 10 -32 0 -40 39 -40 202 0 119 -3 157 -17 185 -43 91
-165 97 -238 12 -19 -23 -30 -30 -33 -20 -2 7 -17 28 -32 45 -26 28 -34 31
-90 31 -59 0 -63 -1 -101 -42 l-39 -42 0 44 c0 25 -3 45 -7 44 -5 -1 -50 -14
-100 -31z"/>
<path d="M5735 5726 c-97 -32 -100 -35 -50 -51 13 -4 15 -30 13 -182 -3 -174
-4 -178 -25 -188 -45 -19 -21 -25 102 -25 77 0 125 4 125 10 0 6 -9 10 -19 10
-10 0 -22 7 -25 16 -3 9 -6 112 -6 230 0 118 -3 214 -7 213 -5 0 -53 -15 -108
-33z"/>
<path d="M6043 5729 c-90 -29 -118 -49 -69 -49 13 0 27 -7 30 -16 10 -27 7
-324 -4 -345 -6 -10 -17 -19 -25 -19 -7 0 -17 -4 -20 -10 -4 -6 39 -10 121
-10 l127 0 -27 25 -26 25 2 162 3 163 26 9 c35 12 76 1 91 -27 9 -15 13 -68
13 -170 0 -146 0 -148 -25 -167 l-25 -20 129 0 c128 0 138 2 94 24 -22 11 -23
17 -28 181 -4 137 -9 176 -23 203 -45 83 -147 95 -218 26 l-39 -38 0 42 c0 23
-3 42 -7 41 -5 0 -50 -14 -100 -30z"/>
<path d="M6645 5741 c-23 -10 -53 -33 -68 -50 -51 -61 -29 -169 43 -206 l32
-16 -45 -48 c-25 -26 -47 -57 -51 -68 -9 -28 9 -69 35 -84 22 -11 22 -12 -14
-31 -20 -10 -44 -30 -53 -44 -16 -24 -16 -27 2 -51 30 -40 86 -56 194 -57 160
0 265 53 277 140 11 87 -48 123 -216 131 -144 7 -161 17 -121 73 18 25 24 27
68 22 66 -6 150 20 186 57 33 35 50 99 36 136 -6 15 -10 28 -10 30 0 2 21 5
47 7 36 2 49 7 51 21 3 15 -5 17 -66 17 -48 0 -83 6 -113 20 -58 26 -159 26
-214 1z m148 -49 c27 -47 35 -154 13 -187 -20 -31 -58 -33 -84 -5 -38 41 -54
152 -30 205 10 22 17 26 47 23 28 -2 39 -10 54 -36z m99 -464 c53 -20 43 -68
-19 -89 -51 -17 -160 -15 -205 4 -39 16 -53 44 -43 84 l6 25 117 -7 c64 -3
129 -11 144 -17z"/>
<path d="M980 4645 c0 -50 4 -85 10 -85 6 0 10 35 10 85 0 50 -4 85 -10 85 -6
0 -10 -35 -10 -85z"/>
<path d="M1298 4724 c-5 -4 -8 -16 -8 -26 0 -10 -7 -18 -17 -18 -17 -1 -17 -1
-1 -13 10 -8 18 -31 20 -58 3 -39 6 -44 28 -47 22 -2 23 -1 8 8 -12 7 -18 23
-18 47 0 22 7 41 18 49 16 12 16 13 0 14 -10 0 -18 10 -20 26 -2 14 -6 22 -10
18z"/>
<path d="M1728 4724 c-5 -4 -8 -16 -8 -26 0 -10 -7 -18 -17 -18 -17 -1 -17 -1
-1 -13 10 -8 18 -31 20 -58 3 -39 6 -44 28 -47 22 -2 23 -1 8 8 -12 7 -18 23
-18 47 0 22 7 41 18 49 16 12 16 13 0 14 -10 0 -18 10 -20 26 -2 14 -6 22 -10
18z"/>
<path d="M2281 4693 c12 -21 26 -42 31 -47 4 -6 8 -27 8 -48 0 -31 4 -38 20
-38 16 0 20 7 20 38 0 21 6 46 13 57 51 74 51 75 28 75 -14 0 -28 -11 -39 -30
-21 -37 -27 -37 -42 0 -9 22 -19 30 -37 30 l-25 0 23 -37z"/>
<path d="M2810 4715 c0 -8 7 -15 15 -15 8 0 15 7 15 15 0 8 -7 15 -15 15 -8 0
-15 -7 -15 -15z"/>
<path d="M3070 4645 c0 -68 3 -85 15 -85 10 0 15 16 17 63 l3 62 15 -60 c13
-47 20 -60 35 -60 14 0 23 13 36 55 l17 55 1 -57 c1 -45 5 -58 16 -58 12 0 15
16 15 85 0 84 0 85 -25 85 -21 0 -27 -8 -42 -57 l-17 -58 -12 40 c-7 22 -13
48 -13 58 -1 12 -9 17 -31 17 l-30 0 0 -85z"/>
<path d="M1040 4618 c0 -32 4 -58 10 -58 6 0 10 20 10 45 0 34 5 47 20 55 24
13 40 -12 40 -64 0 -20 5 -36 10 -36 13 0 13 76 0 101 -8 14 -20 18 -50 17
l-40 -1 0 -59z"/>
<path d="M1170 4661 c-12 -23 10 -51 40 -51 10 0 22 -5 26 -11 10 -17 -17 -28
-44 -18 -28 11 -44 3 -22 -11 23 -15 66 -12 80 5 18 22 5 45 -30 51 -17 4 -33
11 -36 16 -10 15 18 28 37 17 18 -9 34 2 22 15 -14 14 -63 5 -73 -13z"/>
<path d="M1370 4618 c0 -32 4 -58 10 -58 6 0 10 21 10 46 0 37 4 47 20 51 30
8 24 22 -10 21 -30 -1 -30 -1 -30 -60z"/>
<path d="M1462 4623 l3 -58 43 -1 42 -2 0 59 c0 33 -4 59 -10 59 -5 0 -10 -22
-10 -49 0 -35 -4 -51 -16 -55 -26 -10 -34 3 -34 55 0 27 -5 49 -10 49 -7 0
-10 -22 -8 -57z"/>
<path d="M1596 4658 c-21 -30 -20 -61 2 -81 21 -19 67 -23 77 -6 11 16 -1 22
-23 10 -16 -9 -24 -7 -36 5 -34 33 -4 94 36 73 22 -12 34 -6 23 10 -12 20 -63
12 -79 -11z"/>
<path d="M1796 4658 c-9 -12 -16 -29 -16 -38 0 -27 30 -60 55 -60 32 0 55 25
55 60 0 56 -64 82 -94 38z m74 -38 c0 -38 -31 -57 -54 -34 -33 33 -4 94 35 74
12 -7 19 -21 19 -40z"/>
<path d="M1920 4618 c0 -32 4 -58 10 -58 6 0 10 21 10 46 0 37 4 47 20 51 30
8 24 22 -10 21 -30 -1 -30 -1 -30 -60z"/>
<path d="M2001 4667 c-17 -21 -3 -46 32 -55 17 -4 32 -13 34 -19 5 -15 -31
-22 -51 -11 -22 12 -36 0 -16 -12 23 -15 66 -12 80 5 18 22 5 43 -32 53 -37 9
-36 27 2 27 36 1 31 19 -6 23 -18 2 -36 -3 -43 -11z"/>
<path d="M2420 4660 c-9 -17 -8 -20 10 -20 11 0 20 5 20 10 0 6 7 10 16 10 23
0 11 -24 -16 -30 -28 -7 -45 -32 -37 -53 5 -13 19 -16 57 -16 l50 2 0 39 c0
58 -14 78 -55 78 -24 0 -37 -6 -45 -20z m60 -65 c0 -8 -7 -15 -15 -15 -8 0
-15 7 -15 15 0 8 7 15 15 15 8 0 15 -7 15 -15z"/>
<path d="M2550 4665 c-14 -17 -7 -43 15 -50 8 -3 22 -7 31 -10 8 -3 12 -9 9
-15 -4 -7 -13 -7 -26 0 -25 14 -44 3 -28 -16 15 -18 73 -18 89 1 17 21 5 44
-30 56 -39 14 -39 30 0 23 18 -4 30 -2 30 4 0 24 -71 30 -90 7z"/>
<path d="M2681 4666 c-15 -18 -8 -44 14 -51 8 -3 22 -7 31 -10 8 -3 12 -9 9
-15 -4 -7 -13 -6 -27 1 -15 8 -23 8 -31 0 -16 -16 8 -31 49 -31 61 0 71 52 14
71 -40 14 -39 30 1 22 25 -5 31 -3 27 8 -7 20 -72 24 -87 5z"/>
<path d="M2810 4620 c0 -47 3 -60 15 -60 12 0 15 13 15 60 0 47 -3 60 -15 60
-12 0 -15 -13 -15 -60z"/>
<path d="M2880 4619 c0 -45 3 -59 14 -59 10 0 16 14 18 42 2 31 8 44 21 46 14
3 17 -4 17 -42 0 -39 3 -46 20 -46 17 0 20 7 20 48 0 63 -7 72 -63 70 l-47 -1
0 -58z"/>
<path d="M3280 4660 c-9 -17 -8 -20 10 -20 11 0 20 5 20 10 0 6 7 10 16 10 23
0 11 -24 -16 -30 -28 -7 -45 -32 -37 -53 5 -13 19 -16 57 -16 l50 2 0 39 c0
58 -14 78 -55 78 -24 0 -37 -6 -45 -20z m60 -65 c0 -8 -6 -15 -14 -15 -17 0
-28 14 -19 24 12 12 33 6 33 -9z"/>
<path d="M3410 4619 c0 -46 3 -59 15 -59 10 0 15 10 15 29 0 39 9 61 26 61 8
0 14 6 14 14 0 9 -12 14 -35 14 l-35 0 0 -59z"/>
<path d="M3507 4662 c-21 -23 -22 -66 -1 -86 17 -17 61 -21 83 -7 22 14 3 31
-28 25 -23 -5 -29 -2 -34 15 -7 26 20 58 36 42 15 -15 37 -14 37 3 0 30 -68
36 -93 8z"/>
<path d="M3637 4662 c-50 -55 16 -128 84 -92 24 13 26 72 3 94 -21 22 -67 20
-87 -2z m68 -42 c0 -18 -6 -26 -22 -28 -20 -3 -23 1 -23 28 0 27 3 31 23 28
16 -2 22 -10 22 -28z"/>
<path d="M1010 2050 l0 -230 50 0 50 0 0 95 0 95 85 0 85 0 0 -95 0 -95 50 0
50 0 0 230 0 230 -50 0 -50 0 0 -90 0 -90 -85 0 -85 0 0 90 0 90 -50 0 -50 0
0 -230z"/>
<path d="M3560 2050 l0 -230 115 0 c162 0 207 20 251 115 44 93 28 219 -36
286 -43 45 -99 59 -235 59 l-95 0 0 -230z m249 105 c44 -39 51 -153 12 -204
-17 -23 -73 -40 -133 -41 l-28 0 0 136 0 136 64 -4 c45 -3 71 -10 85 -23z"/>
<path d="M4010 2050 l0 -230 50 0 50 0 0 98 c0 113 12 142 60 142 42 0 50 -23
50 -139 l0 -101 50 0 50 0 0 103 c-1 166 -19 208 -96 223 -24 4 -46 0 -74 -14
l-40 -19 0 83 0 84 -50 0 -50 0 0 -230z"/>
<path d="M5910 2230 l0 -50 45 0 45 0 0 50 0 50 -45 0 -45 0 0 -50z"/>
<path d="M6930 2051 l0 -231 50 0 49 0 3 139 3 140 83 -140 84 -139 49 0 49 0
0 230 0 230 -45 0 -44 0 -3 -146 -3 -145 -86 143 -86 143 -52 3 -51 3 0 -230z"/>
<path d="M7390 2230 l0 -50 50 0 50 0 0 50 0 50 -50 0 -50 0 0 -50z"/>
<path d="M7570 2050 l0 -230 50 0 50 0 0 54 c0 36 5 58 15 66 9 7 17 11 19 9
1 -2 22 -32 45 -66 l42 -63 61 0 60 0 -24 33 c-13 17 -45 62 -71 98 l-47 67
65 61 66 61 -63 0 c-62 0 -63 0 -115 -52 l-53 -52 0 122 0 122 -50 0 -50 0 0
-230z"/>
<path d="M3223 2257 l-43 -10 0 -53 c0 -53 0 -54 -30 -54 -28 0 -30 -3 -30
-35 0 -32 2 -35 30 -35 l30 0 0 -101 c0 -55 4 -109 10 -119 16 -31 101 -51
144 -34 10 4 16 18 16 39 0 31 -3 34 -32 37 l-33 3 -3 88 -3 87 36 0 c33 0 35
2 35 35 0 33 -2 35 -35 35 l-35 0 0 65 c0 36 -3 64 -7 64 -5 -1 -27 -6 -50
-12z"/>
<path d="M1547 2136 c-50 -19 -67 -34 -88 -81 -24 -51 -23 -99 1 -152 44 -98
186 -121 272 -44 l31 27 -34 21 c-32 21 -33 21 -57 2 -44 -34 -138 -13 -130
29 3 15 19 17 108 17 l105 0 3 37 c4 47 -29 113 -67 133 -44 22 -101 27 -144
11z m103 -76 c33 -33 24 -40 -45 -40 -71 0 -85 15 -43 44 31 22 64 20 88 -4z"/>
<path d="M1968 2132 c-30 -16 -38 -17 -38 -6 0 10 -14 14 -50 14 l-50 0 0
-160 0 -160 50 0 50 0 0 103 c0 104 7 128 40 139 8 3 25 2 38 -3 21 -8 22 -13
22 -124 l0 -115 50 0 50 0 0 98 c0 113 12 142 61 142 40 0 49 -27 49 -146 l0
-94 45 0 45 0 0 125 c0 150 -10 178 -69 196 -46 14 -105 -1 -124 -32 -11 -18
-13 -17 -38 7 -36 34 -85 40 -131 16z"/>
<path d="M2491 2137 c-45 -12 -77 -44 -83 -82 -3 -17 3 -20 38 -23 35 -3 42 0
52 23 10 22 17 26 50 23 32 -3 37 -6 37 -28 0 -23 -6 -26 -65 -38 -76 -15
-107 -33 -121 -70 -33 -86 68 -158 165 -118 34 14 40 14 61 0 13 -9 34 -14 47
-12 20 3 23 8 20 38 -2 19 -5 76 -7 125 -5 113 -10 131 -38 149 -32 20 -105
26 -156 13z m99 -206 c0 -37 -20 -53 -62 -49 -26 2 -34 8 -36 26 -3 17 4 26
30 37 52 23 68 19 68 -14z"/>
<path d="M2907 2131 c-29 -15 -37 -16 -37 -5 0 10 -14 14 -50 14 l-50 0 0
-160 0 -160 49 0 49 0 4 110 c3 120 8 130 60 130 39 0 48 -25 48 -139 l0 -101
51 0 51 0 -4 128 c-5 142 -13 167 -63 188 -45 19 -63 18 -108 -5z"/>
<path d="M4487 2141 c-45 -9 -84 -45 -89 -81 -3 -23 1 -25 40 -28 32 -2 42 0
42 12 0 21 35 38 68 34 21 -2 27 -8 27 -28 0 -22 -6 -25 -64 -37 -36 -7 -75
-20 -88 -29 -48 -31 -53 -105 -11 -144 30 -28 96 -35 142 -16 34 14 40 14 61
0 13 -9 34 -14 47 -12 20 3 23 8 20 38 -2 19 -6 84 -10 143 -6 100 -9 110 -32
127 -14 11 -32 20 -41 20 -9 0 -29 2 -45 4 -16 3 -46 1 -67 -3z m91 -213 c-4
-38 -38 -61 -72 -49 -41 16 -29 62 19 74 49 12 56 8 53 -25z"/>
<path d="M4897 2131 c-29 -15 -37 -16 -37 -5 0 10 -14 14 -50 14 l-50 0 0
-160 0 -160 50 0 50 0 0 98 c0 113 12 142 60 142 42 0 50 -23 50 -139 l0 -101
51 0 51 0 -4 128 c-5 142 -13 167 -63 188 -45 19 -63 18 -108 -5z"/>
<path d="M5235 2139 c-51 -12 -85 -45 -85 -81 0 -26 3 -28 40 -28 28 0 40 4
40 15 0 20 35 37 68 33 21 -2 28 -9 30 -30 3 -22 -1 -28 -17 -28 -45 0 -124
-23 -147 -43 -14 -13 -27 -37 -30 -58 -13 -77 83 -131 170 -95 34 14 40 14 61
0 13 -9 34 -14 47 -12 20 3 23 8 20 38 -1 19 -5 80 -7 135 -7 121 -16 139 -85
154 -28 6 -54 11 -58 10 -4 -1 -25 -5 -47 -10z m93 -211 c-4 -38 -38 -61 -72
-49 -41 16 -29 62 19 74 49 12 56 8 53 -25z"/>
<path d="M5647 2131 c-29 -15 -37 -16 -37 -5 0 10 -14 14 -50 14 l-50 0 0
-160 0 -160 50 0 50 0 0 100 c0 94 2 103 24 125 16 16 31 23 43 19 36 -13 43
-35 43 -141 l0 -103 51 0 51 0 -4 128 c-5 142 -13 167 -63 188 -45 19 -63 18
-108 -5z"/>
<path d="M6171 2137 c-45 -12 -77 -44 -83 -82 -3 -17 3 -20 38 -23 35 -3 42 0
52 23 10 22 17 26 50 23 32 -3 37 -6 37 -28 0 -23 -6 -26 -65 -38 -76 -15
-107 -33 -121 -70 -33 -86 68 -158 165 -118 34 14 40 14 61 0 13 -9 34 -14 47
-12 20 3 23 8 20 38 -2 19 -5 76 -7 125 -5 113 -10 131 -38 149 -32 20 -105
26 -156 13z m99 -206 c0 -37 -20 -53 -62 -49 -26 2 -34 8 -36 26 -3 17 4 26
30 37 52 23 68 19 68 -14z"/>
<path d="M8035 2141 c-50 -13 -76 -31 -90 -64 -17 -41 -12 -47 35 -47 30 0 40
5 45 20 12 38 88 40 93 2 4 -25 1 -26 -81 -42 -70 -14 -106 -43 -113 -91 -5
-28 -1 -41 21 -67 33 -40 80 -49 141 -29 40 13 49 13 75 0 45 -23 65 -14 61
27 -1 19 -5 76 -8 125 -6 120 -10 132 -42 149 -36 18 -100 26 -137 17z m83
-213 c-4 -38 -38 -61 -72 -49 -41 16 -29 62 19 74 49 12 56 8 53 -25z"/>
<path d="M8437 2131 c-29 -15 -37 -16 -37 -5 0 10 -14 14 -50 14 l-50 0 0
-160 0 -160 50 0 50 0 0 103 c0 121 9 140 60 135 l35 -3 3 -117 3 -118 49 0
50 0 0 98 c0 113 12 142 61 142 40 0 49 -27 49 -146 l0 -94 45 0 45 0 0 125
c0 147 -10 177 -65 195 -42 14 -85 6 -120 -21 -23 -19 -26 -19 -42 -4 -37 38
-83 43 -136 16z"/>
<path d="M5910 1966 c0 -145 -3 -177 -16 -190 -8 -9 -19 -16 -24 -16 -9 0 -18
-41 -12 -58 8 -26 113 -9 134 22 4 6 8 102 8 214 l0 202 -45 0 -45 0 0 -174z"/>
<path d="M6410 2133 c0 -3 23 -75 50 -159 63 -191 63 -202 10 -210 -37 -6 -40
-9 -40 -40 l0 -34 50 0 c65 0 98 16 119 59 10 20 42 110 70 199 29 90 55 170
58 178 4 11 -6 14 -45 14 -58 0 -51 11 -88 -144 -10 -42 -21 -76 -25 -76 -3 0
-9 15 -13 33 -4 17 -16 67 -27 110 l-21 77 -49 0 c-27 0 -49 -3 -49 -7z"/>
<path d="M7390 1980 l0 -160 50 0 50 0 0 160 0 160 -50 0 -50 0 0 -160z"/>
<path d="M980 1275 l0 -85 44 0 c64 0 91 25 91 85 0 60 -27 85 -91 85 l-44 0
0 -85z m101 49 c16 -19 15 -79 -1 -99 -7 -8 -28 -15 -46 -15 l-34 0 0 65 0 65
34 0 c18 0 39 -7 47 -16z"/>
<path d="M1680 1346 c0 -7 -9 -16 -20 -19 -11 -3 -20 -10 -20 -15 0 -5 9 -12
20 -15 17 -4 20 -14 20 -56 0 -44 3 -51 20 -51 18 0 20 7 20 85 0 78 -2 85
-20 85 -11 0 -20 -6 -20 -14z"/>
<path d="M1760 1333 c0 -16 -3 -38 -6 -50 -5 -18 -2 -23 13 -23 10 0 24 5 30
11 16 16 33 2 33 -27 0 -26 -27 -33 -48 -12 -8 8 -15 9 -23 1 -16 -16 17 -43
51 -43 37 0 60 24 60 60 0 33 -39 66 -65 56 -9 -3 -15 0 -15 9 0 10 11 15 35
15 24 0 35 5 35 15 0 11 -12 15 -50 15 -48 0 -50 -1 -50 -27z"/>
<path d="M1950 1275 c0 -68 3 -85 15 -85 10 0 15 16 17 63 l3 62 15 -60 c13
-47 20 -60 35 -60 14 0 23 13 36 55 l17 55 1 -57 c1 -45 5 -58 16 -58 12 0 15
16 15 85 0 84 0 85 -25 85 -21 0 -27 -8 -42 -57 l-17 -58 -12 40 c-7 22 -13
48 -13 58 -1 12 -9 17 -31 17 l-30 0 0 -85z"/>
<path d="M2436 1344 c-23 -22 -20 -54 4 -54 13 0 20 7 20 20 0 13 7 20 20 20
36 0 25 -44 -20 -83 -55 -47 -52 -57 20 -57 47 0 60 3 60 15 0 10 -10 15 -31
15 l-31 0 31 31 c33 32 41 75 19 97 -17 17 -74 15 -92 -4z"/>
<path d="M2579 1343 c-8 -9 -14 -39 -14 -70 0 -61 18 -83 67 -83 21 0 31 8 44
32 18 34 15 98 -6 123 -17 20 -74 19 -91 -2z m69 -58 c3 -47 -9 -70 -32 -62
-11 5 -16 19 -16 50 0 48 6 59 30 55 10 -2 16 -16 18 -43z"/>
<path d="M2725 1344 c-20 -20 -16 -48 8 -52 12 -2 17 3 17 17 0 14 6 21 20 21
36 0 25 -44 -20 -83 -55 -47 -52 -57 20 -57 47 0 60 3 60 15 0 10 -10 15 -31
15 l-31 0 31 31 c33 32 41 75 19 97 -17 17 -74 15 -93 -4z"/>
<path d="M2865 1344 c-20 -20 -16 -48 8 -52 12 -2 17 3 17 17 0 14 6 21 20 21
36 0 25 -44 -20 -83 -55 -47 -52 -57 20 -57 47 0 60 3 60 15 0 10 -10 15 -32
15 l-32 0 32 31 c34 33 42 75 20 97 -17 17 -74 15 -93 -4z"/>
<path d="M1290 1330 c0 -12 -7 -20 -17 -20 -17 -1 -17 -1 -1 -13 10 -8 18 -31
20 -58 2 -37 7 -45 26 -47 12 -2 22 1 22 7 0 6 -6 10 -12 9 -9 -2 -14 13 -16
44 -2 38 0 47 15 51 17 4 17 5 1 6 -11 1 -18 9 -18 21 0 11 -4 20 -10 20 -5 0
-10 -9 -10 -20z"/>
<path d="M1157 1303 c-4 -3 -7 -13 -7 -21 0 -13 3 -12 19 2 10 9 25 14 35 10
25 -10 15 -25 -24 -38 -28 -9 -35 -16 -35 -36 0 -23 4 -25 50 -27 l50 -1 -4
46 c-2 26 -8 53 -13 60 -11 13 -60 17 -71 5z m61 -69 c-5 -26 -35 -41 -50 -26
-11 11 -9 16 6 28 26 19 48 18 44 -2z"/>
<path d="M1366 1288 c-9 -12 -16 -29 -16 -38 0 -9 7 -26 16 -38 18 -25 65 -30
84 -7 10 12 6 13 -25 8 -26 -4 -40 -2 -46 8 -15 25 -10 29 36 29 49 0 59 15
29 44 -22 23 -60 20 -78 -6z m62 0 c20 -20 14 -28 -23 -28 -38 0 -46 13 -17
29 22 13 26 13 40 -1z"/>
<path d="M2160 1290 c-9 -17 -8 -20 10 -20 11 0 20 5 20 10 0 6 7 10 16 10 23
0 11 -24 -16 -30 -28 -7 -45 -32 -37 -53 5 -13 19 -16 57 -16 l50 2 0 46 c0
26 -5 52 -12 59 -20 20 -76 15 -88 -8z m60 -65 c0 -8 -7 -15 -15 -15 -8 0 -15
7 -15 15 0 8 7 15 15 15 8 0 15 -7 15 -15z"/>
<path d="M2290 1249 c0 -46 3 -59 15 -59 10 0 15 10 15 29 0 39 9 61 26 61 8
0 14 6 14 14 0 9 -12 14 -35 14 l-35 0 0 -59z"/>
<path d="M980 905 l0 -85 55 0 c30 0 55 5 55 10 0 6 -20 10 -45 10 l-45 0 0
75 c0 43 -4 75 -10 75 -6 0 -10 -35 -10 -85z"/>
<path d="M1528 984 c-5 -4 -8 -16 -8 -26 0 -10 -7 -18 -17 -18 -17 -1 -17 -1
-1 -13 10 -8 18 -31 20 -58 3 -39 6 -44 28 -47 22 -2 23 -1 8 8 -12 7 -18 23
-18 47 0 22 7 41 18 49 16 12 16 13 0 14 -10 0 -18 10 -20 26 -2 14 -6 22 -10
18z"/>
<path d="M1600 905 c0 -50 4 -85 10 -85 6 0 10 19 10 43 0 51 15 71 42 56 13
-7 18 -21 18 -54 0 -25 5 -45 10 -45 15 0 12 83 -3 105 -10 12 -22 16 -40 13
-24 -5 -27 -2 -27 23 0 16 -4 29 -10 29 -6 0 -10 -35 -10 -85z"/>
<path d="M1896 974 c-12 -12 -14 -20 -7 -27 8 -8 15 -7 23 1 17 17 48 15 48
-4 0 -9 -9 -18 -20 -21 -11 -3 -20 -12 -20 -20 0 -8 4 -12 9 -9 13 8 45 -20
37 -32 -9 -15 -43 -16 -51 -2 -8 13 -35 13 -35 1 0 -34 81 -56 108 -29 14 14
16 64 2 73 -6 4 -5 13 3 25 18 29 -2 54 -45 58 -23 2 -41 -3 -52 -14z"/>
<path d="M2098 948 c-6 -52 5 -67 34 -49 19 12 23 11 34 -4 25 -34 -14 -63
-44 -33 -8 8 -15 9 -23 1 -16 -16 17 -43 51 -43 37 0 60 24 60 60 0 33 -39 66
-65 56 -9 -3 -15 0 -15 9 0 10 11 15 35 15 24 0 35 5 35 15 0 11 -12 15 -49
15 l-49 0 -4 -42z"/>
<path d="M2313 983 c-7 -3 -13 -13 -13 -24 0 -10 -7 -19 -15 -19 -8 0 -15 -5
-15 -10 0 -6 7 -13 15 -16 10 -4 15 -20 15 -50 0 -42 1 -44 30 -44 31 0 41 16
15 26 -9 4 -15 19 -15 35 0 19 5 29 15 29 8 0 15 7 15 15 0 8 -6 15 -14 15 -8
0 -16 11 -18 23 -2 14 -8 22 -15 20z"/>
<path d="M2553 983 c-7 -3 -13 -13 -13 -24 0 -10 -7 -19 -15 -19 -19 0 -19
-16 -1 -27 8 -4 16 -26 18 -48 3 -35 6 -40 31 -43 28 -3 38 15 12 24 -9 4 -15
19 -15 35 0 19 5 29 15 29 8 0 15 7 15 15 0 8 -6 15 -14 15 -8 0 -16 11 -18
23 -2 14 -8 22 -15 20z"/>
<path d="M2760 905 c0 -69 3 -85 15 -85 12 0 15 16 15 85 0 69 -3 85 -15 85
-12 0 -15 -16 -15 -85z"/>
<path d="M2880 905 c0 -67 3 -85 14 -85 10 0 16 14 18 42 2 31 8 44 21 46 14
3 17 -4 17 -42 0 -39 3 -46 20 -46 17 0 20 7 20 49 0 55 -16 76 -55 69 -22 -5
-25 -2 -25 23 0 19 -5 29 -15 29 -12 0 -15 -16 -15 -85z"/>
<path d="M1116 918 c-21 -30 -20 -61 2 -81 23 -21 65 -22 82 -2 10 12 6 13
-25 8 -26 -4 -40 -2 -46 8 -15 25 -10 29 36 29 49 0 59 15 29 44 -22 23 -60
20 -78 -6z m62 0 c20 -20 14 -28 -23 -28 -38 0 -46 13 -17 29 22 13 26 13 40
-1z"/>
<path d="M1240 878 c0 -32 4 -58 10 -58 6 0 10 20 10 45 0 34 5 47 20 55 24
13 40 -12 40 -64 0 -20 5 -36 10 -36 13 0 13 76 0 101 -8 14 -20 18 -50 17
l-40 -1 0 -59z"/>
<path d="M1374 914 c-31 -47 13 -113 57 -86 19 12 20 11 17 -10 -3 -26 -46
-38 -59 -17 -4 8 -11 10 -15 6 -12 -11 17 -37 42 -37 40 0 54 25 54 99 l0 68
-40 1 c-32 2 -43 -3 -56 -24z m76 -35 c0 -33 -23 -48 -49 -32 -39 24 -11 94
30 73 12 -7 19 -21 19 -41z"/>
<path d="M2397 922 c-37 -41 -11 -102 43 -102 36 0 60 24 60 60 0 16 -7 36
-16 44 -21 22 -67 20 -87 -2z m71 -46 c-3 -24 -47 -36 -49 -14 -4 41 16 65 39
46 7 -6 12 -21 10 -32z"/>
<path d="M2634 923 c-17 -17 -17 -18 1 -22 11 -2 21 2 23 8 6 17 32 13 32 -4
0 -9 -9 -15 -24 -15 -28 0 -49 -22 -44 -47 3 -14 14 -18 59 -20 l55 -2 -6 47
c-3 26 -9 53 -13 60 -12 18 -63 15 -83 -5z m56 -68 c0 -8 -6 -15 -14 -15 -17
0 -28 14 -19 24 12 12 33 6 33 -9z"/>
<path d="M3027 922 c-37 -40 -9 -102 46 -102 34 0 57 24 57 60 0 16 -7 36 -16
44 -21 22 -67 20 -87 -2z m73 -41 c0 -23 -19 -41 -36 -34 -17 6 -18 60 -1 66
16 6 37 -12 37 -32z"/>
<path d="M3154 890 c3 -27 7 -54 10 -59 4 -5 29 -10 56 -9 l50 0 0 59 c0 52
-2 59 -19 59 -16 0 -20 -8 -23 -42 -2 -30 -8 -43 -18 -43 -10 0 -16 13 -18 43
-3 34 -7 42 -23 42 -17 0 -19 -6 -15 -50z"/>
<path d="M3300 879 c0 -46 3 -59 15 -59 10 0 15 10 15 29 0 39 9 61 26 61 8 0
14 6 14 14 0 9 -12 14 -35 14 l-35 0 0 -59z"/>
<path d="M3390 925 c-14 -17 -7 -43 15 -50 8 -3 22 -7 31 -10 8 -3 12 -9 9
-15 -4 -7 -13 -6 -27 1 -15 8 -23 8 -31 0 -16 -16 8 -31 50 -31 61 0 67 59 8
74 -36 9 -31 27 5 20 18 -4 30 -2 30 4 0 24 -71 30 -90 7z"/>
<path d="M2023 840 c1 -12 8 -20 19 -20 11 0 18 7 18 20 0 13 -7 20 -19 20
-14 0 -19 -6 -18 -20z"/>
</g>
</svg>
